<?xml version="1.0" encoding="UTF-8"?> <svg xmlns="http://www.w3.org/2000/svg" width="112" height="40" viewBox="0 0 112 40" fill="none"><g clip-path="url(#clip0_4829_2555)"><path d="M67.0569 24.4844H54.1016V27.9384H67.0569V24.4844Z" fill="#FF5D5F"></path><path d="M67.0569 8.54199H54.1016V11.996H67.0569V8.54199Z" fill="#FF5D5F"></path><path d="M67.0569 16.5132H54.1016V19.9672H67.0569V16.5132Z" fill="#FF5D5F"></path><path d="M21.6928 35.4551C19.4531 36.1968 17.1731 36.5664 14.8528 36.5664C12.5325 36.5664 10.2525 36.1968 8.01275 35.4551C5.773 34.7134 3.71444 33.6846 1.83708 32.3535L0 35.1455C2.11895 36.6763 4.43924 37.8675 6.96084 38.719C9.47993 39.5681 12.1097 39.9976 14.8503 40.0001C17.5908 40.0001 20.2206 39.5681 22.7397 38.719C25.2613 37.8575 27.5816 36.6763 29.7006 35.1455L27.8635 32.3535C25.9911 33.6821 23.9326 34.7134 21.6928 35.4551Z" fill="#FF5D5F"></path><path d="M28.9062 8.54199H25.4258V27.9383H28.9062V8.54199Z" fill="#FF5D5F"></path><path d="M46.4195 18.2488C45.8634 17.8292 45.2494 17.4971 44.5724 17.2374C43.8954 16.9877 43.2512 16.7579 42.6246 16.5556C42.0684 16.3958 41.555 16.226 41.102 16.0662C40.6491 15.9063 40.2539 15.7166 39.9318 15.4968C39.6097 15.277 39.358 15.0173 39.1743 14.7052C38.9931 14.3955 38.9026 14.0234 38.9026 13.5839C38.9026 13.1044 39.0133 12.7024 39.2247 12.3627C39.4361 12.0231 39.7079 11.7534 40.0426 11.5411C40.3647 11.3313 40.7397 11.1715 41.1423 11.0716C41.545 10.9717 41.9501 10.9218 42.3528 10.9218C43.0297 10.9218 43.7042 11.0816 44.3811 11.4013C45.0581 11.7209 45.5715 12.123 45.9439 12.5925L45.954 12.5425L48.2139 10.0802C47.4564 9.38848 46.568 8.86905 45.5513 8.51944C44.5221 8.16982 43.523 8 42.5239 8C41.6356 8 40.7673 8.10988 39.9117 8.33962C39.0536 8.56937 38.2986 8.90901 37.6216 9.38099C36.9547 9.85048 36.4111 10.4423 35.9984 11.1515C35.5857 11.8733 35.3718 12.7123 35.3718 13.7038C35.3718 14.6253 35.5228 15.3844 35.8147 15.9962C36.1167 16.6056 36.4917 17.1275 36.9648 17.547C37.4279 17.9666 37.9639 18.3087 38.5477 18.5584C39.1316 18.8182 39.728 19.0379 40.3143 19.2202C40.9208 19.42 41.4946 19.6098 42.0508 19.7896C42.5944 19.9694 43.08 20.1792 43.4827 20.4289C43.8854 20.6786 44.21 20.9683 44.4516 21.3104C44.6932 21.65 44.814 22.0521 44.814 22.5815C44.814 23.111 44.7032 23.553 44.4918 23.9126C44.2805 24.2722 44.0087 24.5644 43.6639 24.8041C43.3217 25.0438 42.9366 25.2137 42.5138 25.3135C42.091 25.4134 41.6758 25.4634 41.2732 25.4634C40.4956 25.4634 39.7104 25.2736 38.9126 24.894C38.1149 24.5144 37.4706 23.9925 36.995 23.3332L34.5137 25.6357C35.2913 26.5572 36.2904 27.2364 37.5008 27.7084C38.7113 28.1779 39.952 28.4101 41.2228 28.4101C42.1816 28.4101 43.0901 28.2803 43.9558 28.0306C44.814 27.7709 45.569 27.3888 46.2157 26.8793C46.86 26.3699 47.3759 25.7281 47.7584 24.9464C48.1409 24.1748 48.3347 23.2658 48.3347 22.2244C48.3347 21.273 48.1635 20.4838 47.8011 19.842C47.4388 19.2002 46.9858 18.6683 46.4195 18.2488Z" fill="#FF5D5F"></path><path d="M10.7046 12.655L16.7268 27.9383H20.6124L12.1064 8.54199H10.7046H9.30037L0.796875 27.9383H4.67996L10.7046 12.655Z" fill="#FF5D5F"></path><path d="M102.093 12.655L108.115 27.9383H112.001L103.495 8.54199H102.093H100.692L92.1855 27.9383H96.0711L102.093 12.655Z" fill="#FF5D5F"></path><path d="M80.8647 8.54199H77.1855H73.7051V27.9383H77.1855V21.5078H80.7817L81.597 23.5031L83.4241 27.9358H87.4002L84.2118 20.5913C86.1218 19.46 87.4002 17.3898 87.4002 15.0224C87.3977 11.4438 84.4735 8.54199 80.8647 8.54199ZM80.8647 18.0541H77.1855V11.9957H80.8647C82.5483 11.9957 83.9173 13.3542 83.9173 15.0249C83.9173 16.6956 82.5483 18.0541 80.8647 18.0541Z" fill="#FF5D5F"></path></g><defs><clipPath id="clip0_4829_2555"><rect width="112" height="40" fill="white"></rect></clipPath></defs></svg> 