<?xml version="1.0" encoding="utf-8"?>
<!-- Generator: Adobe Illustrator 28.0.0, SVG Export Plug-In . SVG Version: 6.00 Build 0)  -->
<svg version="1.1" id="Layer_1" xmlns="http://www.w3.org/2000/svg" xmlns:xlink="http://www.w3.org/1999/xlink" x="0px" y="0px"
	 viewBox="0 0 420 70" style="enable-background:new 0 0 420 70;" xml:space="preserve">
<style type="text/css">
	.st0{fill:#4614AA;}
</style>
<rect y="30" class="st0" width="40" height="10"/>
<path class="st0" d="M39.2,20c-7.6,0-14.7-5-21.5-9.9L15,8.2L20.8,0l2.7,1.9C34.3,9.7,38.6,12,44.4,8.1l5.6,8.3
	C46.2,19,42.6,20,39.2,20z"/>
<path class="st0" d="M20.8,70L15,61.8l2.7-1.9c10-7.1,20.3-14.5,32.4-6.3l-5.6,8.3c-5.8-3.9-10.1-1.5-20.9,6.2L20.8,70z"/>
<path class="st0" d="M109.4,29.7v27.8h-10v-5.4c0,0-4.4,6.5-14,6.5c-8,0-15.4-5.2-15.4-14.3c0-8.2,7.5-14.1,16.7-14.1
	c7.8,0,11.9,3.1,11.9,3.1v-2.4c0-5.6-5.4-7.4-9.2-7.4c-6.2,0-12.8,3.2-12.8,3.2l-3.5-8.9c0,0,7.9-3.9,16.8-3.9
	C102.2,13.7,109.4,20,109.4,29.7z M98.6,44.6v-4.4c0,0-3.9-2.2-9.7-2.2c-3.3,0-7.9,1.4-7.9,6c0,4.5,4.4,5.5,7.7,5.5
	C95.2,49.6,98.6,44.6,98.6,44.6z"/>
<path class="st0" d="M173.4,47c0,0-2.1,1.5-4.5,1.5c-2.9,0-5.6-1.5-5.6-6.7V24.5h12.9v-9.7h-12.9V3h-10.8v11.8h-18.2V3h-10.8v11.8
	h-8.4v9.7h8.4v18.9c0,9.1,6.3,15.1,14.6,15.1c6.2,0,10.3-2.8,10.3-2.8l-4-8.8c0,0-2.1,1.5-4.5,1.5c-2.9,0-5.6-1.5-5.6-6.7V24.5h18.2
	v18.9c0,9.1,6.3,15.1,14.6,15.1c6.2,0,10.3-2.8,10.3-2.8L173.4,47z"/>
<path class="st0" d="M213.4,15.1l-3.8,9.7c0,0-2-1-5.1-1c-6.6,0-9.6,5.8-9.6,5.8v27.9h-10.8V14.8h10.3V21c0,0,3.7-7.3,11.6-7.3
	C209.8,13.7,213.4,15.1,213.4,15.1z"/>
<path class="st0" d="M254.4,29.7v27.8h-10v-5.4c0,0-4.4,6.5-14,6.5c-8,0-15.4-5.2-15.4-14.3c0-8.2,7.5-14.1,16.7-14.1
	c7.8,0,11.9,3.1,11.9,3.1v-2.4c0-5.6-5.4-7.4-9.2-7.4c-6.2,0-12.8,3.2-12.8,3.2l-3.5-8.9c0,0,7.9-3.9,16.8-3.9
	C247.2,13.7,254.4,20,254.4,29.7z M243.6,44.6v-4.4c0,0-3.9-2.2-9.7-2.2c-3.3,0-7.9,1.4-7.9,6c0,4.5,4.4,5.5,7.7,5.5
	C240.2,49.6,243.6,44.6,243.6,44.6z"/>
<path class="st0" d="M293.2,43.3l7.1,7.2c0,0-6.1,8.1-17.6,8.1c-12.8,0-23-9.9-23-22.4c0-12.6,10.2-22.4,23-22.4
	c11.4,0,17.5,7.9,17.5,7.9l-7.5,6.7c0,0-3.5-4.5-10-4.5c-7.3,0-12,5.7-12,12.3s4.7,12.3,12,12.3S293.2,43.3,293.2,43.3z"/>
<path class="st0" d="M303,14.8h8.4V3h10.8v11.8h12.9v9.7h-12.9v17.2c0,5.2,2.7,6.7,5.6,6.7c2.4,0,4.5-1.5,4.5-1.5l4,8.8
	c0,0-4.1,2.8-10.3,2.8c-8.3,0-14.6-6-14.6-15.1V24.5H303V14.8z"/>
<path class="st0" d="M347.6,44.4c4,0,7.1,3.2,7.1,7.1c0,4-3.2,7.1-7.1,7.1c-4,0-7.1-3.2-7.1-7.1C340.5,47.5,343.7,44.4,347.6,44.4z"
	/>
<path class="st0" d="M397.7,29.7v27.8h-10v-5.4c0,0-4.4,6.5-14,6.5c-8,0-15.4-5.2-15.4-14.3c0-8.2,7.5-14.1,16.7-14.1
	c7.8,0,11.9,3.1,11.9,3.1v-2.4c0-5.6-5.4-7.4-9.2-7.4c-6.2,0-12.8,3.2-12.8,3.2l-3.5-8.9c0,0,7.9-3.9,16.8-3.9
	C390.5,13.7,397.7,20,397.7,29.7z M386.9,44.6v-4.4c0,0-3.9-2.2-9.7-2.2c-3.3,0-7.9,1.4-7.9,6c0,4.5,4.4,5.5,7.7,5.5
	C383.4,49.6,386.9,44.6,386.9,44.6z"/>
<path class="st0" d="M412.9,0c4,0,7.1,3.1,7.1,7.1s-3.2,7.1-7.1,7.1c-4,0-7.1-3.2-7.1-7.1C405.8,3.1,408.9,0,412.9,0z M407.5,18
	h10.8v39.5h-10.8V18z"/>
</svg>
