<svg width="123" height="25" viewBox="0 0 123 25" fill="none" xmlns="http://www.w3.org/2000/svg">
<path d="M37.373 21.9867V11.589H35.0876V9.47753H37.373V7.95073C37.373 5.05174 38.6969 3.37033 41.678 3.37033C42.1858 3.35214 42.6938 3.39759 43.1903 3.50561V5.67019C42.8494 5.60632 42.5032 5.57558 42.1563 5.57839C40.5812 5.57839 40.1271 6.23549 40.1271 8.04736V9.49685H42.9536V11.5986H40.1271V21.9867H37.373Z" fill="#240F35"/>
<path d="M46.8586 16.3819C46.9843 18.5658 48.4724 20.1844 50.8447 20.1844C52.6856 20.1844 53.6713 19.4694 54.2945 18.3677H57.0292C56.3383 20.3004 54.5458 22.3297 50.7481 22.3297C46.1049 22.3297 44.1143 19.0297 44.1143 15.7586C44.1143 12.0479 46.5929 9.13446 50.6901 9.13446C55.4638 9.13446 57.2032 12.5794 57.2032 15.6765C57.2032 15.9133 57.2032 16.092 57.2032 16.3723L46.8586 16.3819ZM54.3767 14.5314C54.2752 13.1737 53.5553 11.2024 50.6756 11.2024C48.2308 11.2024 47.1002 12.6857 46.9069 14.5314H54.3767Z" fill="#240F35"/>
<path d="M58.5553 9.47748H60.9711V5.54453H63.73V9.47748H66.8995V11.5792H63.73V18.044C63.73 19.3872 64.0585 19.9767 65.3872 19.9767C65.7859 19.9861 66.1845 19.9521 66.5758 19.8752V21.8417C65.9018 22.03 65.2024 22.1115 64.5031 22.0832C61.7925 22.0832 60.9808 20.885 60.9808 18.4305V11.5889H58.565L58.5553 9.47748Z" fill="#240F35"/>
<path d="M81.3122 18.0005C80.7275 20.2858 78.7466 22.349 75.0648 22.349C70.5328 22.349 68.3923 19.3485 68.3923 15.7779C68.3923 12.2073 70.8082 9.16339 75.089 9.16339C79.481 9.16339 81.0271 11.9754 81.2687 13.5699H78.5291C78.1474 12.5214 77.2584 11.3231 75.0697 11.3231C72.5814 11.3231 71.2044 13.1737 71.2044 15.7441C71.2044 18.2082 72.5282 20.1795 75.0697 20.1795C76.9444 20.1795 77.9687 19.3485 78.5726 18.0198L81.3122 18.0005Z" fill="#240F35"/>
<path d="M86.9642 3.55392V11.5696C87.4135 10.7048 88.549 9.1538 91.4673 9.1538C94.3856 9.1538 96.2506 10.9077 96.2506 14.4686V21.9867H93.4869V14.8262C93.4869 12.8452 92.8105 11.386 90.5879 11.386C88.1334 11.386 86.9545 13.3187 86.9545 15.8795V21.9867H84.215V3.55392H86.9642Z" fill="#240F35"/>
<path d="M101.953 16.3818C101.954 16.8966 102.059 17.4059 102.262 17.879C102.465 18.3521 102.761 18.7792 103.134 19.1345C103.506 19.4898 103.947 19.766 104.429 19.9464C104.911 20.1269 105.425 20.2078 105.939 20.1843C107.78 20.1843 108.765 19.4692 109.384 18.3676H112.123C111.433 20.3003 109.64 22.3295 105.842 22.3295C101.209 22.3295 99.2181 19.0295 99.2181 15.7682C99.2181 12.0575 101.697 9.14398 105.794 9.14398C110.568 9.14398 112.307 12.5889 112.307 15.686C112.307 15.9228 112.307 16.1016 112.307 16.3818H101.953ZM109.471 14.5313C109.369 13.1736 108.65 11.2023 105.77 11.2023C103.325 11.2023 102.19 12.6856 102.001 14.5313H109.471Z" fill="#240F35"/>
<path d="M115.26 12.8836C115.26 11.7578 115.26 10.6176 115.235 9.50147H117.903C117.951 9.888 117.999 11.2215 117.999 12.241C118.782 10.3905 120.521 9.13426 123 9.16809V11.7434C120.135 11.7095 117.999 13.2895 117.999 16.9422V21.9864H115.26V12.8836Z" fill="#240F35"/>
<path d="M8.8077 7.29343C10.5849 7.29343 12.0256 5.85275 12.0256 4.07558C12.0256 2.29841 10.5849 0.857727 8.8077 0.857727C7.03053 0.857727 5.58984 2.29841 5.58984 4.07558C5.58984 5.85275 7.03053 7.29343 8.8077 7.29343Z" fill="#ACBAFF"/>
<path d="M18.9477 7.29343C20.7249 7.29343 22.1656 5.85275 22.1656 4.07558C22.1656 2.29841 20.7249 0.857727 18.9477 0.857727C17.1705 0.857727 15.7299 2.29841 15.7299 4.07558C15.7299 5.85275 17.1705 7.29343 18.9477 7.29343Z" fill="#ACBAFF"/>
<path d="M3.74361 16.0675C5.52078 16.0675 6.96146 14.6268 6.96146 12.8496C6.96146 11.0725 5.52078 9.63177 3.74361 9.63177C1.96644 9.63177 0.525757 11.0725 0.525757 12.8496C0.525757 14.6268 1.96644 16.0675 3.74361 16.0675Z" fill="#ACBAFF"/>
<path d="M24.0118 16.0675C25.789 16.0675 27.2297 14.6268 27.2297 12.8496C27.2297 11.0725 25.789 9.63177 24.0118 9.63177C22.2346 9.63177 20.7939 11.0725 20.7939 12.8496C20.7939 14.6268 22.2346 16.0675 24.0118 16.0675Z" fill="#ACBAFF"/>
<g style="mix-blend-mode:multiply">
<path fill-rule="evenodd" clip-rule="evenodd" d="M12.9243 9.88346C12.1777 10.1149 11.5131 10.6174 11.0915 11.3477L6.07873 20.0327C5.1907 21.5712 5.71807 23.5384 7.25664 24.4264C8.79523 25.3145 10.7624 24.7871 11.6504 23.2485L13.8785 19.3882L16.1066 23.2485C16.9947 24.7871 18.9618 25.3145 20.5004 24.4264C22.039 23.5384 22.5664 21.5712 21.6783 20.0327L16.6655 11.3477C16.244 10.6174 15.5793 10.1149 14.8328 9.88346C14.5193 9.78567 14.1977 9.73831 13.8785 9.7385C13.5594 9.73831 13.2377 9.78567 12.9243 9.88346Z" fill="#ACBAFF"/>
</g>
<path fill-rule="evenodd" clip-rule="evenodd" d="M14.8327 9.88349C15.0557 9.95306 15.2745 10.0482 15.4852 10.1698C17.0238 11.0578 17.5512 13.025 16.6632 14.5636L13.8785 19.3883L11.0938 14.5636C10.2057 13.025 10.7331 11.0578 12.2717 10.1698C12.4824 10.0482 12.7012 9.95306 12.9242 9.88349C13.2321 9.78804 13.554 9.73871 13.8785 9.73853C14.2029 9.73871 14.5248 9.78804 14.8327 9.88349Z" fill="#6D86E2"/>
</svg>
