<?xml version="1.0" encoding="UTF-8"?>
<svg xmlns="http://www.w3.org/2000/svg" id="Layer_2" viewBox="0 0 358.53 97.45">
  <defs>
    <style>.cls-1{fill:#066;}</style>
  </defs>
  <g id="Layer_1-2">
    <g>
      <g>
        <path class="cls-1" d="m333.31,34.16c-.35.72.17,1.61.96,1.66,1.21.07,2.41.7,3.27,2.02.12.19.38.23.54.08.82-.77,2.92-2.79,3.24-3.07,1.87-1.64,3.86-3.26,5.52-5.11.34-.38.67-.8.79-1.3.24-1.02-.55-2.13-1.51-2.45-1.58-.52-2.92.84-4.09,1.7-2.73,1.99-5.5,3.94-8.25,5.9-.21.15-.37.34-.48.57Z"></path>
        <path class="cls-1" d="m357.98,40.47c-.09-.09-.18-.17-.28-.25-1.64-1.18-3.6.49-4.79,1.57-3.09,2.81-6.45,5.27-9.73,7.87-2.15,1.71-4.31,3.42-6.46,5.13-.5.4-1.22.32-1.63-.16l-.39-.46c-.2-.23-.17-.58.05-.78,3.23-2.93,6.45-5.87,9.68-8.8,1.87-1.7,3.74-3.4,5.6-5.09,2.01-1.83,4.17-3.58,6.07-5.52.35-.36.68-.75.87-1.21.51-1.27-.33-2.82-1.61-3.3-2.34-.88-4.76,2.04-6.42,3.4-2.17,1.78-4.34,3.57-6.51,5.35-1.63,1.34-3.26,2.68-4.89,4.02-2.93,7.31-6.07,14.65-9.6,21.31,2.58,5.3,7.26,8.27,7.32,8.3-.6,1.16-3.31.28-4.36-.5-1.6-1.19-2.94-2.4-4.32-5.3-2.89,5.17-6.04,9.86-9.54,13.69-.56.61-1.11,1.18-1.67,1.71-.71.68-.43,1.87.5,2.15,3.22.98,7.44.77,12.75-2.3,7.61-4.41,15.27-12.82,22.03-20.24,2.13-2.34,4.29-4.64,6.45-6.95.27-.29.55-.59.69-.95.67-1.66-1.61-2.95-2.88-1.91-5.18,4.27-10.19,8.78-15.27,13.17-.48.42-1.21.37-1.64-.1l-.49-.54c-.16-.17-.15-.43.02-.59,2.85-2.78,5.7-5.56,8.54-8.34,3.72-3.63,7.41-7.29,11.17-10.89.4-.38.81-.78,1.06-1.28.38-.74.22-1.62-.35-2.22Z"></path>
        <path class="cls-1" d="m334.5,39.52c-.17-.64-.62-1.13-1.23-1.33-.86-.29-1.86.15-2.32,1.03l-9.04,16.96c-.3.56-.99.78-1.56.5l-.59-.29c-.24-.12-.35-.42-.23-.66,1.9-4.11,3.8-8.22,5.7-12.33,1.68-3.63,3.32-7.27,5-10.9.85-1.84,1.71-3.68,2.59-5.52.65-1.37,1.93-3.11,1.07-4.65-.41-.75-1.3-1.23-2.14-1.07-1.37.25-2.17,1.64-2.74,2.78-1.83,3.67-3.78,7.26-5.74,10.86-2.62,4.81-5.25,9.63-7.87,14.44-.07.13-.14.26-.21.39-.31.56-1.01.78-1.58.48l-.58-.3c-.24-.12-.33-.42-.22-.66,3.51-7.56,6.65-15.31,10.3-22.8.68-1.39,1.4-2.76,2.14-4.11.69-1.27,1.56-2.49,2.1-3.83.54-1.34.65-3.34-.91-4.04-.65-.29-1.41-.26-2.08,0s-1.24.7-1.72,1.23c-1.35,1.48-2.03,3.44-2.91,5.21-1.37,2.73-2.75,5.46-4.14,8.17-2.73,5.3-5.45,10.6-8.18,15.9-.16.3-.31.61-.47.91-.28.54-.93.78-1.49.55l-.9-.37c-.12-.05-.18-.17-.14-.29,1.07-3.65,2.7-7.11,4.35-10.53,1.19-2.48,2.38-4.96,3.67-7.39,1.23-2.32,2.96-4.49,3.84-6.98.22-.61.34-1.27.19-1.9-.24-1.01-1.28-1.77-2.31-1.68-.82.07-1.54.61-2.07,1.23-3.91,4.55-7.04,9.86-10.03,15.03-3.14,5.44-5.78,11.15-8.4,16.85-.74,1.6-1.47,3.2-2.22,4.8-.02.05-.05.1-.07.15-.17.36-.72.21-.68-.19l1.48-8.85c.04-.25.05-.5,0-.74-.64-3.46-3.17-8.73-6.08-10.61-.7-.45-1.41-.68-2.15-.68-.37,0-.76.06-1.15.17-.44.13-.7.62-.6,1.12,1.84,9.09,2.22,17.84,2.61,27.11.1,2.25.19,4.5.31,6.78.05.92.22,1.82.49,2.67.64,1.96.45,4.09-.35,5.99l-1.73,4.08c-.32.75-.03,1.63.67,2.04l13.91,8.24c.77.45,1.76.21,2.22-.55l3.82-6.2c.58-.94,1.46-1.66,2.51-2.04,2.38-.86,4.86-2.69,7.44-5.51,8.32-9.1,14.68-23.37,20.32-37.46.15-.38.21-.81.1-1.21Z"></path>
        <path class="cls-1" d="m300.55,20.4l-6.43-4.25c.41-.62.84-1.23,1.28-1.82l6.16,4.63c-.35.46-.69.94-1.01,1.43Zm42.98-2.23c-.42-.41-.85-.82-1.29-1.2l6.62-7.66c.55.48,1.09.99,1.62,1.5l-6.95,7.36Zm-34.21-6.28l-4.04-6.56c.63-.39,1.28-.76,1.93-1.11l3.63,6.8c-.51.27-1.02.57-1.52.87Zm24.29.93c-.55-.21-1.11-.41-1.66-.58l3.45-10.55c.7.22,1.4.47,2.09.73l-3.87,10.4Zm-12.75-4.97l-.92-7.65c.73-.09,1.48-.15,2.22-.2l.44,7.69c-.58.03-1.17.09-1.74.15Z"></path>
        <g>
          <path class="cls-1" d="m7.2,60.1s-2.93-1.93-2.93-7.7c0-9.04,7.37-15.33,16.92-15.33h17.59c1.09,0,1.84.75,1.84,1.84v3.1c0,.75-.42,1.51-1.09,1.68l-5.61,1.76s4.1,2.26,4.1,8.37c0,7.7-6.36,13.48-16.58,13.48-3.68,0-6.11-.84-7.7-.84-1.34,0-3.85.84-3.85,3.27,0,2.01,1.76,2.68,3.85,2.68h12.65c9.71,0,15.58,3.27,15.58,11.81s-6.78,13.23-20.77,13.23-19.76-3.77-19.76-10.05c0-5.78,4.69-7.45,5.78-7.87v-.25c-1.59-.42-7.2-2.18-7.2-9.21,0-7.54,7.2-9.97,7.2-9.97Zm13.9,28.89c5.53,0,10.3-.92,10.3-4.19,0-1.51-.84-3.1-4.69-3.1h-10.05c-3.85,0-4.69,1.59-4.77,3.02-.17,3.27,3.77,4.27,9.21,4.27Zm.34-29.81c4.1,0,7.03-2.09,7.03-6.28s-2.93-6.28-7.03-6.28-7.12,2.09-7.12,6.28,3.1,6.28,7.12,6.28Z"></path>
          <path class="cls-1" d="m61.3,37.07c10.97,0,19.85,9.21,19.85,20.1s-8.88,20.35-19.85,20.35-19.76-9.3-19.76-20.35,8.88-20.1,19.76-20.1Zm0,30.9c5.61,0,10.13-4.86,10.13-10.8s-4.52-10.55-10.13-10.55-10.05,4.69-10.05,10.55,4.44,10.8,10.05,10.8Z"></path>
          <path class="cls-1" d="m103.52,37.07c10.97,0,19.85,9.21,19.85,20.1s-8.88,20.35-19.85,20.35-19.76-9.3-19.76-20.35,8.88-20.1,19.76-20.1Zm0,30.9c5.61,0,10.13-4.86,10.13-10.8s-4.52-10.55-10.13-10.55-10.05,4.69-10.05,10.55,4.44,10.8,10.05,10.8Z"></path>
          <path class="cls-1" d="m145.31,37.07c3.85,0,7.54.92,9.3,1.59v-18.84c0-.92.92-1.84,1.84-1.84h6.78c1,0,1.84.92,1.84,1.84v54.94c0,1.01-.84,1.84-1.84,1.84h-3.1c-.92,0-1.51-.75-1.84-1.84l-1.01-3.02s-4.44,5.78-12.65,5.78c-10.55,0-18.51-8.54-18.51-20.27s7.62-20.18,19.18-20.18Zm9.3,11.72s-3.18-2.18-8.04-2.18c-6.36,0-9.63,5.19-9.63,10.64s3.1,10.72,9.13,10.72c5.02,0,7.7-3.18,8.54-5.36v-13.82Z"></path>
          <path class="cls-1" d="m152.55,89.23l4.35-4.44c.92-.84,1.76-.67,2.51.08,1.09,1.17,2.76,2.68,5.53,2.68,3.43,0,6.7-1.84,6.7-7.62v-40.37c0-.84.67-1.59,1.59-1.59h7.87c.92,0,1.59.75,1.59,1.59v40.37c0,11.64-7.79,17.5-17.59,17.5-7.29,0-11.31-4.35-12.73-6.11-.42-.67-.34-1.51.17-2.09Z"></path>
          <path class="cls-1" d="m206.55,37.07c10.97,0,19.85,9.21,19.85,20.1s-8.88,20.35-19.85,20.35-19.76-9.3-19.76-20.35,8.88-20.1,19.76-20.1Zm0,30.9c5.61,0,10.13-4.86,10.13-10.8s-4.52-10.55-10.13-10.55-10.05,4.69-10.05,10.55,4.44,10.8,10.05,10.8Z"></path>
          <path class="cls-1" d="m230.5,19.82c0-.92.92-1.84,1.84-1.84h6.78c1.01,0,1.84.92,1.84,1.84v18.93c1.76-.75,5.61-1.68,9.46-1.68,11.47,0,18.76,8.88,18.76,20.18s-7.62,20.27-18.17,20.27c-8.46,0-12.9-5.78-12.9-5.78l-.92,3.02c-.42,1.09-1.01,1.84-1.93,1.84h-2.93c-.92,0-1.84-.84-1.84-1.84V19.82Zm19.01,48.15c6.03,0,9.13-5.28,9.13-10.72s-3.27-10.64-9.63-10.64c-4.86,0-8.04,2.18-8.04,2.18v13.82c.84,2.18,3.52,5.36,8.54,5.36Z"></path>
          <path class="cls-1" d="m170.66,24.68c0-3.68,2.85-6.62,6.62-6.62s6.7,2.93,6.7,6.62-2.93,6.7-6.7,6.7-6.62-3.01-6.62-6.7Z"></path>
        </g>
      </g>
      <path class="cls-1" d="m352.44,79.07c0,2.88-2.26,5.15-5.21,5.15s-5.24-2.26-5.24-5.15,2.33-5.08,5.24-5.08,5.21,2.26,5.21,5.08Zm-9.15,0c0,2.26,1.67,4.06,3.97,4.06s3.88-1.8,3.88-4.03-1.64-4.09-3.91-4.09-3.94,1.83-3.94,4.06Zm3.13,2.67h-1.18v-5.08c.46-.09,1.12-.16,1.95-.16.96,0,1.39.16,1.77.37.28.22.5.62.5,1.12,0,.56-.43.99-1.05,1.18v.06c.5.19.78.56.93,1.24.16.78.25,1.08.37,1.27h-1.27c-.16-.19-.25-.65-.4-1.24-.09-.56-.4-.81-1.05-.81h-.56v2.05Zm.03-2.88h.56c.65,0,1.18-.22,1.18-.74,0-.46-.34-.78-1.09-.78-.31,0-.53.03-.65.06v1.46Z"></path>
    </g>
  </g>
</svg>
