<svg version="1.1" id="Layer_1" xmlns="http://www.w3.org/2000/svg" x="0" y="0" viewBox="0 0 300 60" xml:space="preserve"><style>.st0{fill:#231f20}</style><path class="st0" d="M42.5 49.56h-7.55V33.59H18.17v15.97h-7.49v-38.5h7.49v15.48h16.78V11.05h7.55v38.51zm4.66-35.47c0-1.23.43-2.29 1.3-3.18.87-.89 1.92-1.33 3.15-1.33s2.28.43 3.15 1.3c.87.87 1.3 1.94 1.3 3.2 0 1.19-.43 2.23-1.3 3.1-.87.87-1.92 1.3-3.15 1.3s-2.28-.43-3.15-1.3c-.86-.86-1.3-1.89-1.3-3.09zm8.1 35.47h-7.22V22.84h7.22v26.72zm21.77-26.83v7.28c-.72-.14-1.45-.22-2.17-.22-2.06 0-3.73.59-5 1.77-1.27 1.18-1.9 3.1-1.9 5.78v12.22h-7.22V22.84h7.01v3.96c1.3-2.79 3.84-4.18 7.6-4.18.4 0 .96.04 1.68.11zm101.1 26.87v-2.88c-.69 1.19-1.71 2.09-3.07 2.69-1.36.6-2.8.9-4.32.9-3.15 0-5.63-1.01-7.44-3.01-1.81-2.01-2.72-4.52-2.72-7.52v-16.9h7.22V38.3c0 1.59.42 2.89 1.25 3.88.83 1 2.05 1.49 3.64 1.49 1.56 0 2.79-.48 3.69-1.44.9-.96 1.36-2.24 1.36-3.83V22.88h7.22V49.6h-6.83zM137.3 19.57l-3.11-8.84h-8.27l2.81 7.59zm17.16-8.84l-10.13 28.86-4.7-13.37-5.89 5.67 6.53 17.67h7.78l14.4-38.83z"/><path id="Star_00000154401939088250654020000011028444522563152564_" fill-rule="evenodd" clip-rule="evenodd" fill="#db203c" d="M119.09 38.25l-10.87 5.62 2.08-11.91-8.8-8.44 12.15-1.74 5.44-10.84 5.44 10.84 12.15 1.74-8.8 8.44 2.08 11.91z"/><path class="st0" d="M207.77 41.24c-1.1 1.98-2.95 2.98-5.58 2.98-1.81 0-3.37-.58-4.67-1.74-1.3-1.16-1.99-2.61-2.06-4.35h19.12l.05-.38c0-.22.01-.51.03-.87.02-.36.03-.69.03-.98 0-4.31-1.17-7.69-3.5-10.16-2.34-2.46-5.57-3.69-9.69-3.69-3.55 0-6.63 1.31-9.23 3.94-2.61 2.63-3.91 6-3.91 10.13 0 4.34 1.34 7.81 4.02 10.4 2.68 2.59 5.94 3.88 9.78 3.88 3.15 0 5.78-.8 7.9-2.39 1.79-1.35 3.07-3 3.87-4.97l-6.16-1.8zm-10.42-11.68c1.09-1.09 2.5-1.63 4.24-1.63 1.92 0 3.38.51 4.37 1.52 1 1.01 1.53 2.26 1.6 3.75h-11.95c.08-1.34.66-2.55 1.74-3.64zM97.06 41.24l-.02-.01c-1.1 1.96-2.95 2.95-5.56 2.95-1.81 0-3.37-.58-4.67-1.74-1.3-1.16-1.99-2.61-2.06-4.35h19.12l.05-.38c0-.22.01-.51.03-.87.02-.36.03-.69.03-.98 0-1.88-.24-3.58-.69-5.11l-8.64-8.3a16.85 16.85 0 00-3.87-.44c-3.55 0-6.63 1.31-9.23 3.94-2.61 2.63-3.91 6-3.91 10.13 0 4.34 1.34 7.81 4.02 10.4 2.68 2.59 5.94 3.88 9.78 3.88 3.15 0 5.78-.8 7.9-2.39 1.78-1.34 3.06-2.98 3.85-4.93l-6.13-1.8zM86.65 29.52c1.09-1.09 2.5-1.63 4.24-1.63 1.92 0 3.38.51 4.37 1.52 1 1.01 1.53 2.26 1.6 3.75H84.91c.07-1.34.65-2.56 1.74-3.64z"/><path fill="#005bbb" d="M228.45 11.05h60.88V30.3h-60.88z"/><path fill="#ffd500" d="M228.45 30.31h60.88v19.25h-60.88z"/></svg>