<svg width="745" height="202" viewBox="0 0 745 202" fill="none" xmlns="http://www.w3.org/2000/svg">
<path fill-rule="evenodd" clip-rule="evenodd" d="M201.6 0H72.9C32.6384 0 0 32.6384 0 72.9V201.6H128.7C168.962 201.6 201.6 168.962 201.6 128.7V0ZM79.445 50.4H85.493V85.7962H116.108V112.004H85.493V122.976C85.493 138.564 72.8567 151.2 57.269 151.2H51.221V78.624C51.221 63.0363 63.8573 50.4 79.445 50.4ZM116.108 112.004L116.107 151.2H122.155C137.743 151.2 150.379 138.564 150.379 122.976V50.4H144.331C128.743 50.4 116.107 63.0363 116.107 78.624L116.108 85.7962V112.004Z" fill="#000033"/>
<path d="M295.291 139.8V67.224H307.438V97.7664H341.81V67.224H353.906V139.8H341.81V109.157H307.438V139.8H295.291ZM392.481 141.362C388.449 141.362 385.122 140.69 382.501 139.346C379.881 138.002 377.797 136.289 376.252 134.206C374.706 132.122 373.564 129.905 372.825 127.553C372.085 125.201 371.598 122.983 371.363 120.9C371.161 118.783 371.061 117.07 371.061 115.759V85.368H383.358V111.576C383.358 113.256 383.476 115.154 383.711 117.271C383.946 119.354 384.484 121.37 385.324 123.319C386.197 125.234 387.474 126.814 389.154 128.057C390.868 129.3 393.169 129.922 396.059 129.922C397.605 129.922 399.133 129.67 400.645 129.166C402.157 128.662 403.518 127.805 404.728 126.595C405.971 125.352 406.962 123.655 407.701 121.505C408.441 119.354 408.81 116.633 408.81 113.34L416.017 116.414C416.017 121.051 415.11 125.251 413.296 129.014C411.515 132.778 408.877 135.785 405.383 138.036C401.889 140.254 397.588 141.362 392.481 141.362ZM410.272 139.8V122.916H408.81V85.368H421.007V139.8H410.272ZM504.568 139.8V106.738C504.568 103.008 503.644 100.102 501.796 98.0184C499.948 95.9016 497.445 94.8432 494.286 94.8432C492.337 94.8432 490.59 95.2968 489.045 96.204C487.499 97.0776 486.273 98.388 485.365 100.135C484.458 101.849 484.005 103.898 484.005 106.284L478.612 103.109C478.578 99.3456 479.418 96.036 481.132 93.18C482.879 90.2904 485.231 88.0392 488.188 86.4264C491.145 84.8136 494.437 84.0072 498.066 84.0072C504.081 84.0072 508.684 85.8216 511.876 89.4504C515.101 93.0456 516.714 97.7832 516.714 103.663V139.8H504.568ZM439.098 139.8V85.368H449.833V102.252H451.345V139.8H439.098ZM471.909 139.8V106.889C471.909 103.092 470.985 100.135 469.137 98.0184C467.289 95.9016 464.769 94.8432 461.577 94.8432C458.485 94.8432 455.999 95.9016 454.117 98.0184C452.269 100.135 451.345 102.89 451.345 106.284L445.902 102.655C445.902 99.1272 446.776 95.952 448.523 93.1296C450.27 90.3072 452.622 88.0896 455.579 86.4768C458.569 84.8304 461.913 84.0072 465.609 84.0072C469.674 84.0072 473.068 84.8808 475.789 86.628C478.545 88.3416 480.594 90.6936 481.938 93.684C483.316 96.6408 484.005 99.984 484.005 103.714V139.8H471.909ZM549.113 141.312C545.182 141.312 541.855 140.573 539.134 139.094C536.412 137.582 534.346 135.583 532.934 133.097C531.557 130.61 530.868 127.872 530.868 124.882C530.868 122.261 531.305 119.909 532.178 117.826C533.052 115.709 534.396 113.894 536.21 112.382C538.025 110.837 540.377 109.577 543.266 108.602C545.45 107.897 548.004 107.258 550.927 106.687C553.884 106.116 557.076 105.595 560.503 105.125C563.964 104.621 567.576 104.083 571.339 103.512L567.005 105.982C567.038 102.218 566.198 99.4464 564.485 97.6656C562.771 95.8848 559.882 94.9944 555.816 94.9944C553.363 94.9944 550.994 95.5656 548.71 96.708C546.425 97.8504 544.829 99.816 543.922 102.605L532.834 99.1272C534.178 94.524 536.731 90.828 540.494 88.0392C544.291 85.2504 549.398 83.856 555.816 83.856C560.654 83.856 564.905 84.6456 568.567 86.2248C572.263 87.804 575.002 90.3912 576.782 93.9864C577.757 95.9016 578.345 97.8672 578.546 99.8832C578.748 101.866 578.849 104.033 578.849 106.385V139.8H568.214V128.006L569.978 129.922C567.526 133.853 564.653 136.742 561.36 138.59C558.101 140.405 554.018 141.312 549.113 141.312ZM551.532 131.635C554.287 131.635 556.639 131.148 558.588 130.174C560.537 129.199 562.082 128.006 563.225 126.595C564.401 125.184 565.19 123.857 565.594 122.614C566.232 121.068 566.585 119.304 566.652 117.322C566.753 115.306 566.803 113.676 566.803 112.433L570.533 113.542C566.87 114.113 563.729 114.617 561.108 115.054C558.487 115.49 556.236 115.91 554.354 116.314C552.473 116.683 550.81 117.103 549.365 117.574C547.954 118.078 546.761 118.666 545.786 119.338C544.812 120.01 544.056 120.782 543.518 121.656C543.014 122.53 542.762 123.554 542.762 124.73C542.762 126.074 543.098 127.267 543.77 128.309C544.442 129.317 545.417 130.123 546.694 130.728C548.004 131.333 549.617 131.635 551.532 131.635ZM633.651 139.8V113.592C633.651 111.878 633.533 109.98 633.298 107.897C633.063 105.814 632.508 103.814 631.635 101.899C630.795 99.9504 629.518 98.3544 627.804 97.1112C626.124 95.868 623.84 95.2464 620.95 95.2464C619.404 95.2464 617.876 95.4984 616.364 96.0024C614.852 96.5064 613.474 97.38 612.231 98.6232C611.021 99.8328 610.047 101.513 609.308 103.663C608.568 105.78 608.199 108.502 608.199 111.828L600.992 108.754C600.992 104.117 601.882 99.9168 603.663 96.1536C605.477 92.3904 608.132 89.4 611.626 87.1824C615.12 84.9312 619.421 83.8056 624.528 83.8056C628.56 83.8056 631.887 84.4776 634.508 85.8216C637.128 87.1656 639.212 88.8792 640.757 90.9624C642.303 93.0456 643.445 95.2632 644.184 97.6152C644.924 99.9672 645.394 102.202 645.596 104.318C645.831 106.402 645.948 108.098 645.948 109.409V139.8H633.651ZM595.901 139.8V85.368H606.737V102.252H608.199V139.8H595.901ZM664.14 139.8V65.712H676.287V139.8H664.14ZM702.573 163.992L713.056 135.214L713.258 143.681L689.519 85.368H702.17L719.003 128.51H715.778L732.158 85.368H744.304L713.963 163.992H702.573Z" fill="#000033"/>
</svg>
