<svg width="187" height="36" viewBox="0 0 187 36" fill="none" xmlns="http://www.w3.org/2000/svg">
<g clip-path="url(#clip0_2411_3351)">
<path d="M0 0H35.0584V35.0617H0V0Z" fill="#3741B9"/>
<path d="M22.1393 8.68074L21.4588 8.00018L19.7752 6.31641L10.0055 16.0886C8.58809 17.5061 6.95145 17.5656 5.69226 16.3055L3.48633 18.5508C6.1488 21.2135 9.94673 20.8752 12.4283 18.3942L19.9138 10.908L23.7642 14.7588L12.0242 26.4982L14.3876 28.8618L26.1251 17.1216L29.3107 20.3074L31.5699 18.1146L22.1393 8.68074Z" fill="white"/>
<path d="M44.4277 26.97H46.683C47.1042 27.0127 47.5297 26.972 47.9352 26.8503C48.3407 26.7286 48.7183 26.5281 49.0463 26.2605C49.5764 25.5715 49.8239 24.7064 49.7386 23.8413V4.82324H53.0486V24.2783C53.0486 26.1688 52.5762 27.5811 51.6313 28.5152C50.6864 29.4492 49.2562 29.916 47.3408 29.9154H44.4309V26.97H44.4277Z" fill="#3741B9"/>
<path d="M59.1733 28.004C57.6593 26.5134 56.9023 24.3493 56.9023 21.5117V19.6564C56.9023 16.8193 57.6593 14.656 59.1733 13.1664C60.6872 11.6769 62.778 10.9316 65.4457 10.9305C66.5808 10.866 67.7172 11.0326 68.7859 11.4203C69.8547 11.808 70.8336 12.4087 71.6634 13.186C73.1659 14.6881 73.9176 16.8457 73.9187 19.6588V21.5109C73.9187 24.348 73.1669 26.5121 71.6634 28.0033C70.8305 28.7749 69.8507 29.3706 68.7824 29.7547C67.714 30.1389 66.5792 30.3037 65.4457 30.2391C62.7786 30.2407 60.6878 29.4957 59.1733 28.004ZM70.8279 21.4404V19.7308C70.8279 15.707 69.0221 13.6948 65.4105 13.6943C61.799 13.6938 59.9932 15.7059 59.9932 19.7308V21.4404C59.9932 25.4899 61.799 27.514 65.4105 27.513C69.0221 27.512 70.8279 25.488 70.8279 21.4412V21.4404Z" fill="#3741B9"/>
<path d="M82.8265 29.5505C81.8466 29.1021 81.005 28.3989 80.3896 27.5143V29.9139H77.334V4.82324H80.4248V13.806C81.0382 12.9013 81.8786 12.1738 82.8617 11.6962C83.9373 11.1744 85.1206 10.9131 86.3159 10.9334C87.3643 10.8871 88.4106 11.0642 89.3853 11.453C90.3601 11.8419 91.241 12.4336 91.9697 13.1889C93.3871 14.691 94.0961 16.8243 94.0966 19.5888V21.5522C94.0966 24.3402 93.3876 26.4858 91.9697 27.9889C91.2407 28.7437 90.3597 29.335 89.385 29.7239C88.4103 30.1127 87.3642 30.2901 86.3159 30.2444C85.1162 30.2689 83.9256 30.0321 82.8265 29.5505ZM89.6612 25.9879C90.5581 24.9704 91.0063 23.4429 91.0058 21.4057V19.7337C91.0058 17.6975 90.5576 16.1821 89.6612 15.1875C89.1648 14.6752 88.563 14.2768 87.8976 14.0199C87.2321 13.763 86.5188 13.6536 85.8069 13.6995C85.0771 13.6605 84.3473 13.7783 83.6668 14.0449C82.9863 14.3116 82.3708 14.7209 81.8618 15.2454C80.8608 16.3944 80.3455 17.8876 80.4248 19.4094V21.8466C80.3495 23.3598 80.8721 24.8418 81.8798 25.973C82.3992 26.4991 83.0243 26.9089 83.7138 27.1753C84.4034 27.4418 85.1416 27.559 85.8797 27.519C86.5839 27.5585 87.2881 27.4417 87.9419 27.177C88.5957 26.9123 89.1828 26.5062 89.6612 25.9879Z" fill="#3741B9"/>
<path d="M114.821 7.76868H106.713V29.9154H103.44V7.76868H95.332V4.82324H114.821V7.76868Z" fill="#3741B9"/>
<path d="M112.787 11.2959H116.097L120.821 25.9878L125.949 11.2959H128.455L133.618 25.9878L138.345 11.2959H141.655L135.219 29.9153H132.165L127.183 15.734L122.201 29.9153H119.179L112.787 11.2959Z" fill="#3741B9"/>
<path d="M143.875 4.8584H146.966V8.20402H143.875V4.8584ZM143.875 11.2959H146.966V29.9153H143.875V11.2959Z" fill="#3741B9"/>
<path d="M151.219 11.2957H154.273V13.8018C154.915 12.9148 155.779 12.2125 156.779 11.7656C157.855 11.2929 159.021 11.0568 160.197 11.0733C161.136 11.0156 162.077 11.1539 162.959 11.4794C163.842 11.8048 164.647 12.3104 165.324 12.9638C166.6 14.3992 167.254 16.2827 167.142 18.2V29.9089H164.051V18.6002C164.099 17.9575 164.019 17.3116 163.816 16.6999C163.614 16.0881 163.292 15.5224 162.87 15.0353C162.409 14.6126 161.866 14.2881 161.276 14.0817C160.685 13.8754 160.058 13.7913 159.434 13.8347C158.745 13.7847 158.053 13.8842 157.406 14.1265C156.759 14.3688 156.171 14.7481 155.684 15.2385C155.197 15.7289 154.822 16.3187 154.584 16.9676C154.347 17.6165 154.252 18.3091 154.306 18.998V29.9066H151.219V11.2957Z" fill="#3741B9"/>
<path d="M173.655 21.3688V21.5145C173.655 25.5383 175.534 27.5505 179.293 27.551C180.486 27.6253 181.666 27.2709 182.62 26.5517C182.997 26.2464 183.302 25.8615 183.513 25.4245C183.723 24.9876 183.835 24.5095 183.839 24.0245V23.9164H186.893V24.0621C186.883 25.1814 186.548 26.2737 185.929 27.2064C185.267 28.1776 184.348 28.9455 183.275 29.4243C182.001 29.9956 180.616 30.2752 179.22 30.2427C176.506 30.2427 174.384 29.4857 172.857 27.9716C171.329 26.4575 170.566 24.2453 170.566 21.3351V19.8472C170.566 16.9866 171.294 14.7864 172.749 13.2467C173.541 12.456 174.492 11.8415 175.538 11.4437C176.585 11.0458 177.703 10.8735 178.821 10.938C179.912 10.8763 181.004 11.0325 182.034 11.3977C183.065 11.7629 184.011 12.3298 184.82 13.0651C186.273 14.4826 187 16.525 187.002 19.1924V21.3751H173.655V21.3688ZM175.128 14.9869C174.151 16.1089 173.626 17.5544 173.656 19.0421H183.909V18.7147C183.963 18.0241 183.873 17.3298 183.644 16.6758C183.416 16.0218 183.054 15.4224 182.582 14.9156C181.539 14.0237 180.188 13.5741 178.819 13.6626C178.146 13.6216 177.472 13.7179 176.837 13.9456C176.203 14.1732 175.621 14.5275 175.128 14.9869Z" fill="#3741B9"/>
</g>
<defs>
<clipPath id="clip0_2411_3351">
<rect width="187" height="35.0625" fill="white"/>
</clipPath>
</defs>
</svg>
