<svg xmlns="http://www.w3.org/2000/svg" width="152.454" height="33.762" viewBox="0 0 152.454 33.762">
  <path d="M432.277,507.091l-2.868,3.007v6.91h-5.232V483.691h5.232v19.546l9.427-9.674H445.4l-9.623,9.921,10.562,13.525h-6.121Z" transform="translate(-424.177 -483.691)" fill="#05205d"/>
  <path d="M470.656,502.3V517.01h-5.232V504.076c0-3.9-2.073-6.121-5.38-6.121-3.109,0-5.873,2.024-5.873,6.318v12.735h-5.233V493.562h5.133v3.455c1.53-2.765,4.294-3.9,7.354-3.9C466.756,493.118,470.656,496.474,470.656,502.3Z" transform="translate(-424.177 -483.691)" fill="#05205d"/>
  <path d="M502.116,505.31A11.946,11.946,0,0,1,526,504.791c0,.106,0,.213,0,.319a9.511,9.511,0,0,1-.148,1.676H507.1a7.107,7.107,0,0,0,7.4,6.022,7.917,7.917,0,0,0,6.417-2.913l3.506,2.764a11.962,11.962,0,0,1-9.872,4.788,12.106,12.106,0,0,1-12.43-11.774C502.117,505.552,502.116,505.431,502.116,505.31Zm18.707-2.369c-.444-3.011-3.258-5.183-6.664-5.183a6.994,6.994,0,0,0-6.86,5.183Z" transform="translate(-424.177 -483.691)" fill="#05205d"/>
  <path d="M531.916,498.647h-4.345v-5.084h4.345v-5.972h5.232v5.972h4.663v5.084h-4.663v18.362h-5.232Z" transform="translate(-424.177 -483.691)" fill="#05205d"/>
  <path d="M553.723,505.267a12.224,12.224,0,0,1,12.244-12.2h.1a12.529,12.529,0,0,1,10.464,5.529l-4.344,2.515a7.246,7.246,0,0,0-6.12-3.159,7.33,7.33,0,0,0,0,14.66,7.247,7.247,0,0,0,6.268-3.406l4.3,2.571a12.468,12.468,0,0,1-10.562,5.676A12.249,12.249,0,0,1,553.724,505.3Z" transform="translate(-424.177 -483.691)" fill="#05205d"/>
  <path d="M544.78,493.563h5.232v23.446H544.78Z" transform="translate(-424.177 -483.691)" fill="#05205d"/>
  <ellipse cx="123.296" cy="3.596" rx="3.183" ry="3.118" fill="#05205d"/>
  <path d="M484.971,493.336v5.031a7.2,7.2,0,0,0-3.726,2.24l-4.34-2.509A12.126,12.126,0,0,1,484.971,493.336Z" transform="translate(-424.177 -483.691)" fill="#05205d"/>
  <path d="M484.971,512.428v5.022a12.173,12.173,0,0,1-10.5-12.056,12,12,0,0,1,.8-4.345l4.374,2.531a7.254,7.254,0,0,0,5.231,8.825l.087.022Z" transform="translate(-424.177 -483.691)" fill="#05205d"/>
  <path d="M498.838,505.393a12.172,12.172,0,0,1-10.5,12.059v-5.025a7.233,7.233,0,0,0,0-14.066V493.33A12.172,12.172,0,0,1,498.838,505.393Z" transform="translate(-424.177 -483.691)" fill="#05205d"/>
</svg>
