<?xml version="1.0" encoding="UTF-8"?> <svg xmlns="http://www.w3.org/2000/svg" width="264.232" height="74.98" viewBox="0 0 264.232 74.98"><g id="Group_11" data-name="Group 11" transform="translate(-93.46 -277.203)"><g id="Group_7" data-name="Group 7" transform="translate(93.46 277.203)"><path id="Path_1" data-name="Path 1" d="M120.406,330.678l-6.465-7.1h-8.064a2.778,2.778,0,0,1-2.775-2.775V302.558a2.778,2.778,0,0,1,2.775-2.775h29.4a2.779,2.779,0,0,1,2.775,2.775v18.248a2.778,2.778,0,0,1-2.775,2.775h-13.25Zm-14.529-28.517a.4.4,0,0,0-.4.4v18.248a.4.4,0,0,0,.4.4h9.115l4.106,4.507,1.027-4.507h15.147a.4.4,0,0,0,.4-.4V302.558a.4.4,0,0,0-.4-.4Z" transform="translate(-98.136 -288.154)" fill="#2d7c8e"></path><rect id="Rectangle_1" data-name="Rectangle 1" width="1.189" height="10.757" transform="translate(21.682 1.4)" fill="#2d7c8e"></rect><circle id="Ellipse_1" data-name="Ellipse 1" cx="1.652" cy="1.652" r="1.652" transform="translate(20.559)" fill="#2d7c8e"></circle><g id="Group_1" data-name="Group 1" transform="translate(1.673 17.994)"><rect id="Rectangle_2" data-name="Rectangle 2" width="1.453" height="6.953" rx="0.727" transform="translate(0.33 0.33)" fill="#2d7c8e"></rect><path id="Path_2" data-name="Path 2" d="M98.029,319.757H97.5a.794.794,0,0,1-.793-.793v-6.028a.794.794,0,0,1,.793-.793h.528a.794.794,0,0,1,.793.793v6.028A.794.794,0,0,1,98.029,319.757ZM97.5,312.8a.134.134,0,0,0-.132.132v6.028a.134.134,0,0,0,.132.132h.528a.134.134,0,0,0,.132-.132v-6.028a.133.133,0,0,0-.132-.132Z" transform="translate(-96.708 -312.143)" fill="#2d7c8e"></path></g><g id="Group_2" data-name="Group 2" transform="translate(0 42.903)"><rect id="Rectangle_3" data-name="Rectangle 3" width="1.728" height="12.873" rx="0.864" transform="translate(0.33 0.33)" fill="#2d7c8e"></rect><path id="Path_3" data-name="Path 3" d="M95.055,374.045h-.8a.794.794,0,0,1-.793-.793V361.3a.794.794,0,0,1,.793-.793h.8a.794.794,0,0,1,.793.793v11.948A.794.794,0,0,1,95.055,374.045Zm-.8-12.873a.134.134,0,0,0-.132.132v11.948a.134.134,0,0,0,.132.132h.8a.134.134,0,0,0,.132-.132V361.3a.134.134,0,0,0-.132-.132Z" transform="translate(-93.46 -360.511)" fill="#2d7c8e"></path></g><g id="Group_3" data-name="Group 3" transform="translate(44.4 42.903)"><rect id="Rectangle_4" data-name="Rectangle 4" width="1.728" height="12.873" rx="0.864" transform="translate(0.33 0.33)" fill="#2d7c8e"></rect><path id="Path_4" data-name="Path 4" d="M181.272,374.045h-.8a.794.794,0,0,1-.793-.793V361.3a.794.794,0,0,1,.793-.793h.8a.794.794,0,0,1,.793.793v11.948A.794.794,0,0,1,181.272,374.045Zm-.8-12.873a.134.134,0,0,0-.132.132v11.948a.134.134,0,0,0,.132.132h.8a.134.134,0,0,0,.132-.132V361.3a.134.134,0,0,0-.132-.132Z" transform="translate(-179.676 -360.511)" fill="#2d7c8e"></path></g><g id="Group_4" data-name="Group 4" transform="translate(41.118 17.994)"><rect id="Rectangle_5" data-name="Rectangle 5" width="1.453" height="6.953" rx="0.727" transform="translate(0.33 0.33)" fill="#2d7c8e"></rect><path id="Path_5" data-name="Path 5" d="M174.624,319.757H174.1a.794.794,0,0,1-.793-.793v-6.028a.794.794,0,0,1,.793-.793h.528a.794.794,0,0,1,.793.793v6.028A.794.794,0,0,1,174.624,319.757ZM174.1,312.8a.134.134,0,0,0-.132.132v6.028a.134.134,0,0,0,.132.132h.528a.134.134,0,0,0,.132-.132v-6.028a.134.134,0,0,0-.132-.132Z" transform="translate(-173.303 -312.143)" fill="#2d7c8e"></path></g><path id="Path_6" data-name="Path 6" d="M131.655,332.687h-.071a7.769,7.769,0,0,1-5.449-2.3.793.793,0,0,1,1.121-1.122A6.19,6.19,0,0,0,131.6,331.1a5.942,5.942,0,0,0,4.291-1.745.793.793,0,0,1,1.121,1.122A7.516,7.516,0,0,1,131.655,332.687Z" transform="translate(-109.195 -302.342)" fill="#2d7c8e"></path><path id="Path_7" data-name="Path 7" d="M120.947,317.167a3.3,3.3,0,1,1,3.3-3.3A3.307,3.307,0,0,1,120.947,317.167Zm0-5.55a2.246,2.246,0,1,0,2.246,2.246A2.249,2.249,0,0,0,120.947,311.617Z" transform="translate(-105.189 -293.381)" fill="#2d7c8e"></path><path id="Path_8" data-name="Path 8" d="M146.435,317.167a3.3,3.3,0,1,1,3.3-3.3A3.307,3.307,0,0,1,146.435,317.167Zm0-5.55a2.246,2.246,0,1,0,2.246,2.246A2.249,2.249,0,0,0,146.435,311.617Z" transform="translate(-117.551 -293.381)" fill="#2d7c8e"></path><g id="Group_6" data-name="Group 6" transform="translate(3.841 41.053)"><g id="Group_5" data-name="Group 5"><path id="Path_9" data-name="Path 9" d="M124.11,384.8c-1.281,1.091-2.6,2.215-3.99,3.424-1.39-1.209-2.709-2.332-3.99-3.424-7.8-6.651-12.961-11.045-12.961-16.821a9.4,9.4,0,0,1,2.24-6.244,7.426,7.426,0,0,1,11.919.924,13.341,13.341,0,0,1,1.723,3.425,1.125,1.125,0,0,0,2.139,0,13.351,13.351,0,0,1,1.722-3.425,7.587,7.587,0,0,1,6.209-3.495,7.511,7.511,0,0,1,5.711,2.57,9.4,9.4,0,0,1,2.24,6.244c0,5.776-5.156,10.17-12.961,16.821Zm5.011-27.885a9.749,9.749,0,0,0-8.045,4.444,14.722,14.722,0,0,0-.956,1.55,14.809,14.809,0,0,0-.956-1.55,9.673,9.673,0,0,0-15.444-1.111,11.64,11.64,0,0,0-2.8,7.731c0,3.2,1.248,6.168,3.926,9.353a87.412,87.412,0,0,0,9.826,9.18c1.486,1.266,3.023,2.576,4.659,4.008l.049.043a1.125,1.125,0,0,0,1.482,0l.049-.043c1.636-1.432,3.173-2.741,4.659-4.008a87.413,87.413,0,0,0,9.826-9.18c2.678-3.186,3.926-6.158,3.926-9.353a11.64,11.64,0,0,0-2.8-7.731,9.731,9.731,0,0,0-7.4-3.333Z" transform="translate(-100.919 -356.919)" fill="#2d7c8e"></path></g></g><path id="Path_10" data-name="Path 10" d="M113.744,316.428c-.09,0-.181,0-.272-.011a.463.463,0,1,1,.079-.922,2.1,2.1,0,0,0,1.5-.443,1.841,1.841,0,0,0,.7-1.291.463.463,0,0,1,.922.079,2.76,2.76,0,0,1-1.049,1.935A3.012,3.012,0,0,1,113.744,316.428Z" transform="translate(-102.961 -294.729)" fill="#2d7c8e"></path><path id="Path_11" data-name="Path 11" d="M156.354,316.41a2.957,2.957,0,0,1-2.81-2.231.462.462,0,1,1,.894-.239,1.988,1.988,0,0,0,2.38,1.484.462.462,0,1,1,.239.893A2.705,2.705,0,0,1,156.354,316.41Z" transform="translate(-122.594 -294.854)" fill="#2d7c8e"></path></g><g id="Group_10" data-name="Group 10" transform="translate(157.519 288.881)"><g id="Group_8" data-name="Group 8" transform="translate(0 0)"><path id="Path_12" data-name="Path 12" d="M251.239,303.941l-.139-.046-12.484,29.584H236.7L224.24,304.033l-.139.023.254,14.584v12.507l3.761.3v2.031H217.848v-2.031l3.761-.3V302.233l-3.761-.3v-2.054h7.384l12.345,29.584h.139l12.392-29.584h7.407v2.054l-3.761.3v28.914l3.761.3v2.031H247.247v-2.031l3.762-.3V318.64Z" transform="translate(-217.848 -299.879)" fill="#2d7c8e"></path><path id="Path_13" data-name="Path 13" d="M315.262,341.656a10.026,10.026,0,0,1-7.8-3.45,12.659,12.659,0,0,1-3.092-8.781v-1.269a13.026,13.026,0,0,1,3.081-8.885,9.538,9.538,0,0,1,7.442-3.531,9.249,9.249,0,0,1,7.223,2.908,11.118,11.118,0,0,1,2.631,7.754v2.354h-17.63v.669a11.022,11.022,0,0,0,2.25,7.05,7.154,7.154,0,0,0,5.9,2.85,12.008,12.008,0,0,0,4.384-.715,8.669,8.669,0,0,0,3.116-2.054l1.177,1.892a9.98,9.98,0,0,1-3.554,2.342A13.668,13.668,0,0,1,315.262,341.656Zm-.369-23.561a6.613,6.613,0,0,0-5.134,2.342,10.036,10.036,0,0,0-2.435,5.873l.046.115H322v-.692a7.982,7.982,0,0,0-1.915-5.446A6.542,6.542,0,0,0,314.893,318.1Z" transform="translate(-259.812 -307.572)" fill="#2d7c8e"></path><path id="Path_14" data-name="Path 14" d="M367.673,299.879q5.238,0,8.157,2.2t2.919,6.635a7.2,7.2,0,0,1-1.466,4.5,7.519,7.519,0,0,1-3.98,2.654,8.1,8.1,0,0,1,4.985,2.884,8.224,8.224,0,0,1,1.915,5.376,8.49,8.49,0,0,1-2.919,6.923,11.841,11.841,0,0,1-7.811,2.423H354.1v-2.031l3.761-.3V302.233l-3.761-.3v-2.054h13.569Zm-7.062,15.069h7.731a8.8,8.8,0,0,0,5.642-1.6,5.694,5.694,0,0,0,2-4.719,5.621,5.621,0,0,0-2.123-4.788,10.137,10.137,0,0,0-6.184-1.6h-7.062Zm0,2.331v13.869h8.861a8.634,8.634,0,0,0,5.838-1.834,6.422,6.422,0,0,0,2.123-5.134,6.739,6.739,0,0,0-1.927-4.961,7.552,7.552,0,0,0-5.6-1.938Z" transform="translate(-283.933 -299.879)" fill="#2d7c8e"></path><path id="Path_15" data-name="Path 15" d="M427.366,341.656a10.024,10.024,0,0,1-7.8-3.45,12.66,12.66,0,0,1-3.093-8.781v-1.269a13.025,13.025,0,0,1,3.081-8.885A9.538,9.538,0,0,1,427,315.741a9.248,9.248,0,0,1,7.223,2.908,11.116,11.116,0,0,1,2.631,7.754v2.354H419.22v.669a11.025,11.025,0,0,0,2.25,7.05,7.154,7.154,0,0,0,5.9,2.85,12.01,12.01,0,0,0,4.385-.715,8.667,8.667,0,0,0,3.115-2.054l1.177,1.892a9.975,9.975,0,0,1-3.554,2.342A13.669,13.669,0,0,1,427.366,341.656ZM427,318.1a6.613,6.613,0,0,0-5.134,2.342,10.036,10.036,0,0,0-2.434,5.873l.046.115H434.1v-.692a7.982,7.982,0,0,0-1.915-5.446A6.541,6.541,0,0,0,427,318.1Z" transform="translate(-314.183 -307.572)" fill="#2d7c8e"></path><path id="Path_16" data-name="Path 16" d="M479.777,299.879q5.238,0,8.157,2.2t2.919,6.635a7.194,7.194,0,0,1-1.465,4.5,7.522,7.522,0,0,1-3.981,2.654,8.1,8.1,0,0,1,4.985,2.884,8.224,8.224,0,0,1,1.915,5.376,8.489,8.489,0,0,1-2.919,6.923,11.844,11.844,0,0,1-7.811,2.423H466.208v-2.031l3.761-.3V302.233l-3.761-.3v-2.054h13.569Zm-7.062,15.069h7.731a8.8,8.8,0,0,0,5.642-1.6,5.694,5.694,0,0,0,2-4.719,5.622,5.622,0,0,0-2.123-4.788,10.14,10.14,0,0,0-6.185-1.6h-7.062Zm0,2.331v13.869h8.861a8.637,8.637,0,0,0,5.838-1.834,6.423,6.423,0,0,0,2.123-5.134,6.739,6.739,0,0,0-1.927-4.961,7.552,7.552,0,0,0-5.6-1.938Z" transform="translate(-338.305 -299.879)" fill="#2d7c8e"></path><path id="Path_17" data-name="Path 17" d="M528.352,328.318a13.42,13.42,0,0,1,3.023-9.046,10.872,10.872,0,0,1,16.038,0,13.42,13.42,0,0,1,3.023,9.046v.762a13.441,13.441,0,0,1-3.012,9.057,10.908,10.908,0,0,1-16.05,0,13.408,13.408,0,0,1-3.023-9.057Zm2.77.762a11.9,11.9,0,0,0,2.192,7.292,7.736,7.736,0,0,0,12.161,0,11.9,11.9,0,0,0,2.192-7.292v-.762a11.838,11.838,0,0,0-2.2-7.246,7.687,7.687,0,0,0-12.15,0,11.881,11.881,0,0,0-2.192,7.246Z" transform="translate(-368.445 -307.572)" fill="#2d7c8e"></path><path id="Path_18" data-name="Path 18" d="M587.367,304.226v6.392h5.492v2.261h-5.492v16.269a5.322,5.322,0,0,0,.888,3.473,2.972,2.972,0,0,0,2.365,1.027q.669,0,1.3-.058t1.466-.2l.415,2.054a7.16,7.16,0,0,1-1.685.461,12.335,12.335,0,0,1-1.984.162,5.177,5.177,0,0,1-4.1-1.661q-1.465-1.662-1.465-5.262V312.879h-4.292v-2.261h4.292v-6.392Z" transform="translate(-393.632 -301.987)" fill="#2d7c8e"></path></g><g id="Group_9" data-name="Group 9" transform="translate(0 40.146)"><path id="Path_19" data-name="Path 19" d="M221,380.125l-1.1.079L223,385.8l3.12-5.593-1.1-.079v-.7h3.159v.7l-.977.079-3.734,6.5V390.1l1.284.1v.694h-3.514V390.2l1.284-.1v-3.45l-3.7-6.444-.968-.079v-.7H221Z" transform="translate(-217.848 -378.605)" fill="#2d7c8e"></path><path id="Path_20" data-name="Path 20" d="M239.245,389.132a4.578,4.578,0,0,1,1.032-3.088,3.711,3.711,0,0,1,5.475,0,4.578,4.578,0,0,1,1.032,3.088v.26a4.59,4.59,0,0,1-1.028,3.092,3.725,3.725,0,0,1-5.48,0,4.576,4.576,0,0,1-1.032-3.092Zm.945.26a4.06,4.06,0,0,0,.748,2.489,2.453,2.453,0,0,0,2.088,1.008,2.429,2.429,0,0,0,2.064-1.008,4.06,4.06,0,0,0,.749-2.489v-.26a4.046,4.046,0,0,0-.753-2.474,2.625,2.625,0,0,0-4.148,0,4.057,4.057,0,0,0-.748,2.474Z" transform="translate(-228.226 -381.231)" fill="#2d7c8e"></path><path id="Path_21" data-name="Path 21" d="M263.347,392.266a2.9,2.9,0,0,1-1.1,1.158,3.181,3.181,0,0,1-1.642.409,2.593,2.593,0,0,1-2.107-.913,4.384,4.384,0,0,1-.76-2.836v-4.136l-1.056-.1v-.7h1.993V390.1a3.665,3.665,0,0,0,.532,2.237,1.805,1.805,0,0,0,1.508.678,2.789,2.789,0,0,0,1.705-.472,2.5,2.5,0,0,0,.894-1.308v-5.286l-1.213-.1v-.7h2.159v7.727l1.142.1v.694h-1.969Z" transform="translate(-236.683 -381.379)" fill="#2d7c8e"></path><path id="Path_22" data-name="Path 22" d="M278.884,385l.117,1.418v.1a3.028,3.028,0,0,1,.989-1.232,2.5,2.5,0,0,1,1.486-.445,2.18,2.18,0,0,1,.351.028,2.607,2.607,0,0,1,.279.059l-.126.882-.7-.047a2.134,2.134,0,0,0-1.461.5,2.756,2.756,0,0,0-.816,1.375v5.089l1.284.1v.694h-3.505v-.694l1.283-.1V385.8l-1.283-.1V385h2.1Z" transform="translate(-246.431 -381.231)" fill="#2d7c8e"></path><path id="Path_23" data-name="Path 23" d="M298.208,380.125v-.7h3.514v.7l-1.284.1v9.87l1.284.1v.694h-3.514V390.2l1.284-.1v-9.87Z" transform="translate(-256.823 -378.605)" fill="#2d7c8e"></path><path id="Path_24" data-name="Path 24" d="M308.149,392.826l1.284-.1V385.8l-1.284-.1V385h2.12l.087,1.489a3.032,3.032,0,0,1,1.106-1.217,3.087,3.087,0,0,1,1.651-.43,2.622,2.622,0,0,1,2.111.847,4,4,0,0,1,.726,2.642v4.4l1.283.1v.694h-3.513v-.694l1.284-.1v-4.388a3.085,3.085,0,0,0-.548-2.072,1.989,1.989,0,0,0-1.556-.607,2.439,2.439,0,0,0-1.619.524,2.918,2.918,0,0,0-.9,1.391v5.151l1.284.1v.694h-3.514Z" transform="translate(-261.645 -381.231)" fill="#2d7c8e"></path><path id="Path_25" data-name="Path 25" d="M331.185,380.908v2.182h1.874v.772h-1.874v5.554a1.815,1.815,0,0,0,.3,1.185,1.015,1.015,0,0,0,.807.35q.228,0,.445-.019c.145-.013.311-.036.5-.067l.142.7a2.459,2.459,0,0,1-.575.158,4.238,4.238,0,0,1-.677.055,1.768,1.768,0,0,1-1.4-.567,2.674,2.674,0,0,1-.5-1.8v-5.554h-1.465v-.772h1.465v-2.182Z" transform="translate(-271.644 -379.324)" fill="#2d7c8e"></path><path id="Path_26" data-name="Path 26" d="M344.858,393.685a3.42,3.42,0,0,1-2.662-1.177,4.319,4.319,0,0,1-1.056-3v-.434a4.447,4.447,0,0,1,1.051-3.032,3.255,3.255,0,0,1,2.54-1.206,3.156,3.156,0,0,1,2.466.992,3.8,3.8,0,0,1,.9,2.647v.8h-6.019v.229a3.765,3.765,0,0,0,.768,2.406,2.442,2.442,0,0,0,2.013.973,4.1,4.1,0,0,0,1.5-.244,2.961,2.961,0,0,0,1.063-.7l.4.645a3.4,3.4,0,0,1-1.213.8A4.666,4.666,0,0,1,344.858,393.685Zm-.126-8.042a2.258,2.258,0,0,0-1.753.8,3.427,3.427,0,0,0-.831,2.005l.015.039h4.995v-.236a2.726,2.726,0,0,0-.655-1.859A2.233,2.233,0,0,0,344.732,385.643Z" transform="translate(-277.646 -381.231)" fill="#2d7c8e"></path><path id="Path_27" data-name="Path 27" d="M358.149,378.534v-.7h2.222v11.493l1.283.1v.694h-3.505v-.694l1.284-.1v-10.69Z" transform="translate(-285.895 -377.833)" fill="#2d7c8e"></path><path id="Path_28" data-name="Path 28" d="M368.074,378.534v-.7H370.3v11.493l1.283.1v.694h-3.505v-.694l1.284-.1v-10.69Z" transform="translate(-290.709 -377.833)" fill="#2d7c8e"></path><path id="Path_29" data-name="Path 29" d="M378.246,389.429l1.283-.1V382.4l-1.283-.1v-.7h2.221v7.727l1.284.1v.694h-3.505Zm2.221-10.272h-.937v-1.324h.937Z" transform="translate(-295.642 -377.833)" fill="#2d7c8e"></path><path id="Path_30" data-name="Path 30" d="M388.8,389.329a5.529,5.529,0,0,1,.87-3.266,2.8,2.8,0,0,1,2.414-1.225,3.013,3.013,0,0,1,1.572.4,3.177,3.177,0,0,1,1.1,1.123l.111-1.363h.795v8.413a3.663,3.663,0,0,1-.889,2.6,3.231,3.231,0,0,1-2.482.953,6.25,6.25,0,0,1-1.311-.15,5.131,5.131,0,0,1-1.218-.409l.253-.8a5.358,5.358,0,0,0,1.075.378,5.1,5.1,0,0,0,1.186.134,2.276,2.276,0,0,0,1.828-.717,2.968,2.968,0,0,0,.614-1.993v-1.079a2.959,2.959,0,0,1-1.094,1,3.27,3.27,0,0,1-1.552.35,2.847,2.847,0,0,1-2.4-1.142,4.919,4.919,0,0,1-.866-3.048Zm.945.165a4.287,4.287,0,0,0,.626,2.454,2.117,2.117,0,0,0,1.871.918,2.648,2.648,0,0,0,1.532-.418,2.7,2.7,0,0,0,.941-1.15v-3.955a3.011,3.011,0,0,0-.905-1.217,2.428,2.428,0,0,0-1.552-.469,2.073,2.073,0,0,0-1.879,1.024,4.963,4.963,0,0,0-.634,2.647Z" transform="translate(-300.761 -381.231)" fill="#2d7c8e"></path><path id="Path_31" data-name="Path 31" d="M410.672,393.685a3.42,3.42,0,0,1-2.662-1.177,4.321,4.321,0,0,1-1.056-3v-.434a4.447,4.447,0,0,1,1.051-3.032,3.256,3.256,0,0,1,2.54-1.206,3.156,3.156,0,0,1,2.466.992,3.8,3.8,0,0,1,.9,2.647v.8h-6.019v.229a3.765,3.765,0,0,0,.768,2.406,2.443,2.443,0,0,0,2.013.973,4.108,4.108,0,0,0,1.5-.244,2.959,2.959,0,0,0,1.062-.7l.4.645a3.405,3.405,0,0,1-1.213.8A4.664,4.664,0,0,1,410.672,393.685Zm-.126-8.042a2.259,2.259,0,0,0-1.753.8,3.423,3.423,0,0,0-.83,2.005l.015.039h4.995v-.236a2.728,2.728,0,0,0-.654-1.859A2.235,2.235,0,0,0,410.546,385.643Z" transform="translate(-309.566 -381.231)" fill="#2d7c8e"></path><path id="Path_32" data-name="Path 32" d="M423.991,392.826l1.284-.1V385.8l-1.284-.1V385h2.12l.087,1.489a3.031,3.031,0,0,1,1.106-1.217,3.087,3.087,0,0,1,1.651-.43,2.622,2.622,0,0,1,2.111.847,4,4,0,0,1,.726,2.642v4.4l1.283.1v.694h-3.513v-.694l1.284-.1v-4.388a3.085,3.085,0,0,0-.548-2.072,1.988,1.988,0,0,0-1.556-.607,2.44,2.44,0,0,0-1.619.524,2.918,2.918,0,0,0-.9,1.391v5.151l1.284.1v.694h-3.514Z" transform="translate(-317.829 -381.231)" fill="#2d7c8e"></path><path id="Path_33" data-name="Path 33" d="M447.029,380.908v2.182H448.9v.772h-1.874v5.554a1.815,1.815,0,0,0,.3,1.185,1.015,1.015,0,0,0,.807.35c.152,0,.3-.006.445-.019s.311-.036.5-.067l.142.7a2.459,2.459,0,0,1-.575.158,4.239,4.239,0,0,1-.677.055,1.768,1.768,0,0,1-1.4-.567,2.674,2.674,0,0,1-.5-1.8v-5.554H444.61v-.772h1.465v-2.182Z" transform="translate(-327.83 -379.324)" fill="#2d7c8e"></path><path id="Path_34" data-name="Path 34" d="M464.478,390.2l.843-.063,4.073-10.713h.89l4.033,10.713.858.063v.694h-2.828V390.2l1-.079-.945-2.568h-5.152l-.954,2.568,1,.079v.694h-2.82Zm3.088-3.49H472.1l-2.229-6.066h-.047Z" transform="translate(-337.466 -378.605)" fill="#2d7c8e"></path><path id="Path_35" data-name="Path 35" d="M494.755,387.627h-.772l-.11-1.205a2.4,2.4,0,0,0-.894-.575,3.478,3.478,0,0,0-1.241-.2,2.32,2.32,0,0,0-1.548.444,1.342,1.342,0,0,0-.516,1.044,1.237,1.237,0,0,0,.445.977,4.325,4.325,0,0,0,1.776.677,5.82,5.82,0,0,1,2.277.926,1.91,1.91,0,0,1,.756,1.595,2.064,2.064,0,0,1-.862,1.722,3.665,3.665,0,0,1-2.28.657,5.335,5.335,0,0,1-1.722-.263,4.118,4.118,0,0,1-1.343-.745V390.96h.765l.134,1.213a2.191,2.191,0,0,0,.957.547,4.271,4.271,0,0,0,1.209.169,2.609,2.609,0,0,0,1.615-.449,1.33,1.33,0,0,0,.591-1.087,1.378,1.378,0,0,0-.492-1.048,4,4,0,0,0-1.776-.732,5.985,5.985,0,0,1-2.257-.879,1.8,1.8,0,0,1-.736-1.532,2.054,2.054,0,0,1,.827-1.651,3.347,3.347,0,0,1,2.182-.674,4.9,4.9,0,0,1,1.713.287,3.46,3.46,0,0,1,1.265.776Z" transform="translate(-349.224 -381.231)" fill="#2d7c8e"></path><path id="Path_36" data-name="Path 36" d="M511.029,387.627h-.772l-.11-1.205a2.4,2.4,0,0,0-.894-.575,3.477,3.477,0,0,0-1.241-.2,2.321,2.321,0,0,0-1.548.444,1.342,1.342,0,0,0-.516,1.044,1.237,1.237,0,0,0,.445.977,4.328,4.328,0,0,0,1.776.677,5.817,5.817,0,0,1,2.277.926,1.91,1.91,0,0,1,.757,1.595,2.064,2.064,0,0,1-.863,1.722,3.665,3.665,0,0,1-2.28.657,5.334,5.334,0,0,1-1.722-.263,4.116,4.116,0,0,1-1.343-.745V390.96h.765l.134,1.213a2.194,2.194,0,0,0,.957.547,4.272,4.272,0,0,0,1.209.169,2.612,2.612,0,0,0,1.615-.449,1.329,1.329,0,0,0,.59-1.087,1.378,1.378,0,0,0-.492-1.048,4,4,0,0,0-1.776-.732,5.984,5.984,0,0,1-2.257-.879,1.8,1.8,0,0,1-.736-1.532,2.055,2.055,0,0,1,.827-1.651,3.348,3.348,0,0,1,2.182-.674,4.9,4.9,0,0,1,1.713.287,3.458,3.458,0,0,1,1.265.776Z" transform="translate(-357.117 -381.231)" fill="#2d7c8e"></path><path id="Path_37" data-name="Path 37" d="M520.858,389.429l1.283-.1V382.4l-1.283-.1v-.7h2.221v7.727l1.284.1v.694h-3.505Zm2.221-10.272h-.937v-1.324h.937Z" transform="translate(-364.811 -377.833)" fill="#2d7c8e"></path><path id="Path_38" data-name="Path 38" d="M537.657,387.627h-.772l-.11-1.205a2.4,2.4,0,0,0-.894-.575,3.479,3.479,0,0,0-1.241-.2,2.319,2.319,0,0,0-1.548.444,1.342,1.342,0,0,0-.516,1.044,1.237,1.237,0,0,0,.445.977,4.324,4.324,0,0,0,1.776.677,5.82,5.82,0,0,1,2.277.926,1.91,1.91,0,0,1,.756,1.595,2.064,2.064,0,0,1-.862,1.722,3.665,3.665,0,0,1-2.28.657,5.335,5.335,0,0,1-1.722-.263,4.119,4.119,0,0,1-1.343-.745V390.96h.765l.134,1.213a2.191,2.191,0,0,0,.957.547,4.271,4.271,0,0,0,1.209.169,2.609,2.609,0,0,0,1.615-.449,1.33,1.33,0,0,0,.591-1.087,1.378,1.378,0,0,0-.492-1.048,4,4,0,0,0-1.776-.732,5.984,5.984,0,0,1-2.257-.879,1.8,1.8,0,0,1-.736-1.532,2.054,2.054,0,0,1,.827-1.651,3.347,3.347,0,0,1,2.182-.674,4.895,4.895,0,0,1,1.713.287,3.46,3.46,0,0,1,1.265.776Z" transform="translate(-370.032 -381.231)" fill="#2d7c8e"></path><path id="Path_39" data-name="Path 39" d="M549.536,380.908v2.182h1.874v.772h-1.874v5.554a1.814,1.814,0,0,0,.3,1.185,1.015,1.015,0,0,0,.807.35q.228,0,.445-.019c.145-.013.311-.036.5-.067l.142.7a2.46,2.46,0,0,1-.575.158,4.24,4.24,0,0,1-.677.055,1.767,1.767,0,0,1-1.4-.567,2.675,2.675,0,0,1-.5-1.8v-5.554h-1.465v-.772h1.465v-2.182Z" transform="translate(-377.546 -379.324)" fill="#2d7c8e"></path><path id="Path_40" data-name="Path 40" d="M565.35,393.52q-.1-.433-.134-.748a4.964,4.964,0,0,1-.04-.639,3.754,3.754,0,0,1-1.26,1.111,3.567,3.567,0,0,1-1.773.441,2.716,2.716,0,0,1-1.938-.645,2.287,2.287,0,0,1-.686-1.749,2.161,2.161,0,0,1,1.017-1.875,4.828,4.828,0,0,1,2.758-.693h1.882V387.6a1.816,1.816,0,0,0-.587-1.434,2.392,2.392,0,0,0-1.643-.52,4.122,4.122,0,0,0-1.3.193,2.93,2.93,0,0,0-.981.524l-.079,1.142h-.78l.008-1.639a4.913,4.913,0,0,1,1.415-.741,5.355,5.355,0,0,1,1.753-.283,3.427,3.427,0,0,1,2.269.717,2.528,2.528,0,0,1,.858,2.056v4.19c0,.174,0,.34.012.5a3.981,3.981,0,0,0,.051.469l.851.055v.694Zm-3.1-.67a3.418,3.418,0,0,0,1.8-.472,2.8,2.8,0,0,0,1.126-1.222v-1.709h-1.9a3.547,3.547,0,0,0-2.052.532,1.584,1.584,0,0,0-.768,1.343,1.405,1.405,0,0,0,.477,1.107A1.909,1.909,0,0,0,562.246,392.85Z" transform="translate(-383.562 -381.231)" fill="#2d7c8e"></path><path id="Path_41" data-name="Path 41" d="M576.957,392.826l1.284-.1V385.8l-1.284-.1V385h2.119l.087,1.489a3.029,3.029,0,0,1,1.106-1.217,3.084,3.084,0,0,1,1.65-.43,2.622,2.622,0,0,1,2.111.847,4,4,0,0,1,.726,2.642v4.4l1.283.1v.694h-3.513v-.694l1.284-.1v-4.388a3.085,3.085,0,0,0-.548-2.072,1.988,1.988,0,0,0-1.556-.607,2.44,2.44,0,0,0-1.619.524,2.917,2.917,0,0,0-.9,1.391v5.151l1.284.1v.694h-3.514Z" transform="translate(-392.019 -381.231)" fill="#2d7c8e"></path><path id="Path_42" data-name="Path 42" d="M599.994,380.908v2.182h1.874v.772h-1.874v5.554a1.815,1.815,0,0,0,.3,1.185,1.015,1.015,0,0,0,.807.35q.229,0,.445-.019t.5-.067l.142.7a2.459,2.459,0,0,1-.575.158,4.233,4.233,0,0,1-.677.055,1.766,1.766,0,0,1-1.4-.567,2.671,2.671,0,0,1-.5-1.8v-5.554h-1.466v-.772h1.466v-2.182Z" transform="translate(-402.019 -379.324)" fill="#2d7c8e"></path></g></g></g></svg> 