<svg id="Layer_1" data-name="Layer 1" xmlns="http://www.w3.org/2000/svg" viewBox="0 0 486 194"><defs><style>.cls-1{fill:#27ae60;}.cls-2{fill:#fff;}</style></defs><title>oorwin logo</title><polygon class="cls-1" points="0 194 0 0 486 4 486 156.67 0 194"/><path class="cls-2" d="M165.14,67.42A25.68,25.68,0,1,0,190.82,93.1,25.71,25.71,0,0,0,165.14,67.42Zm0,36.48a10.8,10.8,0,1,1,10.8-10.8A10.81,10.81,0,0,1,165.14,103.9Z" transform="translate(-3.31 -1.82)"/><path class="cls-2" d="M195.07,93.1v25.68H210V93.1a10.81,10.81,0,0,1,10.8-10.8l9.43,0V67.42h-9.43A25.71,25.71,0,0,0,195.07,93.1Z" transform="translate(-3.31 -1.82)"/><path class="cls-2" d="M382.91,67.42H357.23v51.36h14.88V82.3h10.8a10.81,10.81,0,0,1,10.8,10.8v25.68h14.88V93.1A25.71,25.71,0,0,0,382.91,67.42Z" transform="translate(-3.31 -1.82)"/><path class="cls-2" d="M109.7,67.42A25.68,25.68,0,1,0,135.38,93.1,25.71,25.71,0,0,0,109.7,67.42Zm0,36.48a10.8,10.8,0,1,1,10.8-10.8A10.81,10.81,0,0,1,109.7,103.9Z" transform="translate(-3.31 -1.82)"/><rect class="cls-2" x="329.56" y="65.6" width="14.88" height="51.36"/><circle class="cls-2" cx="336.99" cy="51.69" r="7.99"/><path class="cls-2" d="M308.86,92.91a10.82,10.82,0,0,1-12.22,10.71,11.05,11.05,0,0,1-9.38-11.09V67.42H272.38V92.54A11.05,11.05,0,0,1,263,103.62a10.82,10.82,0,0,1-12.22-10.71V67.42H235.89V92.91A25.66,25.66,0,0,0,279.81,111a25.66,25.66,0,0,0,43.92-18.05V67.42H308.86Z" transform="translate(-3.31 -1.82)"/></svg>