<svg width="110" height="26" viewBox="0 0 110 26" fill="none" xmlns="http://www.w3.org/2000/svg">
<path d="M24.2512 12.5154C24.2512 18.8752 19.0463 24.0308 12.6256 24.0308C6.20497 24.0308 1 18.8752 1 12.5154C1 6.15562 6.20497 1 12.6256 1C19.0463 1 24.2512 6.15562 24.2512 12.5154Z" stroke="#212322" stroke-width="2"/>
<path d="M1 12.5156C1 8.3363 4.42041 4.94832 8.6397 4.94832C12.859 4.94832 16.2794 8.3363 16.2794 12.5156V1.6582" stroke="#212322" stroke-width="2"/>
<path d="M24.2513 12.1865C24.2513 16.3658 20.8309 19.7538 16.6116 19.7538C12.3923 19.7538 8.97192 16.3658 8.97192 12.1865V23.0439" stroke="#212322" stroke-width="2"/>
<path d="M38.8093 6.8289C40.3129 6.8289 41.5219 7.36628 42.4365 8.44105C43.3665 9.51582 43.8315 11.1203 43.8315 13.2545C43.8315 14.6517 43.6223 15.8339 43.2038 16.8012C42.7852 17.7685 42.1962 18.4978 41.4367 18.9892C40.6771 19.4651 39.7936 19.7031 38.786 19.7031C38.1505 19.7031 37.5925 19.6263 37.1119 19.4728C36.6314 19.3039 36.2206 19.089 35.8796 18.8279C35.5541 18.5516 35.2673 18.2599 35.0193 17.9528H34.8566C34.9031 18.2291 34.9418 18.5593 34.9728 18.9431C35.0038 19.3116 35.0193 19.6417 35.0193 19.9334V25.0002H32.5547V7.0592H34.5543L34.9031 8.71742H35.0193C35.2673 8.37964 35.5618 8.06488 35.9029 7.77316C36.2439 7.48144 36.6547 7.25113 37.1352 7.08223C37.6157 6.91334 38.1737 6.8289 38.8093 6.8289ZM38.228 8.83258C37.453 8.83258 36.8329 8.98612 36.3679 9.29319C35.9029 9.58492 35.5618 10.0302 35.3448 10.629C35.1433 11.2124 35.0348 11.9571 35.0193 12.863V13.2315C35.0193 14.1834 35.1201 14.9972 35.3216 15.6727C35.5231 16.3329 35.8564 16.8396 36.3214 17.1928C36.8019 17.5305 37.453 17.6994 38.2745 17.6994C38.972 17.6994 39.5378 17.5152 39.9718 17.1467C40.4214 16.7628 40.7546 16.2331 40.9716 15.5576C41.1887 14.882 41.2972 14.099 41.2972 13.2084C41.2972 11.8573 41.0491 10.7902 40.5531 10.0071C40.0571 9.2241 39.282 8.83258 38.228 8.83258Z" fill="#212322"/>
<path d="M58.0175 13.2545C58.0175 14.2832 57.878 15.1968 57.599 15.9952C57.32 16.7936 56.9247 17.4691 56.4132 18.0219C55.9017 18.5746 55.2816 18.9968 54.5531 19.2886C53.8246 19.5649 53.003 19.7031 52.0885 19.7031C51.2514 19.7031 50.4764 19.5649 49.7633 19.2886C49.0503 18.9968 48.4303 18.5746 47.9032 18.0219C47.3917 17.4691 46.9887 16.7936 46.6942 15.9952C46.3997 15.1968 46.2524 14.2755 46.2524 13.2315C46.2524 11.865 46.4849 10.7057 46.9499 9.75381C47.4305 8.80187 48.1125 8.08024 48.996 7.58891C49.8951 7.08224 50.9492 6.8289 52.1582 6.8289C53.3053 6.8289 54.3128 7.08224 55.1809 7.58891C56.0644 8.08024 56.7542 8.80187 57.2502 9.75381C57.7618 10.7057 58.0175 11.8726 58.0175 13.2545ZM48.7868 13.2545C48.7868 14.1757 48.903 14.9741 49.1356 15.6497C49.3681 16.3099 49.7323 16.8166 50.2284 17.1697C50.7244 17.5229 51.3599 17.6994 52.135 17.6994C52.91 17.6994 53.5455 17.5229 54.0416 17.1697C54.5376 16.8166 54.9019 16.3099 55.1344 15.6497C55.3669 14.9741 55.4831 14.1757 55.4831 13.2545C55.4831 12.3026 55.3591 11.5041 55.1111 10.8593C54.8786 10.2144 54.5143 9.7231 54.0183 9.38532C53.5378 9.03218 52.9023 8.85561 52.1117 8.85561C50.9492 8.85561 50.1044 9.23945 49.5773 10.0071C49.0503 10.7748 48.7868 11.8573 48.7868 13.2545Z" fill="#212322"/>
<path d="M65.6527 17.7225C65.9782 17.7225 66.3114 17.6918 66.6525 17.6303C66.9935 17.5689 67.288 17.4998 67.536 17.4231V19.2655C67.2725 19.3884 66.916 19.4882 66.4665 19.5649C66.0169 19.6571 65.5674 19.7031 65.1179 19.7031C64.4358 19.7031 63.8081 19.588 63.2345 19.3577C62.6765 19.1273 62.227 18.7281 61.886 18.1601C61.5449 17.592 61.3744 16.8012 61.3744 15.7879V8.9247H59.6306V7.81922L61.4674 6.89799L62.3277 4.27248H63.8391V7.0592H67.4198V8.9247H63.8391V15.7418C63.8391 16.4174 64.0018 16.9164 64.3273 17.2388C64.6684 17.5612 65.1101 17.7225 65.6527 17.7225Z" fill="#212322"/>
<path d="M72.5074 7.0592V19.4728H70.0428V7.0592H72.5074ZM71.2984 2.33789C71.6704 2.33789 71.9959 2.44537 72.2749 2.66032C72.5539 2.87528 72.6934 3.23609 72.6934 3.74277C72.6934 4.23409 72.5539 4.59491 72.2749 4.82522C71.9959 5.04017 71.6704 5.14765 71.2984 5.14765C70.8953 5.14765 70.5543 5.04017 70.2753 4.82522C70.0118 4.59491 69.88 4.23409 69.88 3.74277C69.88 3.23609 70.0118 2.87528 70.2753 2.66032C70.5543 2.44537 70.8953 2.33789 71.2984 2.33789Z" fill="#212322"/>
<path d="M84.7018 15.9721C84.7018 16.7859 84.5003 17.4691 84.0973 18.0219C83.6942 18.5746 83.113 18.9968 82.3534 19.2886C81.5939 19.5649 80.6793 19.7031 79.6098 19.7031C78.7262 19.7031 77.9667 19.634 77.3311 19.4958C76.7111 19.373 76.1376 19.1888 75.6106 18.9431V16.8012C76.1686 17.0623 76.8119 17.3002 77.5404 17.5152C78.2689 17.7148 78.982 17.8146 79.6795 17.8146C80.6096 17.8146 81.2761 17.6687 81.6791 17.377C82.0977 17.0853 82.3069 16.6938 82.3069 16.2024C82.3069 15.9261 82.2294 15.6804 82.0744 15.4654C81.9194 15.2351 81.6249 15.0048 81.1909 14.7745C80.7723 14.5289 80.1523 14.2525 79.3308 13.9454C78.5402 13.623 77.8659 13.3082 77.3079 13.0012C76.7499 12.6787 76.3236 12.3026 76.0291 11.8726C75.7346 11.4274 75.5873 10.8593 75.5873 10.1684C75.5873 9.09359 76.0213 8.27216 76.8894 7.70407C77.7729 7.12062 78.9355 6.8289 80.3771 6.8289C81.1366 6.8289 81.8496 6.90567 82.5162 7.0592C83.1982 7.19739 83.857 7.41234 84.4925 7.70407L83.6787 9.56956C83.3222 9.40067 82.9502 9.26249 82.5627 9.15501C82.1907 9.03218 81.8109 8.93238 81.4234 8.85561C81.0513 8.77884 80.6638 8.74045 80.2608 8.74045C79.5168 8.74045 78.951 8.85561 78.5635 9.08592C78.1759 9.31622 77.9822 9.63865 77.9822 10.0532C77.9822 10.3449 78.0674 10.5983 78.2379 10.8132C78.424 11.0282 78.7417 11.2431 79.1912 11.4581C79.6408 11.673 80.2531 11.9341 81.0281 12.2411C81.8031 12.5329 82.4619 12.8323 83.0045 13.1393C83.5625 13.4464 83.981 13.8226 84.26 14.2678C84.5545 14.7131 84.7018 15.2812 84.7018 15.9721Z" fill="#212322"/>
<path d="M87.2914 18.114C87.2914 17.5152 87.4464 17.093 87.7564 16.8473C88.0664 16.6016 88.4385 16.4788 88.8725 16.4788C89.322 16.4788 89.7018 16.6016 90.0118 16.8473C90.3218 17.093 90.4768 17.5152 90.4768 18.114C90.4768 18.7128 90.3218 19.1427 90.0118 19.4037C89.7018 19.6647 89.322 19.7952 88.8725 19.7952C88.4385 19.7952 88.0664 19.6647 87.7564 19.4037C87.4464 19.1427 87.2914 18.7128 87.2914 18.114Z" fill="#212322"/>
<path d="M98.8574 6.8289C100.439 6.8289 101.617 7.17436 102.392 7.86528C103.167 8.54085 103.554 9.60795 103.554 11.0666V19.4728H101.81L101.322 17.7455H101.229C100.873 18.1908 100.501 18.5593 100.113 18.851C99.741 19.1427 99.307 19.3577 98.8109 19.4958C98.3304 19.634 97.7414 19.7031 97.0438 19.7031C96.2998 19.7031 95.6255 19.5726 95.021 19.3116C94.432 19.0352 93.9669 18.6207 93.6259 18.0679C93.2849 17.4998 93.1144 16.7936 93.1144 15.9491C93.1144 14.6901 93.5949 13.7305 94.556 13.0702C95.5325 12.41 97.0128 12.0492 98.997 11.9878L101.136 11.9187V11.2278C101.136 10.3065 100.927 9.66169 100.508 9.29319C100.09 8.9247 99.5007 8.74045 98.7412 8.74045C98.0901 8.74045 97.4701 8.83258 96.8811 9.01682C96.2921 9.20107 95.734 9.4237 95.207 9.68472L94.4165 7.91134C95.0055 7.60427 95.6798 7.35093 96.4393 7.15133C97.2144 6.93637 98.0204 6.8289 98.8574 6.8289ZM99.4387 13.5539C98.0126 13.6153 97.0206 13.8533 96.4626 14.2678C95.92 14.667 95.6488 15.2351 95.6488 15.9721C95.6488 16.617 95.8425 17.0853 96.2301 17.377C96.6331 17.6687 97.1368 17.8146 97.7414 17.8146C98.7179 17.8146 99.524 17.5459 100.16 17.0085C100.795 16.4711 101.113 15.665 101.113 14.5903V13.5078L99.4387 13.5539Z" fill="#212322"/>
<path d="M109.814 7.0592V19.4728H107.349V7.0592H109.814ZM108.605 2.33789C108.977 2.33789 109.302 2.44537 109.581 2.66032C109.86 2.87528 110 3.23609 110 3.74277C110 4.23409 109.86 4.59491 109.581 4.82522C109.302 5.04017 108.977 5.14765 108.605 5.14765C108.202 5.14765 107.861 5.04017 107.582 4.82522C107.318 4.59491 107.186 4.23409 107.186 3.74277C107.186 3.23609 107.318 2.87528 107.582 2.66032C107.861 2.44537 108.202 2.33789 108.605 2.33789Z" fill="#212322"/>
</svg>
