<svg width="61" height="22" viewBox="0 0 61 22" fill="none" xmlns="http://www.w3.org/2000/svg">
<path d="M1.48036 5.75978C1.48036 2.40486 4.44525 0 8.60808 0C12.4714 0 15.8257 2.13765 16.0353 5.55196H13.2501C13.0405 3.29555 11.004 1.95951 8.48829 1.95951C5.76298 1.95951 4.08587 3.68151 4.08587 5.58165C4.08587 7.83806 6.00257 8.52092 9.74612 9.29285C14.7775 10.332 16.6942 12.2915 16.6942 15.6464C16.6942 19.5358 13.4597 22 8.96746 22C4.5351 22 1.03113 19.8327 0.761597 15.7652H3.57675C3.90618 18.5857 6.3919 20.0405 9.05731 20.0405C11.8725 20.0405 14.0587 18.3779 14.0587 15.7949C14.0587 13.1525 11.9024 12.4993 8.33855 11.6977C3.12752 10.5695 1.48036 8.78812 1.48036 5.75978Z" fill="black"/>
<path fill-rule="evenodd" clip-rule="evenodd" d="M17.9564 11.1336C18.2559 8.63968 20.3224 6.5614 23.8263 6.5614C27.5699 6.5614 29.6663 8.5803 29.6663 11.7274V21.5547H27.2404V19.6545C26.3719 21.1687 24.7547 22 22.6284 22C19.933 22 17.5971 20.4264 17.5971 17.695C17.5971 14.637 20.2026 12.7962 27.1207 12.6181V11.7274C27.1207 9.44129 25.8628 8.31309 23.8263 8.31309C21.7299 8.31309 20.6817 9.67881 20.532 11.1336H17.9564ZM20.1427 17.6059C20.1427 19.1498 21.4005 20.2483 23.1675 20.2483C25.4136 20.2483 27.1207 18.7341 27.1207 16.359V14.251C21.9995 14.3995 20.1427 15.587 20.1427 17.6059Z" fill="black"/>
<path d="M38.8466 6.62078C36.7203 6.62078 35.133 7.63023 34.2945 9.17409V7.03644H31.8387V21.5547H34.4742V12.4993C34.4742 10.2726 36.0315 8.55061 38.068 8.55061C40.1045 8.55061 41.3024 9.79757 41.3024 12.4696V21.5547H43.9379V11.9946C43.9379 8.78812 42.1709 6.62078 38.8466 6.62078Z" fill="black"/>
<path fill-rule="evenodd" clip-rule="evenodd" d="M45.7933 11.1336C46.0927 8.63968 48.1592 6.5614 51.6631 6.5614C55.4067 6.5614 57.5031 8.5803 57.5031 11.7274V21.5547H55.0773V19.6545C54.2088 21.1687 52.5915 22 50.4652 22C47.7699 22 45.4339 20.4264 45.4339 17.695C45.4339 14.637 48.0394 12.7962 54.9575 12.6181V11.7274C54.9575 9.44129 53.6996 8.31309 51.6631 8.31309C49.5668 8.31309 48.5186 9.67881 48.3688 11.1336H45.7933ZM47.9795 17.6059C47.9795 19.1498 49.2373 20.2483 51.0043 20.2483C53.2504 20.2483 54.9575 18.7341 54.9575 16.359V14.251C49.8363 14.3995 47.9795 15.587 47.9795 17.6059Z" fill="black"/>
<path d="M55.8414 1.70992V1.36271H57.7382V1.70992H57.0065V3.8035H56.5731V1.70992H55.8414Z" fill="black"/>
<path d="M58.6413 1.36271L59.2585 3.27065L59.8723 1.36271H60.5173V3.8035H60.0977V1.79242L59.4597 3.8035H59.0505L58.3986 1.79586V3.8035H57.9859V1.36271H58.6413Z" fill="black"/>
</svg>
