<svg width="82" height="34" viewBox="0 0 82 34" fill="none" xmlns="http://www.w3.org/2000/svg">
<path d="M64.3142 8.73328C60.1301 8.73328 56.7253 12.1389 56.7253 16.3359C56.7253 20.5329 60.1301 23.9385 64.3142 23.9385C68.4983 23.9385 71.9032 20.5329 71.9032 16.3359C71.9032 12.1389 68.4983 8.73328 64.3142 8.73328ZM64.3142 21.4203C61.5208 21.4203 59.2429 19.1419 59.2429 16.3359C59.2429 13.5299 61.5208 11.2515 64.3142 11.2515C67.1076 11.2515 69.3855 13.5299 69.3855 16.3359C69.3855 19.1419 67.1076 21.4203 64.3142 21.4203Z" fill="#37246A"/>
<path d="M40.4924 28.9868C40.4924 29.0827 40.5764 29.1667 40.6723 29.1667H42.7703C42.8662 29.1667 42.9501 29.0827 42.9501 28.9868V21.8639V21.5761L43.154 21.7799C44.9643 23.5667 46.6307 23.9384 47.7097 23.9384C51.6421 23.9384 54.8431 20.5448 54.8431 16.3598C54.8431 12.1867 51.6421 8.78113 47.7097 8.78113C46.0553 8.78113 44.1011 9.57257 42.9142 10.8557C42.8782 10.9036 42.7823 10.9036 42.7823 10.7837V10.6998L42.8063 9.34473C42.7943 9.2488 42.7224 9.18884 42.6264 9.18884H40.6843C40.5883 9.18884 40.5044 9.27278 40.5044 9.36871V28.9868H40.4924ZM47.5059 11.2993C50.1554 11.2993 52.3254 13.5657 52.3254 16.3598C52.3254 19.1538 50.1674 21.4202 47.5059 21.4202C44.8564 21.4202 42.6864 19.1538 42.6864 16.3598C42.6984 13.5777 44.8564 11.2993 47.5059 11.2993Z" fill="#37246A"/>
<path d="M36.4762 16.0841C35.4691 15.5445 34.2462 15.3047 33.0593 15.0888C30.4218 14.5852 29.5946 14.2494 29.5946 13.0983C29.5946 11.7432 31.1172 11.2516 32.4239 11.2516C33.7427 11.2516 34.9176 11.5394 35.7209 12.055C35.7568 12.079 35.7808 12.079 35.8168 12.079C35.8767 12.079 35.9247 12.055 35.9606 12.007L37.2315 10.3402C37.2674 10.3042 37.2794 10.2563 37.2674 10.2083C37.2554 10.1603 37.2315 10.1124 37.1955 10.0884C35.9726 9.24898 34.3182 8.8053 32.4239 8.8053C29.3188 8.8053 27.1369 10.568 27.1369 13.0983C27.1369 14.6092 27.8442 15.7843 29.175 16.5038C30.182 17.0435 31.4049 17.2833 32.5918 17.4991C35.2293 18.0028 36.0566 18.3385 36.0566 19.4897C36.0566 20.8568 34.2343 21.4683 32.4239 21.4683C31.1291 21.4683 29.4867 20.9407 28.6475 20.4251C28.6235 20.4131 28.5875 20.4011 28.5515 20.4011C28.4916 20.4011 28.4436 20.4251 28.4077 20.473L27.1369 22.1518C27.1129 22.1878 27.1009 22.2358 27.1009 22.2837C27.1129 22.3317 27.1369 22.3797 27.1848 22.4037C28.4916 23.267 30.7455 23.9266 32.4239 23.9266C36.0566 23.9266 38.5023 22.1518 38.5023 19.5017C38.5143 17.9788 37.8189 16.8036 36.4762 16.0841Z" fill="#37246A"/>
<path d="M77.5498 11.2876H80.9426C81.0146 11.2876 81.0625 11.2277 81.0625 11.1677V9.30904C81.0625 9.23709 81.0026 9.18912 80.9426 9.18912H77.5498C77.4779 9.18912 77.4299 9.12916 77.4299 9.06921V5.36383C77.4299 5.2679 77.346 5.18396 77.2501 5.18396C77.2381 5.18396 77.2261 5.18396 77.2141 5.18396L75.0801 5.67561C75.0202 5.6876 74.9842 5.73557 74.9842 5.79553V9.05722C74.9842 9.12916 74.9243 9.17713 74.8643 9.17713H72.4665C72.3946 9.17713 72.3466 9.23709 72.3466 9.29705V11.1557C72.3466 11.2277 72.4066 11.2756 72.4665 11.2756H74.8643C74.9362 11.2756 74.9842 11.3356 74.9842 11.3956V19.4179C74.9842 22.116 76.6626 23.9267 79.1563 23.9267C79.6598 23.9267 80.1634 23.8547 80.6429 23.7108C80.6909 23.6988 80.7268 23.6629 80.7508 23.6149C80.7748 23.5669 80.7748 23.519 80.7628 23.471L80.0795 21.6483C80.0555 21.5763 79.9835 21.5284 79.9116 21.5284C79.8996 21.5284 79.8876 21.5284 79.8756 21.5284C79.6598 21.5883 79.456 21.6123 79.2282 21.6123C78.1373 21.6123 77.4539 20.7489 77.4539 19.3699V11.3836C77.4299 11.3476 77.4779 11.2876 77.5498 11.2876Z" fill="#37246A"/>
<path d="M7.02702 2.62939C2.56618 3.80439 0 7.10155 0 11.1181C0 14.2234 1.59487 17.9283 3.65741 21.0096C-0.0119911 13.4681 2.00258 4.35591 7.02702 2.62939Z" fill="#008EA8"/>
<path d="M10.5647 2.48543C11.7878 2.72523 12.867 3.22879 13.7424 3.99613C14.7737 3.62445 15.805 3.52854 16.7643 3.74435C15.3733 2.62931 13.2388 1.68212 10.5647 2.48543Z" fill="#ADA8C2"/>
<path d="M16.7762 3.75643C15.8168 3.54062 14.7736 3.62455 13.7543 4.00822C17.6515 7.41329 17.6276 15.7701 9.00566 26.5968C9.73714 27.0644 10.7324 26.8966 10.9723 26.8246C16.4284 22.1007 22.9518 8.85206 16.7762 3.75643Z" fill="white"/>
<path d="M16.7762 3.75623C22.9519 8.85185 16.4405 22.1005 10.9604 26.8244C14.9056 26.0571 21.5848 17.7602 21.5848 11.1179C21.5848 7.76079 19.7142 4.39168 16.7762 3.75623Z" fill="#4CBD94"/>
<path d="M10.5645 2.48546C9.59316 2.28164 8.23812 2.24567 7.02698 2.62934C1.99055 4.35585 -3.86238e-05 13.48 3.65737 20.9976C4.42483 22.1486 5.26423 23.2157 6.10364 24.1269C2.13445 14.8828 5.01241 4.19999 10.5645 2.48546Z" fill="#333399"/>
<path d="M13.7424 4.0083C8.94578 5.78278 4.80871 13.8279 8.99375 26.5969C17.6156 15.7582 17.6396 7.40139 13.7424 4.0083Z" fill="#EB5F59"/>
<path d="M13.7422 4.00789C12.8668 3.24055 11.7876 2.725 10.5644 2.49719C5.01236 4.19973 2.1344 14.8826 6.10359 24.1266C7.01494 25.1098 8.15414 26.045 8.99354 26.5845C4.77253 13.7315 9.01752 5.73441 13.7422 4.00789Z" fill="#EB5F59"/>
<path d="M12.7469 31.4769C11.8595 32.436 9.43725 32.3521 8.70577 31.4769C8.27408 30.9733 8.39399 29.2348 8.44196 28.7792C8.44196 28.7312 8.51391 28.7072 8.56187 28.7312C9.3653 29.1628 10.1088 29.2228 10.7443 29.2228C11.3799 29.2228 12.1234 29.1748 12.9028 28.7312C12.9508 28.7072 13.0107 28.7312 13.0227 28.7792C13.0587 29.2348 13.2026 30.9733 12.7469 31.4769Z" fill="#37246A"/>
<path opacity="0.5" d="M13.7422 4.00789C12.8668 3.24055 11.7876 2.725 10.5644 2.49719C5.01236 4.19973 2.1344 14.8826 6.10359 24.1266C7.01494 25.1098 8.15414 26.045 8.99354 26.5845C4.77253 13.7315 9.01752 5.73441 13.7422 4.00789Z" fill="#332767"/>
</svg>
