<svg width="18" height="18" viewBox="0 0 18 18" fill="none" xmlns="http://www.w3.org/2000/svg">
<path fill-rule="evenodd" clip-rule="evenodd" d="M8.8059 1.93994C5.0142 1.93994 1.94043 5.01372 1.94043 8.80541C1.94043 12.5971 5.0142 15.6709 8.8059 15.6709C12.5976 15.6709 15.6714 12.5971 15.6714 8.80541C15.6714 5.01372 12.5976 1.93994 8.8059 1.93994ZM0.69043 8.80541C0.69043 4.32336 4.32385 0.689941 8.8059 0.689941C13.2879 0.689941 16.9214 4.32336 16.9214 8.80541C16.9214 13.2875 13.2879 16.9209 8.8059 16.9209C4.32385 16.9209 0.69043 13.2875 0.69043 8.80541Z" fill="#AE9875"/>
<path fill-rule="evenodd" clip-rule="evenodd" d="M13.5731 13.9628C13.8169 13.7184 14.2126 13.7179 14.457 13.9617L17.3937 16.8907C17.6381 17.1345 17.6386 17.5302 17.3949 17.7746C17.1511 18.019 16.7554 18.0195 16.511 17.7758L13.5743 14.8467C13.3299 14.6029 13.3294 14.2072 13.5731 13.9628Z" fill="#AE9875"/>
</svg>
