<svg width="302" height="302" viewBox="0 0 302 302" fill="none" xmlns="http://www.w3.org/2000/svg">
<rect x="1" y="1" width="300" height="300" rx="23" fill="black" stroke="#AE9875" stroke-width="2"/>
<rect x="7" y="7" width="288" height="288" rx="20" fill="#AE9875"/>
<path d="M82.5689 214V192.656H97.1929V195.952H86.3129V201.488H96.9689V204.784H86.3129V210.704H97.1929V214H82.5689ZM119.886 214V203.92C119.886 203.088 119.683 202.416 119.278 201.904C118.894 201.392 118.254 201.136 117.358 201.136C116.611 201.136 115.907 201.36 115.246 201.808C114.606 202.235 114.115 202.693 113.774 203.184V214H110.414V203.92C110.414 203.088 110.211 202.416 109.806 201.904C109.422 201.392 108.771 201.136 107.854 201.136C107.107 201.136 106.414 201.36 105.774 201.808C105.155 202.235 104.664 202.704 104.302 203.216V214H100.942V198.544H104.302V200.656C104.451 200.421 104.686 200.165 105.006 199.888C105.347 199.589 105.731 199.312 106.158 199.056C106.606 198.8 107.096 198.587 107.63 198.416C108.184 198.245 108.75 198.16 109.326 198.16C110.478 198.16 111.406 198.427 112.11 198.96C112.814 199.472 113.294 200.155 113.55 201.008C113.763 200.667 114.051 200.325 114.414 199.984C114.776 199.643 115.182 199.333 115.63 199.056C116.099 198.779 116.6 198.565 117.134 198.416C117.667 198.245 118.222 198.16 118.798 198.16C120.227 198.16 121.326 198.544 122.094 199.312C122.862 200.08 123.246 201.253 123.246 202.832V214H119.886ZM135.918 214.384C134.937 214.384 134.019 214.171 133.166 213.744C132.313 213.317 131.577 212.688 130.958 211.856V219.888H127.598V198.544H130.958V200.656C131.534 199.888 132.249 199.28 133.102 198.832C133.955 198.384 134.894 198.16 135.918 198.16C136.921 198.16 137.838 198.341 138.67 198.704C139.502 199.067 140.217 199.6 140.814 200.304C141.433 200.987 141.913 201.829 142.254 202.832C142.595 203.835 142.766 204.976 142.766 206.256C142.766 207.536 142.595 208.677 142.254 209.68C141.913 210.683 141.433 211.536 140.814 212.24C140.217 212.923 139.502 213.456 138.67 213.84C137.838 214.203 136.921 214.384 135.918 214.384ZM134.926 211.408C136.27 211.408 137.326 210.928 138.094 209.968C138.883 209.008 139.278 207.771 139.278 206.256C139.278 205.509 139.171 204.827 138.958 204.208C138.766 203.568 138.478 203.024 138.094 202.576C137.71 202.128 137.251 201.776 136.718 201.52C136.185 201.264 135.587 201.136 134.926 201.136C134.542 201.136 134.147 201.189 133.742 201.296C133.358 201.403 132.985 201.552 132.622 201.744C132.281 201.936 131.961 202.16 131.662 202.416C131.385 202.672 131.15 202.939 130.958 203.216V209.328C131.15 209.605 131.385 209.872 131.662 210.128C131.961 210.384 132.281 210.608 132.622 210.8C132.985 210.992 133.358 211.141 133.742 211.248C134.147 211.355 134.542 211.408 134.926 211.408ZM146.098 214V192.656H149.458V214H146.098ZM160.793 214.384C159.577 214.384 158.478 214.171 157.497 213.744C156.515 213.317 155.673 212.741 154.969 212.016C154.286 211.269 153.763 210.405 153.401 209.424C153.038 208.421 152.857 207.365 152.857 206.256C152.857 205.147 153.038 204.101 153.401 203.12C153.763 202.139 154.286 201.285 154.969 200.56C155.673 199.813 156.515 199.227 157.497 198.8C158.478 198.373 159.577 198.16 160.793 198.16C162.03 198.16 163.139 198.373 164.121 198.8C165.102 199.227 165.934 199.813 166.617 200.56C167.321 201.285 167.854 202.139 168.217 203.12C168.579 204.101 168.761 205.147 168.761 206.256C168.761 207.365 168.579 208.421 168.217 209.424C167.854 210.405 167.321 211.269 166.617 212.016C165.934 212.741 165.102 213.317 164.121 213.744C163.139 214.171 162.03 214.384 160.793 214.384ZM160.793 211.408C161.518 211.408 162.158 211.269 162.713 210.992C163.267 210.715 163.737 210.341 164.121 209.872C164.505 209.403 164.793 208.859 164.985 208.24C165.177 207.6 165.273 206.939 165.273 206.256C165.273 205.573 165.177 204.923 164.985 204.304C164.793 203.685 164.505 203.141 164.121 202.672C163.737 202.203 163.267 201.829 162.713 201.552C162.158 201.275 161.518 201.136 160.793 201.136C160.089 201.136 159.459 201.275 158.905 201.552C158.35 201.829 157.881 202.203 157.497 202.672C157.113 203.141 156.825 203.685 156.633 204.304C156.441 204.923 156.345 205.573 156.345 206.256C156.345 206.939 156.441 207.6 156.633 208.24C156.825 208.859 157.113 209.403 157.497 209.872C157.881 210.341 158.35 210.715 158.905 210.992C159.459 211.269 160.089 211.408 160.793 211.408ZM172 217.04C172.171 217.125 172.374 217.189 172.608 217.232C172.864 217.275 173.088 217.296 173.28 217.296C173.814 217.296 174.251 217.2 174.592 217.008C174.955 216.816 175.254 216.464 175.488 215.952L176.256 214.192L169.92 198.544H173.504L178.016 210.128L182.528 198.544H186.144L178.688 216.784C178.155 218.107 177.44 219.013 176.544 219.504C175.648 219.995 174.592 220.251 173.376 220.272C173.142 220.272 172.822 220.251 172.416 220.208C172.032 220.165 171.723 220.112 171.488 220.048L172 217.04ZM195.39 214.384C194.238 214.384 193.161 214.192 192.158 213.808C191.177 213.424 190.323 212.88 189.598 212.176C188.873 211.451 188.307 210.587 187.902 209.584C187.497 208.581 187.294 207.472 187.294 206.256C187.294 205.147 187.486 204.101 187.87 203.12C188.254 202.117 188.787 201.253 189.47 200.528C190.174 199.803 191.006 199.227 191.966 198.8C192.926 198.373 193.982 198.16 195.134 198.16C196.286 198.16 197.331 198.373 198.27 198.8C199.209 199.205 200.009 199.792 200.67 200.56C201.331 201.307 201.843 202.192 202.206 203.216C202.569 204.24 202.75 205.36 202.75 206.576V207.376H190.814C190.878 207.952 191.027 208.507 191.262 209.04C191.518 209.552 191.849 210 192.254 210.384C192.681 210.768 193.182 211.077 193.758 211.312C194.355 211.525 195.017 211.632 195.742 211.632C196.489 211.632 197.267 211.493 198.078 211.216C198.889 210.917 199.571 210.491 200.126 209.936L201.662 212.144C200.894 212.891 199.966 213.456 198.878 213.84C197.79 214.203 196.627 214.384 195.39 214.384ZM199.486 205.008C199.465 204.56 199.369 204.091 199.198 203.6C199.027 203.109 198.761 202.672 198.398 202.288C198.057 201.883 197.619 201.552 197.086 201.296C196.553 201.04 195.902 200.912 195.134 200.912C194.409 200.912 193.779 201.04 193.246 201.296C192.734 201.531 192.297 201.851 191.934 202.256C191.593 202.64 191.326 203.077 191.134 203.568C190.942 204.059 190.825 204.539 190.782 205.008H199.486ZM213.203 214.384C212.051 214.384 210.973 214.192 209.971 213.808C208.989 213.424 208.136 212.88 207.411 212.176C206.685 211.451 206.12 210.587 205.715 209.584C205.309 208.581 205.107 207.472 205.107 206.256C205.107 205.147 205.299 204.101 205.683 203.12C206.067 202.117 206.6 201.253 207.283 200.528C207.987 199.803 208.819 199.227 209.779 198.8C210.739 198.373 211.795 198.16 212.947 198.16C214.099 198.16 215.144 198.373 216.083 198.8C217.021 199.205 217.821 199.792 218.483 200.56C219.144 201.307 219.656 202.192 220.019 203.216C220.381 204.24 220.563 205.36 220.563 206.576V207.376H208.627C208.691 207.952 208.84 208.507 209.075 209.04C209.331 209.552 209.661 210 210.067 210.384C210.493 210.768 210.995 211.077 211.571 211.312C212.168 211.525 212.829 211.632 213.555 211.632C214.301 211.632 215.08 211.493 215.891 211.216C216.701 210.917 217.384 210.491 217.939 209.936L219.475 212.144C218.707 212.891 217.779 213.456 216.691 213.84C215.603 214.203 214.44 214.384 213.203 214.384ZM217.299 205.008C217.277 204.56 217.181 204.091 217.011 203.6C216.84 203.109 216.573 202.672 216.211 202.288C215.869 201.883 215.432 201.552 214.899 201.296C214.365 201.04 213.715 200.912 212.947 200.912C212.221 200.912 211.592 201.04 211.059 201.296C210.547 201.531 210.109 201.851 209.747 202.256C209.405 202.64 209.139 203.077 208.947 203.568C208.755 204.059 208.637 204.539 208.595 205.008H217.299ZM62.4908 252V230.656H77.1147V233.952H66.2348V239.488H76.8908V242.784H66.2348V248.704H77.1147V252H62.4908ZM91.2955 252V242.336C91.2955 241.141 91.0075 240.309 90.4315 239.84C89.8768 239.371 89.1302 239.136 88.1915 239.136C87.3168 239.136 86.5275 239.349 85.8235 239.776C85.1408 240.203 84.6075 240.683 84.2235 241.216V252H80.8635V236.544H84.2235V238.656C84.4795 238.357 84.7888 238.059 85.1515 237.76C85.5355 237.461 85.9515 237.195 86.3995 236.96C86.8688 236.725 87.3702 236.533 87.9035 236.384C88.4582 236.235 89.0448 236.16 89.6635 236.16C91.3275 236.16 92.5755 236.587 93.4075 237.44C94.2395 238.293 94.6555 239.52 94.6555 241.12V252H91.2955ZM105.292 258.272C103.969 258.272 102.796 258.101 101.772 257.76C100.769 257.44 99.7878 256.843 98.8278 255.968L100.396 253.536C101.014 254.261 101.729 254.773 102.54 255.072C103.35 255.371 104.268 255.52 105.292 255.52C105.846 255.52 106.39 255.445 106.924 255.296C107.478 255.168 107.969 254.933 108.396 254.592C108.844 254.272 109.196 253.845 109.452 253.312C109.729 252.779 109.868 252.117 109.868 251.328V249.472C109.27 250.24 108.545 250.859 107.692 251.328C106.86 251.797 105.932 252.032 104.908 252.032C103.926 252.032 103.009 251.861 102.156 251.52C101.324 251.157 100.598 250.645 99.9798 249.984C99.3824 249.301 98.9131 248.469 98.5718 247.488C98.2304 246.507 98.0598 245.376 98.0598 244.096C98.0598 242.859 98.2304 241.749 98.5718 240.768C98.9131 239.765 99.3824 238.933 99.9798 238.272C100.598 237.589 101.324 237.067 102.156 236.704C102.988 236.341 103.905 236.16 104.908 236.16C105.889 236.16 106.806 236.384 107.66 236.832C108.513 237.259 109.249 237.877 109.868 238.688V236.544H113.228V251.2C113.228 252.587 112.993 253.739 112.524 254.656C112.054 255.573 111.436 256.299 110.668 256.832C109.921 257.365 109.078 257.739 108.14 257.952C107.201 258.165 106.252 258.272 105.292 258.272ZM105.9 249.056C106.284 249.056 106.668 249.003 107.052 248.896C107.457 248.789 107.83 248.64 108.172 248.448C108.534 248.256 108.854 248.043 109.132 247.808C109.43 247.552 109.676 247.275 109.868 246.976V241.216C109.676 240.939 109.43 240.672 109.132 240.416C108.854 240.16 108.534 239.936 108.172 239.744C107.83 239.552 107.457 239.403 107.052 239.296C106.668 239.189 106.284 239.136 105.9 239.136C104.556 239.136 103.489 239.595 102.7 240.512C101.932 241.408 101.548 242.603 101.548 244.096C101.548 245.589 101.932 246.795 102.7 247.712C103.489 248.608 104.556 249.056 105.9 249.056ZM127.022 252V250.336C126.446 250.997 125.721 251.509 124.846 251.872C123.993 252.213 123.054 252.384 122.03 252.384C121.39 252.384 120.75 252.277 120.11 252.064C119.47 251.851 118.894 251.531 118.382 251.104C117.87 250.677 117.454 250.144 117.134 249.504C116.814 248.864 116.654 248.117 116.654 247.264C116.654 246.368 116.814 245.611 117.134 244.992C117.454 244.352 117.87 243.829 118.382 243.424C118.894 243.019 119.47 242.72 120.11 242.528C120.75 242.336 121.39 242.24 122.03 242.24C123.076 242.24 124.025 242.411 124.878 242.752C125.753 243.072 126.468 243.563 127.022 244.224V241.92C127.022 241.024 126.692 240.32 126.03 239.808C125.369 239.296 124.494 239.04 123.406 239.04C121.678 239.04 120.153 239.691 118.83 240.992L117.454 238.656C118.35 237.803 119.342 237.173 120.43 236.768C121.54 236.363 122.713 236.16 123.95 236.16C124.804 236.16 125.614 236.256 126.382 236.448C127.172 236.64 127.854 236.96 128.43 237.408C129.028 237.835 129.497 238.411 129.838 239.136C130.201 239.84 130.382 240.715 130.382 241.76V252H127.022ZM123.342 250.08C124.089 250.08 124.793 249.952 125.454 249.696C126.116 249.419 126.638 249.013 127.022 248.48V246.144C126.638 245.611 126.116 245.216 125.454 244.96C124.793 244.683 124.089 244.544 123.342 244.544C122.382 244.544 121.593 244.8 120.974 245.312C120.356 245.803 120.046 246.475 120.046 247.328C120.046 248.16 120.356 248.832 120.974 249.344C121.593 249.835 122.382 250.08 123.342 250.08ZM141.01 258.272C139.688 258.272 138.515 258.101 137.491 257.76C136.488 257.44 135.507 256.843 134.547 255.968L136.115 253.536C136.733 254.261 137.448 254.773 138.259 255.072C139.069 255.371 139.987 255.52 141.01 255.52C141.565 255.52 142.109 255.445 142.643 255.296C143.197 255.168 143.688 254.933 144.115 254.592C144.563 254.272 144.915 253.845 145.171 253.312C145.448 252.779 145.587 252.117 145.587 251.328V249.472C144.989 250.24 144.264 250.859 143.411 251.328C142.579 251.797 141.651 252.032 140.627 252.032C139.645 252.032 138.728 251.861 137.875 251.52C137.043 251.157 136.317 250.645 135.699 249.984C135.101 249.301 134.632 248.469 134.291 247.488C133.949 246.507 133.779 245.376 133.779 244.096C133.779 242.859 133.949 241.749 134.291 240.768C134.632 239.765 135.101 238.933 135.699 238.272C136.317 237.589 137.043 237.067 137.875 236.704C138.707 236.341 139.624 236.16 140.627 236.16C141.608 236.16 142.525 236.384 143.379 236.832C144.232 237.259 144.968 237.877 145.587 238.688V236.544H148.947V251.2C148.947 252.587 148.712 253.739 148.243 254.656C147.773 255.573 147.155 256.299 146.387 256.832C145.64 257.365 144.797 257.739 143.859 257.952C142.92 258.165 141.971 258.272 141.01 258.272ZM141.619 249.056C142.003 249.056 142.387 249.003 142.771 248.896C143.176 248.789 143.549 248.64 143.891 248.448C144.253 248.256 144.573 248.043 144.851 247.808C145.149 247.552 145.395 247.275 145.587 246.976V241.216C145.395 240.939 145.149 240.672 144.851 240.416C144.573 240.16 144.253 239.936 143.891 239.744C143.549 239.552 143.176 239.403 142.771 239.296C142.387 239.189 142.003 239.136 141.619 239.136C140.275 239.136 139.208 239.595 138.419 240.512C137.651 241.408 137.266 242.603 137.266 244.096C137.266 245.589 137.651 246.795 138.419 247.712C139.208 248.608 140.275 249.056 141.619 249.056ZM160.437 252.384C159.285 252.384 158.208 252.192 157.205 251.808C156.224 251.424 155.37 250.88 154.645 250.176C153.92 249.451 153.354 248.587 152.949 247.584C152.544 246.581 152.341 245.472 152.341 244.256C152.341 243.147 152.533 242.101 152.917 241.12C153.301 240.117 153.834 239.253 154.517 238.528C155.221 237.803 156.053 237.227 157.013 236.8C157.973 236.373 159.029 236.16 160.181 236.16C161.333 236.16 162.378 236.373 163.317 236.8C164.256 237.205 165.056 237.792 165.717 238.56C166.378 239.307 166.89 240.192 167.253 241.216C167.616 242.24 167.797 243.36 167.797 244.576V245.376H155.861C155.925 245.952 156.074 246.507 156.309 247.04C156.565 247.552 156.896 248 157.301 248.384C157.728 248.768 158.229 249.077 158.805 249.312C159.402 249.525 160.064 249.632 160.789 249.632C161.536 249.632 162.314 249.493 163.125 249.216C163.936 248.917 164.618 248.491 165.173 247.936L166.709 250.144C165.941 250.891 165.013 251.456 163.925 251.84C162.837 252.203 161.674 252.384 160.437 252.384ZM164.533 243.008C164.512 242.56 164.416 242.091 164.245 241.6C164.074 241.109 163.808 240.672 163.445 240.288C163.104 239.883 162.666 239.552 162.133 239.296C161.6 239.04 160.949 238.912 160.181 238.912C159.456 238.912 158.826 239.04 158.293 239.296C157.781 239.531 157.344 239.851 156.981 240.256C156.64 240.64 156.373 241.077 156.181 241.568C155.989 242.059 155.872 242.539 155.829 243.008H164.533ZM190.058 252V241.92C190.058 241.088 189.855 240.416 189.45 239.904C189.066 239.392 188.426 239.136 187.53 239.136C186.783 239.136 186.079 239.36 185.418 239.808C184.778 240.235 184.287 240.693 183.946 241.184V252H180.586V241.92C180.586 241.088 180.383 240.416 179.978 239.904C179.594 239.392 178.943 239.136 178.026 239.136C177.279 239.136 176.586 239.36 175.946 239.808C175.327 240.235 174.836 240.704 174.474 241.216V252H171.114V236.544H174.474V238.656C174.623 238.421 174.858 238.165 175.178 237.888C175.519 237.589 175.903 237.312 176.33 237.056C176.778 236.8 177.268 236.587 177.802 236.416C178.356 236.245 178.922 236.16 179.498 236.16C180.65 236.16 181.578 236.427 182.282 236.96C182.986 237.472 183.466 238.155 183.722 239.008C183.935 238.667 184.223 238.325 184.586 237.984C184.948 237.643 185.354 237.333 185.802 237.056C186.271 236.779 186.772 236.565 187.306 236.416C187.839 236.245 188.394 236.16 188.97 236.16C190.399 236.16 191.498 236.544 192.266 237.312C193.034 238.08 193.418 239.253 193.418 240.832V252H190.058ZM204.906 252.384C203.754 252.384 202.676 252.192 201.674 251.808C200.692 251.424 199.839 250.88 199.114 250.176C198.388 249.451 197.823 248.587 197.418 247.584C197.012 246.581 196.81 245.472 196.81 244.256C196.81 243.147 197.002 242.101 197.386 241.12C197.77 240.117 198.303 239.253 198.986 238.528C199.69 237.803 200.522 237.227 201.482 236.8C202.442 236.373 203.498 236.16 204.65 236.16C205.802 236.16 206.847 236.373 207.786 236.8C208.724 237.205 209.524 237.792 210.186 238.56C210.847 239.307 211.359 240.192 211.722 241.216C212.084 242.24 212.266 243.36 212.266 244.576V245.376H200.33C200.394 245.952 200.543 246.507 200.778 247.04C201.034 247.552 201.364 248 201.77 248.384C202.196 248.768 202.698 249.077 203.274 249.312C203.871 249.525 204.532 249.632 205.258 249.632C206.004 249.632 206.783 249.493 207.594 249.216C208.404 248.917 209.087 248.491 209.642 247.936L211.178 250.144C210.41 250.891 209.482 251.456 208.394 251.84C207.306 252.203 206.143 252.384 204.906 252.384ZM209.002 243.008C208.98 242.56 208.884 242.091 208.714 241.6C208.543 241.109 208.276 240.672 207.914 240.288C207.572 239.883 207.135 239.552 206.602 239.296C206.068 239.04 205.418 238.912 204.65 238.912C203.924 238.912 203.295 239.04 202.762 239.296C202.25 239.531 201.812 239.851 201.45 240.256C201.108 240.64 200.842 241.077 200.65 241.568C200.458 242.059 200.34 242.539 200.298 243.008H209.002ZM226.014 252V242.336C226.014 241.141 225.726 240.309 225.15 239.84C224.596 239.371 223.849 239.136 222.91 239.136C222.036 239.136 221.246 239.349 220.542 239.776C219.86 240.203 219.326 240.683 218.942 241.216V252H215.582V236.544H218.942V238.656C219.198 238.357 219.508 238.059 219.87 237.76C220.254 237.461 220.67 237.195 221.118 236.96C221.588 236.725 222.089 236.533 222.622 236.384C223.177 236.235 223.764 236.16 224.382 236.16C226.046 236.16 227.294 236.587 228.126 237.44C228.958 238.293 229.374 239.52 229.374 241.12V252H226.014ZM238.379 252.384C237.077 252.384 236.085 252.043 235.403 251.36C234.741 250.677 234.411 249.696 234.411 248.416V239.488H231.851V236.544H234.411V232.32H237.771V236.544H240.907V239.488H237.771V247.584C237.771 248.117 237.888 248.555 238.123 248.896C238.379 249.237 238.752 249.408 239.243 249.408C239.563 249.408 239.861 249.355 240.139 249.248C240.416 249.141 240.619 249.013 240.747 248.864L241.547 251.392C241.248 251.691 240.843 251.925 240.331 252.096C239.819 252.288 239.168 252.384 238.379 252.384Z" fill="#FAFAFA"/>
<path d="M189.799 143.012H186.193L153.494 100.13V92.2259H165.652C168.116 92.2259 170.117 90.2222 170.117 87.7613V80.4642C170.117 78.0032 168.113 75.9995 165.652 75.9995H151C149.622 75.9995 148.505 77.1164 148.505 78.4938V89.7345V100.133L115.806 143.012H112.2C110.823 143.012 109.706 144.128 109.706 145.506C109.706 146.883 110.823 148 112.2 148H189.799C191.176 148 192.293 146.883 192.293 145.506C192.293 144.128 191.176 143.012 189.799 143.012ZM153.494 80.988H165.125V87.2402H153.494V80.988ZM151 105.085L158.859 115.392C153.946 117.626 148.056 117.626 143.143 115.392L151 105.085ZM122.08 143.012L140.086 119.399C143.437 121.148 147.15 122.113 151 122.113C154.849 122.113 158.563 121.148 161.913 119.399L179.919 143.012H122.08Z" fill="white"/>
</svg>
