<svg width="302" height="302" viewBox="0 0 302 302" fill="none" xmlns="http://www.w3.org/2000/svg">
<rect x="1" y="1" width="300" height="300" rx="23" fill="black" stroke="#AE9875" stroke-width="2"/>
<rect x="7" y="7" width="288" height="288" rx="20" fill="#AE9875"/>
<path d="M61.8345 214V192.656H71.2105C72.3198 192.656 73.3118 192.837 74.1865 193.2C75.0612 193.563 75.7865 194.053 76.3625 194.672C76.9598 195.269 77.4078 195.973 77.7065 196.784C78.0265 197.595 78.1865 198.448 78.1865 199.344C78.1865 200.24 78.0265 201.093 77.7065 201.904C77.4078 202.715 76.9598 203.429 76.3625 204.048C75.7652 204.645 75.0292 205.125 74.1545 205.488C73.3012 205.851 72.3198 206.032 71.2105 206.032H65.5785V214H61.8345ZM70.6985 202.736C71.7652 202.736 72.6398 202.427 73.3225 201.808C74.0052 201.189 74.3465 200.368 74.3465 199.344C74.3465 198.32 74.0052 197.499 73.3225 196.88C72.6398 196.261 71.7652 195.952 70.6985 195.952H65.5785V202.736H70.6985ZM87.8745 214.384C86.7225 214.384 85.6452 214.192 84.6425 213.808C83.6612 213.424 82.8078 212.88 82.0825 212.176C81.3572 211.451 80.7918 210.587 80.3865 209.584C79.9812 208.581 79.7785 207.472 79.7785 206.256C79.7785 205.147 79.9705 204.101 80.3545 203.12C80.7385 202.117 81.2718 201.253 81.9545 200.528C82.6585 199.803 83.4905 199.227 84.4505 198.8C85.4105 198.373 86.4665 198.16 87.6185 198.16C88.7705 198.16 89.8158 198.373 90.7545 198.8C91.6932 199.205 92.4932 199.792 93.1545 200.56C93.8158 201.307 94.3278 202.192 94.6905 203.216C95.0532 204.24 95.2345 205.36 95.2345 206.576V207.376H83.2985C83.3625 207.952 83.5118 208.507 83.7465 209.04C84.0025 209.552 84.3332 210 84.7385 210.384C85.1652 210.768 85.6665 211.077 86.2425 211.312C86.8398 211.525 87.5012 211.632 88.2265 211.632C88.9732 211.632 89.7518 211.493 90.5625 211.216C91.3732 210.917 92.0558 210.491 92.6105 209.936L94.1465 212.144C93.3785 212.891 92.4505 213.456 91.3625 213.84C90.2745 214.203 89.1118 214.384 87.8745 214.384ZM91.9705 205.008C91.9492 204.56 91.8532 204.091 91.6825 203.6C91.5118 203.109 91.2452 202.672 90.8825 202.288C90.5412 201.883 90.1038 201.552 89.5705 201.296C89.0372 201.04 88.3865 200.912 87.6185 200.912C86.8932 200.912 86.2638 201.04 85.7305 201.296C85.2185 201.531 84.7812 201.851 84.4185 202.256C84.0772 202.64 83.8105 203.077 83.6185 203.568C83.4265 204.059 83.3092 204.539 83.2665 205.008H91.9705ZM98.551 214V198.544H101.911V200.816C102.487 200.069 103.212 199.451 104.087 198.96C104.962 198.448 105.911 198.192 106.935 198.192V201.52C106.636 201.456 106.284 201.424 105.879 201.424C105.516 201.424 105.143 201.477 104.759 201.584C104.375 201.691 103.991 201.84 103.607 202.032C103.244 202.224 102.914 202.448 102.615 202.704C102.316 202.939 102.082 203.195 101.911 203.472V214H98.551ZM110.445 214V201.488H107.885V198.544H110.445V197.68C110.445 195.995 110.893 194.683 111.789 193.744C112.685 192.805 113.869 192.336 115.341 192.336C116.023 192.336 116.685 192.443 117.325 192.656C117.986 192.848 118.562 193.189 119.053 193.68L117.741 195.76C117.506 195.547 117.239 195.387 116.941 195.28C116.663 195.152 116.333 195.088 115.949 195.088C115.287 195.088 114.765 195.301 114.381 195.728C113.997 196.155 113.805 196.805 113.805 197.68V198.544H116.941V201.488H113.805V214H110.445ZM126.465 214.384C125.249 214.384 124.15 214.171 123.169 213.744C122.187 213.317 121.345 212.741 120.641 212.016C119.958 211.269 119.435 210.405 119.073 209.424C118.71 208.421 118.529 207.365 118.529 206.256C118.529 205.147 118.71 204.101 119.073 203.12C119.435 202.139 119.958 201.285 120.641 200.56C121.345 199.813 122.187 199.227 123.169 198.8C124.15 198.373 125.249 198.16 126.465 198.16C127.702 198.16 128.811 198.373 129.793 198.8C130.774 199.227 131.606 199.813 132.289 200.56C132.993 201.285 133.526 202.139 133.889 203.12C134.251 204.101 134.433 205.147 134.433 206.256C134.433 207.365 134.251 208.421 133.889 209.424C133.526 210.405 132.993 211.269 132.289 212.016C131.606 212.741 130.774 213.317 129.793 213.744C128.811 214.171 127.702 214.384 126.465 214.384ZM126.465 211.408C127.19 211.408 127.83 211.269 128.385 210.992C128.939 210.715 129.409 210.341 129.793 209.872C130.177 209.403 130.465 208.859 130.657 208.24C130.849 207.6 130.945 206.939 130.945 206.256C130.945 205.573 130.849 204.923 130.657 204.304C130.465 203.685 130.177 203.141 129.793 202.672C129.409 202.203 128.939 201.829 128.385 201.552C127.83 201.275 127.19 201.136 126.465 201.136C125.761 201.136 125.131 201.275 124.577 201.552C124.022 201.829 123.553 202.203 123.169 202.672C122.785 203.141 122.497 203.685 122.305 204.304C122.113 204.923 122.016 205.573 122.016 206.256C122.016 206.939 122.113 207.6 122.305 208.24C122.497 208.859 122.785 209.403 123.169 209.872C123.553 210.341 124.022 210.715 124.577 210.992C125.131 211.269 125.761 211.408 126.465 211.408ZM137.832 214V198.544H141.192V200.816C141.768 200.069 142.494 199.451 143.368 198.96C144.243 198.448 145.192 198.192 146.216 198.192V201.52C145.918 201.456 145.566 201.424 145.16 201.424C144.798 201.424 144.424 201.477 144.04 201.584C143.656 201.691 143.272 201.84 142.888 202.032C142.526 202.224 142.195 202.448 141.896 202.704C141.598 202.939 141.363 203.195 141.192 203.472V214H137.832ZM167.87 214V203.92C167.87 203.088 167.667 202.416 167.262 201.904C166.878 201.392 166.238 201.136 165.342 201.136C164.595 201.136 163.891 201.36 163.23 201.808C162.59 202.235 162.099 202.693 161.758 203.184V214H158.398V203.92C158.398 203.088 158.195 202.416 157.79 201.904C157.406 201.392 156.755 201.136 155.838 201.136C155.091 201.136 154.398 201.36 153.758 201.808C153.139 202.235 152.649 202.704 152.286 203.216V214H148.926V198.544H152.286V200.656C152.435 200.421 152.67 200.165 152.99 199.888C153.331 199.589 153.715 199.312 154.142 199.056C154.59 198.8 155.081 198.587 155.614 198.416C156.169 198.245 156.734 198.16 157.31 198.16C158.462 198.16 159.39 198.427 160.094 198.96C160.798 199.472 161.278 200.155 161.534 201.008C161.747 200.667 162.035 200.325 162.398 199.984C162.761 199.643 163.166 199.333 163.614 199.056C164.083 198.779 164.585 198.565 165.118 198.416C165.651 198.245 166.206 198.16 166.782 198.16C168.211 198.16 169.31 198.544 170.078 199.312C170.846 200.08 171.23 201.253 171.23 202.832V214H167.87ZM185.022 214V212.336C184.446 212.997 183.721 213.509 182.846 213.872C181.993 214.213 181.054 214.384 180.03 214.384C179.39 214.384 178.75 214.277 178.11 214.064C177.47 213.851 176.894 213.531 176.382 213.104C175.87 212.677 175.454 212.144 175.134 211.504C174.814 210.864 174.654 210.117 174.654 209.264C174.654 208.368 174.814 207.611 175.134 206.992C175.454 206.352 175.87 205.829 176.382 205.424C176.894 205.019 177.47 204.72 178.11 204.528C178.75 204.336 179.39 204.24 180.03 204.24C181.076 204.24 182.025 204.411 182.878 204.752C183.753 205.072 184.468 205.563 185.022 206.224V203.92C185.022 203.024 184.692 202.32 184.03 201.808C183.369 201.296 182.494 201.04 181.406 201.04C179.678 201.04 178.153 201.691 176.83 202.992L175.454 200.656C176.35 199.803 177.342 199.173 178.43 198.768C179.54 198.363 180.713 198.16 181.95 198.16C182.804 198.16 183.614 198.256 184.382 198.448C185.172 198.64 185.854 198.96 186.43 199.408C187.028 199.835 187.497 200.411 187.838 201.136C188.201 201.84 188.382 202.715 188.382 203.76V214H185.022ZM181.342 212.08C182.089 212.08 182.793 211.952 183.454 211.696C184.116 211.419 184.638 211.013 185.022 210.48V208.144C184.638 207.611 184.116 207.216 183.454 206.96C182.793 206.683 182.089 206.544 181.342 206.544C180.382 206.544 179.593 206.8 178.974 207.312C178.356 207.803 178.046 208.475 178.046 209.328C178.046 210.16 178.356 210.832 178.974 211.344C179.593 211.835 180.382 212.08 181.342 212.08ZM203.171 214V204.336C203.171 203.141 202.883 202.309 202.307 201.84C201.752 201.371 201.005 201.136 200.067 201.136C199.192 201.136 198.403 201.349 197.699 201.776C197.016 202.203 196.483 202.683 196.099 203.216V214H192.739V198.544H196.099V200.656C196.355 200.357 196.664 200.059 197.027 199.76C197.411 199.461 197.827 199.195 198.275 198.96C198.744 198.725 199.245 198.533 199.779 198.384C200.333 198.235 200.92 198.16 201.539 198.16C203.203 198.16 204.451 198.587 205.283 199.44C206.115 200.293 206.531 201.52 206.531 203.12V214H203.171ZM217.935 214.384C216.761 214.384 215.684 214.181 214.703 213.776C213.721 213.371 212.879 212.805 212.175 212.08C211.471 211.355 210.916 210.501 210.511 209.52C210.127 208.517 209.935 207.429 209.935 206.256C209.935 205.083 210.127 204.005 210.511 203.024C210.916 202.043 211.471 201.189 212.175 200.464C212.879 199.739 213.721 199.173 214.703 198.768C215.684 198.363 216.761 198.16 217.935 198.16C219.449 198.16 220.676 198.437 221.615 198.992C222.553 199.525 223.3 200.165 223.855 200.912L221.647 202.96C220.772 201.744 219.588 201.136 218.095 201.136C217.391 201.136 216.751 201.264 216.175 201.52C215.599 201.776 215.108 202.128 214.703 202.576C214.297 203.024 213.977 203.568 213.743 204.208C213.529 204.827 213.423 205.509 213.423 206.256C213.423 207.003 213.529 207.696 213.743 208.336C213.977 208.955 214.297 209.499 214.703 209.968C215.108 210.416 215.599 210.768 216.175 211.024C216.751 211.28 217.391 211.408 218.095 211.408C219.567 211.408 220.751 210.8 221.647 209.584L223.855 211.632C223.3 212.379 222.553 213.029 221.615 213.584C220.676 214.117 219.449 214.384 217.935 214.384ZM233.937 214.384C232.785 214.384 231.708 214.192 230.705 213.808C229.724 213.424 228.87 212.88 228.145 212.176C227.42 211.451 226.854 210.587 226.449 209.584C226.044 208.581 225.841 207.472 225.841 206.256C225.841 205.147 226.033 204.101 226.417 203.12C226.801 202.117 227.334 201.253 228.017 200.528C228.721 199.803 229.553 199.227 230.513 198.8C231.473 198.373 232.529 198.16 233.681 198.16C234.833 198.16 235.878 198.373 236.817 198.8C237.756 199.205 238.556 199.792 239.217 200.56C239.878 201.307 240.39 202.192 240.753 203.216C241.116 204.24 241.297 205.36 241.297 206.576V207.376H229.361C229.425 207.952 229.574 208.507 229.809 209.04C230.065 209.552 230.396 210 230.801 210.384C231.228 210.768 231.729 211.077 232.305 211.312C232.902 211.525 233.564 211.632 234.289 211.632C235.036 211.632 235.814 211.493 236.625 211.216C237.436 210.917 238.118 210.491 238.673 209.936L240.209 212.144C239.441 212.891 238.513 213.456 237.425 213.84C236.337 214.203 235.174 214.384 233.937 214.384ZM238.033 205.008C238.012 204.56 237.916 204.091 237.745 203.6C237.574 203.109 237.308 202.672 236.945 202.288C236.604 201.883 236.166 201.552 235.633 201.296C235.1 201.04 234.449 200.912 233.681 200.912C232.956 200.912 232.326 201.04 231.793 201.296C231.281 201.531 230.844 201.851 230.481 202.256C230.14 202.64 229.873 203.077 229.681 203.568C229.489 204.059 229.372 204.539 229.329 205.008H238.033ZM77.5009 252V236.16L70.9409 252H69.3409L62.8129 236.16V252H59.0689V230.656H64.3489L70.1409 244.704L75.9649 230.656H81.2449V252H77.5009ZM95.1316 252V250.336C94.5556 250.997 93.8303 251.509 92.9556 251.872C92.1023 252.213 91.1636 252.384 90.1396 252.384C89.4996 252.384 88.8596 252.277 88.2196 252.064C87.5796 251.851 87.0036 251.531 86.4916 251.104C85.9796 250.677 85.5636 250.144 85.2436 249.504C84.9236 248.864 84.7636 248.117 84.7636 247.264C84.7636 246.368 84.9236 245.611 85.2436 244.992C85.5636 244.352 85.9796 243.829 86.4916 243.424C87.0036 243.019 87.5796 242.72 88.2196 242.528C88.8596 242.336 89.4996 242.24 90.1396 242.24C91.185 242.24 92.1343 242.411 92.9876 242.752C93.8623 243.072 94.577 243.563 95.1316 244.224V241.92C95.1316 241.024 94.801 240.32 94.1396 239.808C93.4783 239.296 92.6036 239.04 91.5156 239.04C89.7876 239.04 88.2623 239.691 86.9396 240.992L85.5636 238.656C86.4596 237.803 87.4516 237.173 88.5396 236.768C89.649 236.363 90.8223 236.16 92.0596 236.16C92.913 236.16 93.7236 236.256 94.4916 236.448C95.281 236.64 95.9636 236.96 96.5396 237.408C97.137 237.835 97.6063 238.411 97.9476 239.136C98.3103 239.84 98.4916 240.715 98.4916 241.76V252H95.1316ZM91.4516 250.08C92.1983 250.08 92.9023 249.952 93.5636 249.696C94.225 249.419 94.7476 249.013 95.1316 248.48V246.144C94.7476 245.611 94.225 245.216 93.5636 244.96C92.9023 244.683 92.1983 244.544 91.4516 244.544C90.4916 244.544 89.7023 244.8 89.0836 245.312C88.465 245.803 88.1556 246.475 88.1556 247.328C88.1556 248.16 88.465 248.832 89.0836 249.344C89.7023 249.835 90.4916 250.08 91.4516 250.08ZM113.28 252V242.336C113.28 241.141 112.992 240.309 112.416 239.84C111.861 239.371 111.115 239.136 110.176 239.136C109.301 239.136 108.512 239.349 107.808 239.776C107.125 240.203 106.592 240.683 106.208 241.216V252H102.848V236.544H106.208V238.656C106.464 238.357 106.773 238.059 107.136 237.76C107.52 237.461 107.936 237.195 108.384 236.96C108.853 236.725 109.355 236.533 109.888 236.384C110.443 236.235 111.029 236.16 111.648 236.16C113.312 236.16 114.56 236.587 115.392 237.44C116.224 238.293 116.64 239.52 116.64 241.12V252H113.28ZM130.444 252V250.336C129.868 250.997 129.143 251.509 128.268 251.872C127.415 252.213 126.476 252.384 125.452 252.384C124.812 252.384 124.172 252.277 123.532 252.064C122.892 251.851 122.316 251.531 121.804 251.104C121.292 250.677 120.876 250.144 120.556 249.504C120.236 248.864 120.076 248.117 120.076 247.264C120.076 246.368 120.236 245.611 120.556 244.992C120.876 244.352 121.292 243.829 121.804 243.424C122.316 243.019 122.892 242.72 123.532 242.528C124.172 242.336 124.812 242.24 125.452 242.24C126.497 242.24 127.447 242.411 128.3 242.752C129.175 243.072 129.889 243.563 130.444 244.224V241.92C130.444 241.024 130.113 240.32 129.452 239.808C128.791 239.296 127.916 239.04 126.828 239.04C125.1 239.04 123.575 239.691 122.252 240.992L120.876 238.656C121.772 237.803 122.764 237.173 123.852 236.768C124.961 236.363 126.135 236.16 127.372 236.16C128.225 236.16 129.036 236.256 129.804 236.448C130.593 236.64 131.276 236.96 131.852 237.408C132.449 237.835 132.919 238.411 133.26 239.136C133.623 239.84 133.804 240.715 133.804 241.76V252H130.444ZM126.764 250.08C127.511 250.08 128.215 249.952 128.876 249.696C129.537 249.419 130.06 249.013 130.444 248.48V246.144C130.06 245.611 129.537 245.216 128.876 244.96C128.215 244.683 127.511 244.544 126.764 244.544C125.804 244.544 125.015 244.8 124.396 245.312C123.777 245.803 123.468 246.475 123.468 247.328C123.468 248.16 123.777 248.832 124.396 249.344C125.015 249.835 125.804 250.08 126.764 250.08ZM144.432 258.272C143.11 258.272 141.936 258.101 140.912 257.76C139.91 257.44 138.928 256.843 137.968 255.968L139.536 253.536C140.155 254.261 140.87 254.773 141.68 255.072C142.491 255.371 143.408 255.52 144.432 255.52C144.987 255.52 145.531 255.445 146.064 255.296C146.619 255.168 147.11 254.933 147.536 254.592C147.984 254.272 148.336 253.845 148.592 253.312C148.87 252.779 149.008 252.117 149.008 251.328V249.472C148.411 250.24 147.686 250.859 146.832 251.328C146 251.797 145.072 252.032 144.048 252.032C143.067 252.032 142.15 251.861 141.296 251.52C140.464 251.157 139.739 250.645 139.12 249.984C138.523 249.301 138.054 248.469 137.712 247.488C137.371 246.507 137.2 245.376 137.2 244.096C137.2 242.859 137.371 241.749 137.712 240.768C138.054 239.765 138.523 238.933 139.12 238.272C139.739 237.589 140.464 237.067 141.296 236.704C142.128 236.341 143.046 236.16 144.048 236.16C145.03 236.16 145.947 236.384 146.8 236.832C147.654 237.259 148.39 237.877 149.008 238.688V236.544H152.368V251.2C152.368 252.587 152.134 253.739 151.664 254.656C151.195 255.573 150.576 256.299 149.808 256.832C149.062 257.365 148.219 257.739 147.28 257.952C146.342 258.165 145.392 258.272 144.432 258.272ZM145.04 249.056C145.424 249.056 145.808 249.003 146.192 248.896C146.598 248.789 146.971 248.64 147.312 248.448C147.675 248.256 147.995 248.043 148.272 247.808C148.571 247.552 148.816 247.275 149.008 246.976V241.216C148.816 240.939 148.571 240.672 148.272 240.416C147.995 240.16 147.675 239.936 147.312 239.744C146.971 239.552 146.598 239.403 146.192 239.296C145.808 239.189 145.424 239.136 145.04 239.136C143.696 239.136 142.63 239.595 141.84 240.512C141.072 241.408 140.688 242.603 140.688 244.096C140.688 245.589 141.072 246.795 141.84 247.712C142.63 248.608 143.696 249.056 145.04 249.056ZM163.859 252.384C162.707 252.384 161.63 252.192 160.627 251.808C159.646 251.424 158.792 250.88 158.067 250.176C157.342 249.451 156.776 248.587 156.371 247.584C155.966 246.581 155.763 245.472 155.763 244.256C155.763 243.147 155.955 242.101 156.339 241.12C156.723 240.117 157.256 239.253 157.939 238.528C158.643 237.803 159.475 237.227 160.435 236.8C161.395 236.373 162.451 236.16 163.603 236.16C164.755 236.16 165.8 236.373 166.739 236.8C167.678 237.205 168.478 237.792 169.139 238.56C169.8 239.307 170.312 240.192 170.675 241.216C171.038 242.24 171.219 243.36 171.219 244.576V245.376H159.283C159.347 245.952 159.496 246.507 159.731 247.04C159.987 247.552 160.318 248 160.723 248.384C161.15 248.768 161.651 249.077 162.227 249.312C162.824 249.525 163.486 249.632 164.211 249.632C164.958 249.632 165.736 249.493 166.547 249.216C167.358 248.917 168.04 248.491 168.595 247.936L170.131 250.144C169.363 250.891 168.435 251.456 167.347 251.84C166.259 252.203 165.096 252.384 163.859 252.384ZM167.955 243.008C167.934 242.56 167.838 242.091 167.667 241.6C167.496 241.109 167.23 240.672 166.867 240.288C166.526 239.883 166.088 239.552 165.555 239.296C165.022 239.04 164.371 238.912 163.603 238.912C162.878 238.912 162.248 239.04 161.715 239.296C161.203 239.531 160.766 239.851 160.403 240.256C160.062 240.64 159.795 241.077 159.603 241.568C159.411 242.059 159.294 242.539 159.251 243.008H167.955ZM193.479 252V241.92C193.479 241.088 193.277 240.416 192.871 239.904C192.487 239.392 191.847 239.136 190.951 239.136C190.205 239.136 189.501 239.36 188.839 239.808C188.199 240.235 187.709 240.693 187.367 241.184V252H184.007V241.92C184.007 241.088 183.805 240.416 183.399 239.904C183.015 239.392 182.365 239.136 181.447 239.136C180.701 239.136 180.007 239.36 179.367 239.808C178.749 240.235 178.258 240.704 177.895 241.216V252H174.535V236.544H177.895V238.656C178.045 238.421 178.279 238.165 178.599 237.888C178.941 237.589 179.325 237.312 179.751 237.056C180.199 236.8 180.69 236.587 181.223 236.416C181.778 236.245 182.343 236.16 182.919 236.16C184.071 236.16 184.999 236.427 185.703 236.96C186.407 237.472 186.887 238.155 187.143 239.008C187.357 238.667 187.645 238.325 188.007 237.984C188.37 237.643 188.775 237.333 189.223 237.056C189.693 236.779 190.194 236.565 190.727 236.416C191.261 236.245 191.815 236.16 192.391 236.16C193.821 236.16 194.919 236.544 195.687 237.312C196.455 238.08 196.839 239.253 196.839 240.832V252H193.479ZM208.328 252.384C207.176 252.384 206.098 252.192 205.096 251.808C204.114 251.424 203.261 250.88 202.536 250.176C201.81 249.451 201.245 248.587 200.84 247.584C200.434 246.581 200.232 245.472 200.232 244.256C200.232 243.147 200.424 242.101 200.808 241.12C201.192 240.117 201.725 239.253 202.408 238.528C203.112 237.803 203.944 237.227 204.904 236.8C205.864 236.373 206.92 236.16 208.072 236.16C209.224 236.16 210.269 236.373 211.208 236.8C212.146 237.205 212.946 237.792 213.608 238.56C214.269 239.307 214.781 240.192 215.144 241.216C215.506 242.24 215.688 243.36 215.688 244.576V245.376H203.752C203.816 245.952 203.965 246.507 204.2 247.04C204.456 247.552 204.786 248 205.192 248.384C205.618 248.768 206.12 249.077 206.696 249.312C207.293 249.525 207.954 249.632 208.68 249.632C209.426 249.632 210.205 249.493 211.016 249.216C211.826 248.917 212.509 248.491 213.064 247.936L214.6 250.144C213.832 250.891 212.904 251.456 211.816 251.84C210.728 252.203 209.565 252.384 208.328 252.384ZM212.424 243.008C212.402 242.56 212.306 242.091 212.136 241.6C211.965 241.109 211.698 240.672 211.336 240.288C210.994 239.883 210.557 239.552 210.024 239.296C209.49 239.04 208.84 238.912 208.072 238.912C207.346 238.912 206.717 239.04 206.184 239.296C205.672 239.531 205.234 239.851 204.872 240.256C204.53 240.64 204.264 241.077 204.072 241.568C203.88 242.059 203.762 242.539 203.72 243.008H212.424ZM229.436 252V242.336C229.436 241.141 229.148 240.309 228.572 239.84C228.017 239.371 227.271 239.136 226.332 239.136C225.457 239.136 224.668 239.349 223.964 239.776C223.281 240.203 222.748 240.683 222.364 241.216V252H219.004V236.544H222.364V238.656C222.62 238.357 222.929 238.059 223.292 237.76C223.676 237.461 224.092 237.195 224.54 236.96C225.009 236.725 225.511 236.533 226.044 236.384C226.599 236.235 227.185 236.16 227.804 236.16C229.468 236.16 230.716 236.587 231.548 237.44C232.38 238.293 232.796 239.52 232.796 241.12V252H229.436ZM241.8 252.384C240.499 252.384 239.507 252.043 238.824 251.36C238.163 250.677 237.832 249.696 237.832 248.416V239.488H235.272V236.544H237.832V232.32H241.192V236.544H244.328V239.488H241.192V247.584C241.192 248.117 241.31 248.555 241.544 248.896C241.8 249.237 242.174 249.408 242.664 249.408C242.984 249.408 243.283 249.355 243.56 249.248C243.838 249.141 244.04 249.013 244.168 248.864L244.968 251.392C244.67 251.691 244.264 251.925 243.752 252.096C243.24 252.288 242.59 252.384 241.8 252.384Z" fill="#FAFAFA"/>
<path d="M123.341 113.826C123.937 113.826 124.531 113.608 124.998 113.168L141.935 97.2164C142.061 97.1037 142.241 97.0795 142.383 97.1628L157.057 105.445C159.188 106.639 161.91 106.185 163.521 104.36L180.46 85.2112C181.346 84.2099 181.252 82.685 180.254 81.7991C179.252 80.9159 177.728 81.0072 176.842 82.0059L159.899 101.157C159.781 101.284 159.585 101.326 159.43 101.233L144.756 92.9534C142.761 91.8286 140.292 92.1185 138.619 93.6943L121.68 109.646C120.708 110.561 120.662 112.089 121.578 113.061C122.058 113.568 122.7 113.826 123.341 113.826Z" fill="white"/>
<path d="M188.583 137.976H185.84V106.309C185.84 103.952 183.92 102.033 181.563 102.033H175.748C173.391 102.033 171.472 103.952 171.472 106.309V137.976H167.402V120.223C167.402 117.866 165.483 115.947 163.123 115.947H157.308C154.951 115.947 153.034 117.866 153.034 120.223V137.976H148.962V113.268C148.962 110.91 147.045 108.991 144.686 108.991H138.871C136.514 108.991 134.597 110.91 134.597 113.268V137.976H130.527V124.859C130.527 122.502 128.611 120.583 126.254 120.583H120.436C118.079 120.583 116.162 122.502 116.162 124.859V137.976H113.416C112.082 137.976 111 139.058 111 140.392C111 141.726 112.082 142.808 113.416 142.808H188.583C189.917 142.808 190.999 141.726 190.999 140.392C190.999 139.058 189.917 137.976 188.583 137.976ZM176.307 106.868H181.005V137.976H176.307V106.868ZM157.869 120.782H162.57V137.976H157.869V120.782ZM139.429 113.826H144.13V137.976H139.429V113.826ZM120.995 125.418H125.695V137.976H120.995V125.418Z" fill="white"/>
</svg>
