<svg width="302" height="302" viewBox="0 0 302 302" fill="none" xmlns="http://www.w3.org/2000/svg">
<rect x="1" y="1" width="300" height="300" rx="23" fill="black" stroke="#AE9875" stroke-width="2"/>
<rect x="7" y="7" width="288" height="288" rx="20" fill="#AE9875"/>
<path d="M124.094 214V195.952H117.63V192.656H134.302V195.952H127.838V214H124.094ZM140.98 214.384C139.764 214.384 138.665 214.171 137.684 213.744C136.703 213.317 135.86 212.741 135.156 212.016C134.473 211.269 133.951 210.405 133.588 209.424C133.225 208.421 133.044 207.365 133.044 206.256C133.044 205.147 133.225 204.101 133.588 203.12C133.951 202.139 134.473 201.285 135.156 200.56C135.86 199.813 136.703 199.227 137.684 198.8C138.665 198.373 139.764 198.16 140.98 198.16C142.217 198.16 143.327 198.373 144.308 198.8C145.289 199.227 146.121 199.813 146.804 200.56C147.508 201.285 148.041 202.139 148.404 203.12C148.767 204.101 148.948 205.147 148.948 206.256C148.948 207.365 148.767 208.421 148.404 209.424C148.041 210.405 147.508 211.269 146.804 212.016C146.121 212.741 145.289 213.317 144.308 213.744C143.327 214.171 142.217 214.384 140.98 214.384ZM140.98 211.408C141.705 211.408 142.345 211.269 142.9 210.992C143.455 210.715 143.924 210.341 144.308 209.872C144.692 209.403 144.98 208.859 145.172 208.24C145.364 207.6 145.46 206.939 145.46 206.256C145.46 205.573 145.364 204.923 145.172 204.304C144.98 203.685 144.692 203.141 144.308 202.672C143.924 202.203 143.455 201.829 142.9 201.552C142.345 201.275 141.705 201.136 140.98 201.136C140.276 201.136 139.647 201.275 139.092 201.552C138.537 201.829 138.068 202.203 137.684 202.672C137.3 203.141 137.012 203.685 136.82 204.304C136.628 204.923 136.532 205.573 136.532 206.256C136.532 206.939 136.628 207.6 136.82 208.24C137.012 208.859 137.3 209.403 137.684 209.872C138.068 210.341 138.537 210.715 139.092 210.992C139.647 211.269 140.276 211.408 140.98 211.408ZM156.988 214.384C155.687 214.384 154.695 214.043 154.012 213.36C153.351 212.677 153.02 211.696 153.02 210.416V201.488H150.46V198.544H153.02V194.32H156.38V198.544H159.516V201.488H156.38V209.584C156.38 210.117 156.497 210.555 156.732 210.896C156.988 211.237 157.361 211.408 157.852 211.408C158.172 211.408 158.471 211.355 158.748 211.248C159.025 211.141 159.228 211.013 159.356 210.864L160.156 213.392C159.857 213.691 159.452 213.925 158.94 214.096C158.428 214.288 157.777 214.384 156.988 214.384ZM172.007 214V212.336C171.431 212.997 170.705 213.509 169.831 213.872C168.977 214.213 168.039 214.384 167.015 214.384C166.375 214.384 165.735 214.277 165.095 214.064C164.455 213.851 163.879 213.531 163.367 213.104C162.855 212.677 162.439 212.144 162.119 211.504C161.799 210.864 161.639 210.117 161.639 209.264C161.639 208.368 161.799 207.611 162.119 206.992C162.439 206.352 162.855 205.829 163.367 205.424C163.879 205.019 164.455 204.72 165.095 204.528C165.735 204.336 166.375 204.24 167.015 204.24C168.06 204.24 169.009 204.411 169.863 204.752C170.737 205.072 171.452 205.563 172.007 206.224V203.92C172.007 203.024 171.676 202.32 171.015 201.808C170.353 201.296 169.479 201.04 168.391 201.04C166.663 201.04 165.137 201.691 163.815 202.992L162.439 200.656C163.335 199.803 164.327 199.173 165.415 198.768C166.524 198.363 167.697 198.16 168.935 198.16C169.788 198.16 170.599 198.256 171.367 198.448C172.156 198.64 172.839 198.96 173.415 199.408C174.012 199.835 174.481 200.411 174.823 201.136C175.185 201.84 175.367 202.715 175.367 203.76V214H172.007ZM168.327 212.08C169.073 212.08 169.777 211.952 170.439 211.696C171.1 211.419 171.623 211.013 172.007 210.48V208.144C171.623 207.611 171.1 207.216 170.439 206.96C169.777 206.683 169.073 206.544 168.327 206.544C167.367 206.544 166.577 206.8 165.959 207.312C165.34 207.803 165.031 208.475 165.031 209.328C165.031 210.16 165.34 210.832 165.959 211.344C166.577 211.835 167.367 212.08 168.327 212.08ZM179.723 214V192.656H183.083V214H179.723ZM103.964 252L99.228 244.032H95.516V252H91.772V230.656H101.148C102.193 230.656 103.143 230.827 103.996 231.168C104.871 231.488 105.607 231.947 106.204 232.544C106.823 233.12 107.292 233.824 107.612 234.656C107.953 235.467 108.124 236.363 108.124 237.344C108.124 238.304 107.975 239.147 107.676 239.872C107.399 240.597 107.025 241.227 106.556 241.76C106.087 242.272 105.543 242.688 104.924 243.008C104.327 243.307 103.708 243.509 103.068 243.616L108.284 252H103.964ZM100.636 240.736C101.703 240.736 102.577 240.427 103.26 239.808C103.943 239.189 104.284 238.368 104.284 237.344C104.284 236.32 103.943 235.499 103.26 234.88C102.577 234.261 101.703 233.952 100.636 233.952H95.516V240.736H100.636ZM117.937 252.384C116.785 252.384 115.708 252.192 114.705 251.808C113.724 251.424 112.87 250.88 112.145 250.176C111.42 249.451 110.854 248.587 110.449 247.584C110.044 246.581 109.841 245.472 109.841 244.256C109.841 243.147 110.033 242.101 110.417 241.12C110.801 240.117 111.334 239.253 112.017 238.528C112.721 237.803 113.553 237.227 114.513 236.8C115.473 236.373 116.529 236.16 117.681 236.16C118.833 236.16 119.878 236.373 120.817 236.8C121.756 237.205 122.556 237.792 123.217 238.56C123.878 239.307 124.39 240.192 124.753 241.216C125.116 242.24 125.297 243.36 125.297 244.576V245.376H113.361C113.425 245.952 113.574 246.507 113.809 247.04C114.065 247.552 114.396 248 114.801 248.384C115.228 248.768 115.729 249.077 116.305 249.312C116.902 249.525 117.564 249.632 118.289 249.632C119.036 249.632 119.814 249.493 120.625 249.216C121.436 248.917 122.118 248.491 122.673 247.936L124.209 250.144C123.441 250.891 122.513 251.456 121.425 251.84C120.337 252.203 119.174 252.384 117.937 252.384ZM122.033 243.008C122.012 242.56 121.916 242.091 121.745 241.6C121.574 241.109 121.308 240.672 120.945 240.288C120.604 239.883 120.166 239.552 119.633 239.296C119.1 239.04 118.449 238.912 117.681 238.912C116.956 238.912 116.326 239.04 115.793 239.296C115.281 239.531 114.844 239.851 114.481 240.256C114.14 240.64 113.873 241.077 113.681 241.568C113.489 242.059 113.372 242.539 113.329 243.008H122.033ZM142.086 252L138.502 240.672L134.918 252H131.398L126.598 236.544H130.086L133.35 247.776L137.03 236.544H139.974L143.654 247.776L146.918 236.544H150.406L145.606 252H142.086ZM162.179 252V250.336C161.603 250.997 160.877 251.509 160.003 251.872C159.149 252.213 158.211 252.384 157.187 252.384C156.547 252.384 155.907 252.277 155.266 252.064C154.627 251.851 154.051 251.531 153.539 251.104C153.027 250.677 152.611 250.144 152.291 249.504C151.971 248.864 151.811 248.117 151.811 247.264C151.811 246.368 151.971 245.611 152.291 244.992C152.611 244.352 153.027 243.829 153.539 243.424C154.051 243.019 154.627 242.72 155.266 242.528C155.907 242.336 156.547 242.24 157.187 242.24C158.232 242.24 159.181 242.411 160.035 242.752C160.909 243.072 161.624 243.563 162.179 244.224V241.92C162.179 241.024 161.848 240.32 161.187 239.808C160.525 239.296 159.651 239.04 158.562 239.04C156.835 239.04 155.309 239.691 153.987 240.992L152.611 238.656C153.507 237.803 154.499 237.173 155.587 236.768C156.696 236.363 157.869 236.16 159.107 236.16C159.96 236.16 160.771 236.256 161.539 236.448C162.328 236.64 163.011 236.96 163.587 237.408C164.184 237.835 164.653 238.411 164.995 239.136C165.357 239.84 165.539 240.715 165.539 241.76V252H162.179ZM158.499 250.08C159.245 250.08 159.949 249.952 160.611 249.696C161.272 249.419 161.795 249.013 162.179 248.48V246.144C161.795 245.611 161.272 245.216 160.611 244.96C159.949 244.683 159.245 244.544 158.499 244.544C157.539 244.544 156.749 244.8 156.131 245.312C155.512 245.803 155.203 246.475 155.203 247.328C155.203 248.16 155.512 248.832 156.131 249.344C156.749 249.835 157.539 250.08 158.499 250.08ZM169.895 252V236.544H173.255V238.816C173.831 238.069 174.556 237.451 175.431 236.96C176.305 236.448 177.255 236.192 178.279 236.192V239.52C177.98 239.456 177.628 239.424 177.223 239.424C176.86 239.424 176.487 239.477 176.103 239.584C175.719 239.691 175.335 239.84 174.951 240.032C174.588 240.224 174.257 240.448 173.959 240.704C173.66 240.939 173.425 241.195 173.255 241.472V252H169.895ZM191.869 252V249.888C191.271 250.656 190.546 251.264 189.693 251.712C188.839 252.16 187.911 252.384 186.909 252.384C185.906 252.384 184.989 252.203 184.157 251.84C183.325 251.477 182.599 250.955 181.981 250.272C181.362 249.568 180.882 248.715 180.541 247.712C180.199 246.709 180.029 245.568 180.029 244.288C180.029 243.051 180.199 241.931 180.541 240.928C180.882 239.925 181.351 239.072 181.949 238.368C182.567 237.664 183.293 237.12 184.125 236.736C184.978 236.352 185.906 236.16 186.909 236.16C187.869 236.16 188.775 236.384 189.629 236.832C190.503 237.259 191.25 237.877 191.869 238.688V230.656H195.229V252H191.869ZM187.869 249.408C188.679 249.408 189.447 249.216 190.173 248.832C190.919 248.427 191.485 247.936 191.869 247.36V241.216C191.485 240.64 190.919 240.149 190.173 239.744C189.447 239.339 188.679 239.136 187.869 239.136C186.525 239.136 185.458 239.616 184.669 240.576C183.901 241.536 183.516 242.773 183.516 244.288C183.516 245.035 183.613 245.728 183.805 246.368C184.018 246.987 184.317 247.52 184.701 247.968C185.085 248.416 185.543 248.768 186.077 249.024C186.61 249.28 187.207 249.408 187.869 249.408ZM204.862 252.384C203.54 252.384 202.302 252.181 201.15 251.776C200.02 251.371 199.049 250.773 198.238 249.984L199.774 247.552C200.052 247.829 200.382 248.107 200.766 248.384C201.15 248.64 201.577 248.875 202.046 249.088C202.516 249.28 202.996 249.44 203.486 249.568C203.998 249.675 204.51 249.728 205.022 249.728C206.046 249.728 206.804 249.536 207.294 249.152C207.806 248.768 208.062 248.267 208.062 247.648C208.062 247.136 207.828 246.752 207.358 246.496C206.91 246.24 206.334 246.027 205.63 245.856C204.948 245.685 204.201 245.515 203.39 245.344C202.58 245.173 201.822 244.917 201.118 244.576C200.436 244.235 199.86 243.776 199.39 243.2C198.942 242.624 198.718 241.845 198.718 240.864C198.718 240.224 198.846 239.627 199.102 239.072C199.38 238.496 199.774 237.995 200.286 237.568C200.798 237.141 201.428 236.8 202.174 236.544C202.942 236.288 203.817 236.16 204.798 236.16C206.121 236.16 207.273 236.373 208.254 236.8C209.257 237.205 210.11 237.717 210.814 238.336L209.406 240.704C208.937 240.171 208.297 239.733 207.486 239.392C206.676 239.029 205.79 238.848 204.83 238.848C203.934 238.848 203.23 239.029 202.718 239.392C202.206 239.733 201.95 240.181 201.95 240.736C201.95 241.205 202.174 241.557 202.622 241.792C203.092 242.005 203.668 242.197 204.35 242.368C205.054 242.539 205.812 242.72 206.622 242.912C207.433 243.083 208.18 243.349 208.862 243.712C209.566 244.053 210.142 244.533 210.59 245.152C211.06 245.749 211.294 246.56 211.294 247.584C211.294 248.267 211.156 248.907 210.878 249.504C210.601 250.08 210.185 250.581 209.63 251.008C209.097 251.435 208.425 251.765 207.614 252C206.825 252.256 205.908 252.384 204.862 252.384Z" fill="#FAFAFA"/>
<path d="M187.988 82.6498C188.103 80.5862 187.335 78.5697 185.882 77.1169C184.43 75.6642 182.421 74.8918 180.349 75.011C173.771 75.3761 155.807 77.6558 139.911 91.1081C139.891 91.1007 139.876 91.0858 139.853 91.0783L135.371 89.7994C130.787 88.4882 125.917 89.5982 122.353 92.7744L115.663 98.737C114.312 99.9389 113.721 101.784 114.121 103.55C114.523 105.315 115.852 106.721 117.593 107.223L124.814 109.296C124.198 110.357 123.597 111.442 123.014 112.567C121.541 115.413 122.043 118.825 124.263 121.055C126.438 123.243 129.761 126.578 133.091 129.903C136.421 133.236 139.757 136.558 141.944 138.734C143.323 140.107 145.15 140.822 147.015 140.822C148.173 140.822 149.345 140.549 150.433 139.983C151.558 139.399 152.643 138.798 153.701 138.183L155.774 145.404C156.276 147.145 157.681 148.476 159.447 148.876C159.812 148.96 160.182 149 160.55 149C161.95 149 163.306 148.409 164.26 147.336L170.222 140.646C173.396 137.082 174.511 132.215 173.197 127.628L171.916 123.146C171.911 123.123 171.894 123.111 171.886 123.089C185.343 107.193 187.623 89.2282 187.988 82.6498ZM118.827 102.924C118.594 102.857 118.509 102.686 118.479 102.556C118.449 102.427 118.452 102.239 118.636 102.075L125.328 96.1121C127.742 93.9615 131.028 93.209 134.144 94.0956L136.061 94.6444C132.97 97.7089 130.014 101.263 127.283 105.353L118.827 102.924ZM148.379 136.015C147.266 136.586 145.948 136.407 145.098 135.565C142.913 133.39 139.58 130.072 136.253 126.742C132.927 123.417 129.607 120.086 127.432 117.899C126.587 117.049 126.406 115.731 126.982 114.618C127.611 113.406 128.266 112.249 128.934 111.116L151.878 134.06C150.748 134.731 149.593 135.386 148.379 136.015ZM168.904 128.855C169.79 131.964 169.038 135.26 166.887 137.673L160.922 144.364C160.761 144.545 160.575 144.547 160.44 144.52C160.311 144.49 160.14 144.406 160.075 144.172L157.647 135.714C161.737 132.985 165.29 130.027 168.355 126.938L168.904 128.855ZM183.526 82.4015C183.091 90.2166 179.751 115.214 155.747 131.609L131.388 107.252C147.785 83.2483 172.783 79.9082 180.598 79.4736C180.652 79.4711 180.71 79.4687 180.764 79.4687C181.507 79.4687 182.197 79.7518 182.724 80.2757C183.285 80.8419 183.57 81.5944 183.526 82.4015Z" fill="white"/>
<path d="M152.142 96.1696C148.092 100.217 148.092 106.808 152.142 110.856C154.166 112.88 156.826 113.893 159.486 113.893C162.145 113.893 164.805 112.88 166.829 110.856C170.879 106.808 170.879 100.217 166.829 96.1696C162.783 92.1192 156.19 92.1192 152.142 96.1696ZM163.67 107.695C161.363 110.002 157.611 110.002 155.304 107.695C152.997 105.388 152.997 101.635 155.304 99.3284C156.456 98.1761 157.973 97.6 159.488 97.6C161.003 97.6 162.518 98.1761 163.672 99.3284C165.977 101.635 165.977 105.388 163.67 107.695Z" fill="white"/>
<path d="M118.448 133.913L123.897 128.465C124.771 127.591 124.771 126.175 123.897 125.304C123.023 124.432 121.607 124.429 120.738 125.304L115.289 130.752C114.415 131.626 114.415 133.042 115.289 133.913C115.724 134.35 116.295 134.569 116.869 134.569C117.442 134.569 118.014 134.35 118.448 133.913Z" fill="white"/>
<path d="M130.798 132.203C129.924 131.329 128.511 131.329 127.639 132.203L116.74 143.102C115.865 143.977 115.865 145.392 116.74 146.264C117.177 146.701 117.748 146.919 118.319 146.919C118.89 146.919 119.461 146.701 119.898 146.264L130.798 135.364C131.669 134.493 131.669 133.075 130.798 132.203Z" fill="white"/>
<path d="M134.537 139.102L129.088 144.55C128.214 145.425 128.214 146.84 129.088 147.712C129.525 148.149 130.096 148.367 130.668 148.367C131.239 148.367 131.812 148.149 132.247 147.712L137.696 142.263C138.57 141.389 138.57 139.974 137.696 139.102C136.821 138.23 135.406 138.23 134.537 139.102Z" fill="white"/>
</svg>
