<svg width="302" height="302" viewBox="0 0 302 302" fill="none" xmlns="http://www.w3.org/2000/svg">
<rect x="1" y="1" width="300" height="300" rx="23" fill="black" stroke="#AE9875" stroke-width="2"/>
<rect x="7" y="7" width="288" height="288" rx="20" fill="#AE9875"/>
<path d="M96.1389 214L91.9789 198.256L87.8509 214H83.8509L77.7389 192.656H81.9309L86.0909 209.104L90.5069 192.656H93.4829L97.8989 209.104L102.027 192.656H106.219L100.139 214H96.1389ZM114.324 214.384C113.108 214.384 112.009 214.171 111.028 213.744C110.047 213.317 109.204 212.741 108.5 212.016C107.817 211.269 107.295 210.405 106.932 209.424C106.569 208.421 106.388 207.365 106.388 206.256C106.388 205.147 106.569 204.101 106.932 203.12C107.295 202.139 107.817 201.285 108.5 200.56C109.204 199.813 110.047 199.227 111.028 198.8C112.009 198.373 113.108 198.16 114.324 198.16C115.561 198.16 116.671 198.373 117.652 198.8C118.633 199.227 119.465 199.813 120.148 200.56C120.852 201.285 121.385 202.139 121.748 203.12C122.111 204.101 122.292 205.147 122.292 206.256C122.292 207.365 122.111 208.421 121.748 209.424C121.385 210.405 120.852 211.269 120.148 212.016C119.465 212.741 118.633 213.317 117.652 213.744C116.671 214.171 115.561 214.384 114.324 214.384ZM114.324 211.408C115.049 211.408 115.689 211.269 116.244 210.992C116.799 210.715 117.268 210.341 117.652 209.872C118.036 209.403 118.324 208.859 118.516 208.24C118.708 207.6 118.804 206.939 118.804 206.256C118.804 205.573 118.708 204.923 118.516 204.304C118.324 203.685 118.036 203.141 117.652 202.672C117.268 202.203 116.799 201.829 116.244 201.552C115.689 201.275 115.049 201.136 114.324 201.136C113.62 201.136 112.991 201.275 112.436 201.552C111.881 201.829 111.412 202.203 111.028 202.672C110.644 203.141 110.356 203.685 110.164 204.304C109.972 204.923 109.876 205.573 109.876 206.256C109.876 206.939 109.972 207.6 110.164 208.24C110.356 208.859 110.644 209.403 111.028 209.872C111.412 210.341 111.881 210.715 112.436 210.992C112.991 211.269 113.62 211.408 114.324 211.408ZM125.692 214V198.544H129.052V200.816C129.628 200.069 130.353 199.451 131.228 198.96C132.102 198.448 133.052 198.192 134.076 198.192V201.52C133.777 201.456 133.425 201.424 133.02 201.424C132.657 201.424 132.284 201.477 131.9 201.584C131.516 201.691 131.132 201.84 130.748 202.032C130.385 202.224 130.054 202.448 129.756 202.704C129.457 202.939 129.222 203.195 129.052 203.472V214H125.692ZM147.025 214L142.289 207.632L140.145 209.84V214H136.785V192.656H140.145V206L146.961 198.544H151.121L144.689 205.552L151.249 214H147.025ZM154.429 214V201.488H151.869V198.544H154.429V197.68C154.429 195.995 154.877 194.683 155.773 193.744C156.669 192.805 157.853 192.336 159.325 192.336C160.008 192.336 160.669 192.443 161.309 192.656C161.97 192.848 162.546 193.189 163.037 193.68L161.725 195.76C161.49 195.547 161.224 195.387 160.925 195.28C160.648 195.152 160.317 195.088 159.933 195.088C159.272 195.088 158.749 195.301 158.365 195.728C157.981 196.155 157.789 196.805 157.789 197.68V198.544H160.925V201.488H157.789V214H154.429ZM170.449 214.384C169.233 214.384 168.134 214.171 167.153 213.744C166.172 213.317 165.329 212.741 164.625 212.016C163.942 211.269 163.42 210.405 163.057 209.424C162.694 208.421 162.513 207.365 162.513 206.256C162.513 205.147 162.694 204.101 163.057 203.12C163.42 202.139 163.942 201.285 164.625 200.56C165.329 199.813 166.172 199.227 167.153 198.8C168.134 198.373 169.233 198.16 170.449 198.16C171.686 198.16 172.796 198.373 173.777 198.8C174.758 199.227 175.59 199.813 176.273 200.56C176.977 201.285 177.51 202.139 177.873 203.12C178.236 204.101 178.417 205.147 178.417 206.256C178.417 207.365 178.236 208.421 177.873 209.424C177.51 210.405 176.977 211.269 176.273 212.016C175.59 212.741 174.758 213.317 173.777 213.744C172.796 214.171 171.686 214.384 170.449 214.384ZM170.449 211.408C171.174 211.408 171.814 211.269 172.369 210.992C172.924 210.715 173.393 210.341 173.777 209.872C174.161 209.403 174.449 208.859 174.641 208.24C174.833 207.6 174.929 206.939 174.929 206.256C174.929 205.573 174.833 204.923 174.641 204.304C174.449 203.685 174.161 203.141 173.777 202.672C173.393 202.203 172.924 201.829 172.369 201.552C171.814 201.275 171.174 201.136 170.449 201.136C169.745 201.136 169.116 201.275 168.561 201.552C168.006 201.829 167.537 202.203 167.153 202.672C166.769 203.141 166.481 203.685 166.289 204.304C166.097 204.923 166.001 205.573 166.001 206.256C166.001 206.939 166.097 207.6 166.289 208.24C166.481 208.859 166.769 209.403 167.153 209.872C167.537 210.341 168.006 210.715 168.561 210.992C169.116 211.269 169.745 211.408 170.449 211.408ZM181.817 214V198.544H185.177V200.816C185.753 200.069 186.478 199.451 187.353 198.96C188.227 198.448 189.177 198.192 190.201 198.192V201.52C189.902 201.456 189.55 201.424 189.145 201.424C188.782 201.424 188.409 201.477 188.025 201.584C187.641 201.691 187.257 201.84 186.873 202.032C186.51 202.224 186.179 202.448 185.881 202.704C185.582 202.939 185.347 203.195 185.177 203.472V214H181.817ZM199.95 214.384C198.777 214.384 197.7 214.181 196.718 213.776C195.737 213.371 194.894 212.805 194.19 212.08C193.486 211.355 192.932 210.501 192.526 209.52C192.142 208.517 191.95 207.429 191.95 206.256C191.95 205.083 192.142 204.005 192.526 203.024C192.932 202.043 193.486 201.189 194.19 200.464C194.894 199.739 195.737 199.173 196.718 198.768C197.7 198.363 198.777 198.16 199.95 198.16C201.465 198.16 202.692 198.437 203.63 198.992C204.569 199.525 205.316 200.165 205.87 200.912L203.662 202.96C202.788 201.744 201.604 201.136 200.11 201.136C199.406 201.136 198.766 201.264 198.19 201.52C197.614 201.776 197.124 202.128 196.718 202.576C196.313 203.024 195.993 203.568 195.758 204.208C195.545 204.827 195.438 205.509 195.438 206.256C195.438 207.003 195.545 207.696 195.758 208.336C195.993 208.955 196.313 209.499 196.718 209.968C197.124 210.416 197.614 210.768 198.19 211.024C198.766 211.28 199.406 211.408 200.11 211.408C201.582 211.408 202.766 210.8 203.662 209.584L205.87 211.632C205.316 212.379 204.569 213.029 203.63 213.584C202.692 214.117 201.465 214.384 199.95 214.384ZM215.953 214.384C214.801 214.384 213.723 214.192 212.721 213.808C211.739 213.424 210.886 212.88 210.161 212.176C209.435 211.451 208.87 210.587 208.465 209.584C208.059 208.581 207.857 207.472 207.857 206.256C207.857 205.147 208.049 204.101 208.433 203.12C208.817 202.117 209.35 201.253 210.033 200.528C210.737 199.803 211.569 199.227 212.529 198.8C213.489 198.373 214.545 198.16 215.697 198.16C216.849 198.16 217.894 198.373 218.833 198.8C219.771 199.205 220.571 199.792 221.233 200.56C221.894 201.307 222.406 202.192 222.769 203.216C223.131 204.24 223.313 205.36 223.313 206.576V207.376H211.377C211.441 207.952 211.59 208.507 211.825 209.04C212.081 209.552 212.411 210 212.817 210.384C213.243 210.768 213.745 211.077 214.321 211.312C214.918 211.525 215.579 211.632 216.305 211.632C217.051 211.632 217.83 211.493 218.641 211.216C219.451 210.917 220.134 210.491 220.689 209.936L222.225 212.144C221.457 212.891 220.529 213.456 219.441 213.84C218.353 214.203 217.19 214.384 215.953 214.384ZM220.049 205.008C220.027 204.56 219.931 204.091 219.761 203.6C219.59 203.109 219.323 202.672 218.961 202.288C218.619 201.883 218.182 201.552 217.649 201.296C217.115 201.04 216.465 200.912 215.697 200.912C214.971 200.912 214.342 201.04 213.809 201.296C213.297 201.531 212.859 201.851 212.497 202.256C212.155 202.64 211.889 203.077 211.697 203.568C211.505 204.059 211.387 204.539 211.345 205.008H220.049ZM90.7251 252V230.656H100.101C101.21 230.656 102.202 230.837 103.077 231.2C103.952 231.563 104.677 232.053 105.253 232.672C105.85 233.269 106.298 233.973 106.597 234.784C106.917 235.595 107.077 236.448 107.077 237.344C107.077 238.24 106.917 239.093 106.597 239.904C106.298 240.715 105.85 241.429 105.253 242.048C104.656 242.645 103.92 243.125 103.045 243.488C102.192 243.851 101.21 244.032 100.101 244.032H94.4691V252H90.7251ZM99.5891 240.736C100.656 240.736 101.53 240.427 102.213 239.808C102.896 239.189 103.237 238.368 103.237 237.344C103.237 236.32 102.896 235.499 102.213 234.88C101.53 234.261 100.656 233.952 99.5891 233.952H94.4691V240.736H99.5891ZM110.098 252V230.656H113.458V252H110.098ZM127.257 252V250.336C126.681 250.997 125.955 251.509 125.081 251.872C124.227 252.213 123.289 252.384 122.265 252.384C121.625 252.384 120.985 252.277 120.345 252.064C119.705 251.851 119.129 251.531 118.617 251.104C118.105 250.677 117.689 250.144 117.369 249.504C117.049 248.864 116.889 248.117 116.889 247.264C116.889 246.368 117.049 245.611 117.369 244.992C117.689 244.352 118.105 243.829 118.617 243.424C119.129 243.019 119.705 242.72 120.345 242.528C120.985 242.336 121.625 242.24 122.265 242.24C123.31 242.24 124.259 242.411 125.113 242.752C125.987 243.072 126.702 243.563 127.257 244.224V241.92C127.257 241.024 126.926 240.32 126.265 239.808C125.603 239.296 124.729 239.04 123.641 239.04C121.913 239.04 120.387 239.691 119.065 240.992L117.689 238.656C118.585 237.803 119.577 237.173 120.665 236.768C121.774 236.363 122.947 236.16 124.185 236.16C125.038 236.16 125.849 236.256 126.617 236.448C127.406 236.64 128.089 236.96 128.665 237.408C129.262 237.835 129.731 238.411 130.073 239.136C130.435 239.84 130.617 240.715 130.617 241.76V252H127.257ZM123.577 250.08C124.323 250.08 125.027 249.952 125.689 249.696C126.35 249.419 126.873 249.013 127.257 248.48V246.144C126.873 245.611 126.35 245.216 125.689 244.96C125.027 244.683 124.323 244.544 123.577 244.544C122.617 244.544 121.827 244.8 121.209 245.312C120.59 245.803 120.281 246.475 120.281 247.328C120.281 248.16 120.59 248.832 121.209 249.344C121.827 249.835 122.617 250.08 123.577 250.08ZM145.405 252V242.336C145.405 241.141 145.117 240.309 144.541 239.84C143.986 239.371 143.24 239.136 142.301 239.136C141.426 239.136 140.637 239.349 139.933 239.776C139.25 240.203 138.717 240.683 138.333 241.216V252H134.973V236.544H138.333V238.656C138.589 238.357 138.898 238.059 139.261 237.76C139.645 237.461 140.061 237.195 140.509 236.96C140.978 236.725 141.48 236.533 142.013 236.384C142.568 236.235 143.154 236.16 143.773 236.16C145.437 236.16 146.685 236.587 147.517 237.44C148.349 238.293 148.765 239.52 148.765 241.12V252H145.405ZM163.561 252V242.336C163.561 241.141 163.273 240.309 162.697 239.84C162.142 239.371 161.396 239.136 160.457 239.136C159.582 239.136 158.793 239.349 158.089 239.776C157.406 240.203 156.873 240.683 156.489 241.216V252H153.129V236.544H156.489V238.656C156.745 238.357 157.054 238.059 157.417 237.76C157.801 237.461 158.217 237.195 158.665 236.96C159.134 236.725 159.636 236.533 160.169 236.384C160.724 236.235 161.31 236.16 161.929 236.16C163.593 236.16 164.841 236.587 165.673 237.44C166.505 238.293 166.921 239.52 166.921 241.12V252H163.561ZM172.949 234.656C172.395 234.656 171.904 234.453 171.477 234.048C171.072 233.643 170.869 233.152 170.869 232.576C170.869 232 171.072 231.509 171.477 231.104C171.904 230.699 172.395 230.496 172.949 230.496C173.525 230.496 174.016 230.699 174.421 231.104C174.827 231.509 175.029 232 175.029 232.576C175.029 233.152 174.827 233.643 174.421 234.048C174.016 234.453 173.525 234.656 172.949 234.656ZM171.285 252V236.544H174.645V252H171.285ZM189.436 252V242.336C189.436 241.141 189.148 240.309 188.572 239.84C188.017 239.371 187.271 239.136 186.332 239.136C185.457 239.136 184.668 239.349 183.964 239.776C183.281 240.203 182.748 240.683 182.364 241.216V252H179.004V236.544H182.364V238.656C182.62 238.357 182.929 238.059 183.292 237.76C183.676 237.461 184.092 237.195 184.54 236.96C185.009 236.725 185.511 236.533 186.044 236.384C186.599 236.235 187.185 236.16 187.804 236.16C189.468 236.16 190.716 236.587 191.548 237.44C192.38 238.293 192.796 239.52 192.796 241.12V252H189.436ZM203.432 258.272C202.11 258.272 200.936 258.101 199.912 257.76C198.91 257.44 197.928 256.843 196.968 255.968L198.536 253.536C199.155 254.261 199.87 254.773 200.68 255.072C201.491 255.371 202.408 255.52 203.432 255.52C203.987 255.52 204.531 255.445 205.064 255.296C205.619 255.168 206.11 254.933 206.536 254.592C206.984 254.272 207.336 253.845 207.592 253.312C207.87 252.779 208.008 252.117 208.008 251.328V249.472C207.411 250.24 206.686 250.859 205.832 251.328C205 251.797 204.072 252.032 203.048 252.032C202.067 252.032 201.15 251.861 200.296 251.52C199.464 251.157 198.739 250.645 198.12 249.984C197.523 249.301 197.054 248.469 196.712 247.488C196.371 246.507 196.2 245.376 196.2 244.096C196.2 242.859 196.371 241.749 196.712 240.768C197.054 239.765 197.523 238.933 198.12 238.272C198.739 237.589 199.464 237.067 200.296 236.704C201.128 236.341 202.046 236.16 203.048 236.16C204.03 236.16 204.947 236.384 205.8 236.832C206.654 237.259 207.39 237.877 208.008 238.688V236.544H211.368V251.2C211.368 252.587 211.134 253.739 210.664 254.656C210.195 255.573 209.576 256.299 208.808 256.832C208.062 257.365 207.219 257.739 206.28 257.952C205.342 258.165 204.392 258.272 203.432 258.272ZM204.04 249.056C204.424 249.056 204.808 249.003 205.192 248.896C205.598 248.789 205.971 248.64 206.312 248.448C206.675 248.256 206.995 248.043 207.272 247.808C207.571 247.552 207.816 247.275 208.008 246.976V241.216C207.816 240.939 207.571 240.672 207.272 240.416C206.995 240.16 206.675 239.936 206.312 239.744C205.971 239.552 205.598 239.403 205.192 239.296C204.808 239.189 204.424 239.136 204.04 239.136C202.696 239.136 201.63 239.595 200.84 240.512C200.072 241.408 199.688 242.603 199.688 244.096C199.688 245.589 200.072 246.795 200.84 247.712C201.63 248.608 202.696 249.056 204.04 249.056Z" fill="#FAFAFA"/>
<path d="M147.035 142.764H125.441C121.13 142.764 117.626 139.257 117.626 134.95V92.2596C117.626 87.949 121.133 84.4423 125.441 84.4423H131.459C131.722 85.3377 132.11 86.2053 132.701 86.9732C134.159 88.8693 136.368 89.956 138.763 89.956H153.572C155.939 89.956 158.118 88.8887 159.551 87.0231C160.147 86.2497 160.532 85.3654 160.801 84.4423H166.83C171.141 84.4423 174.645 87.949 174.645 92.2596V100.992C174.645 102.369 175.762 103.486 177.14 103.486C178.517 103.486 179.634 102.369 179.634 100.992V92.2596C179.634 85.1991 173.888 79.4526 166.827 79.4526H160.734L160.114 77.1018C159.385 74.3603 157.217 72.2507 154.453 71.5937C151.695 70.9423 148.92 70.593 146.131 70.5542C143.415 70.593 140.64 70.9423 137.882 71.5937C135.115 72.2507 132.945 74.3658 132.224 77.1074L131.6 79.4526H125.441C118.38 79.4526 112.634 85.1991 112.634 92.2596V134.95C112.634 142.01 118.38 147.757 125.441 147.757H147.035C148.413 147.757 149.53 146.639 149.53 145.262C149.53 143.884 148.415 142.764 147.035 142.764ZM136.188 81.6203L137.047 78.3825C137.302 77.4206 138.062 76.6833 139.032 76.4532C141.435 75.8821 143.85 75.58 146.134 75.5439C148.488 75.5772 150.902 75.8821 153.305 76.4532C154.276 76.6833 155.035 77.4234 155.29 78.3825L156.055 81.2738C156.319 82.2718 156.152 83.2586 155.601 83.9794C155.11 84.6142 154.389 84.9662 153.574 84.9662H138.766C137.934 84.9662 137.166 84.5865 136.656 83.9267C136.146 83.2669 135.977 82.427 136.188 81.6203Z" fill="white"/>
<path d="M153.747 110.446C153.747 109.068 152.63 107.951 151.252 107.951H130.933C129.556 107.951 128.438 109.068 128.438 110.446C128.438 111.823 129.556 112.94 130.933 112.94H151.252C152.63 112.94 153.747 111.823 153.747 110.446Z" fill="white"/>
<path d="M144.623 124.775C146.001 124.775 147.118 123.658 147.118 122.281C147.118 120.903 146.001 119.786 144.623 119.786H138.219C136.842 119.786 135.725 120.903 135.725 122.281C135.725 123.658 136.842 124.775 138.219 124.775H144.623Z" fill="white"/>
<path d="M190.576 130.552L192.223 128.914C194.437 126.71 194.895 123.284 193.329 120.578L191.793 117.917C190.227 115.212 187.03 113.892 184.02 114.707L181.777 115.317L181.179 113.066C180.375 110.05 177.636 107.943 174.517 107.943H171.443C168.322 107.943 165.583 110.05 164.782 113.066L164.183 115.314L161.938 114.704C158.941 113.892 155.731 115.212 154.168 117.917L152.632 120.576C151.069 123.281 151.526 126.708 153.735 128.909L155.385 130.55L153.738 132.188C151.523 134.392 151.069 137.818 152.632 140.524L154.168 143.188C155.728 145.89 158.925 147.199 161.938 146.395L164.183 145.788L164.782 148.033C165.583 151.052 168.322 153.161 171.443 153.161H174.517C177.636 153.161 180.375 151.055 181.181 148.036L181.777 145.788L184.023 146.395C187.036 147.199 190.227 145.888 191.793 143.185L193.329 140.526C194.889 137.818 194.435 134.392 192.225 132.191L190.576 130.552ZM189.007 138.034L187.471 140.693C187.039 141.438 186.149 141.807 185.323 141.577L182.055 140.698C181.04 140.415 179.973 140.56 179.061 141.089C178.149 141.613 177.497 142.467 177.228 143.481L176.361 146.752C176.136 147.59 175.379 148.172 174.517 148.172H171.443C170.581 148.172 169.824 147.59 169.605 146.755L168.735 143.487C168.466 142.467 167.815 141.613 166.903 141.089C166.295 140.737 165.622 140.56 164.943 140.56C164.599 140.56 164.252 140.607 163.911 140.698L160.64 141.58C159.809 141.81 158.925 141.438 158.492 140.698L156.956 138.034C156.527 137.286 156.651 136.341 157.264 135.731L159.656 133.347C160.405 132.604 160.818 131.614 160.818 130.561C160.821 129.505 160.41 128.515 159.662 127.769L157.261 125.377C156.649 124.77 156.524 123.825 156.956 123.076L158.492 120.418C158.925 119.666 159.817 119.301 160.638 119.531L163.909 120.412C164.929 120.698 165.991 120.554 166.903 120.021C167.815 119.497 168.466 118.644 168.735 117.629L169.605 114.352C169.824 113.518 170.584 112.936 171.443 112.936H174.517C175.379 112.936 176.136 113.518 176.358 114.352L177.226 117.623C177.495 118.644 178.146 119.497 179.058 120.021C179.97 120.551 181.037 120.692 182.052 120.415L185.32 119.531C186.152 119.301 187.036 119.669 187.468 120.415L189.004 123.076C189.434 123.825 189.309 124.77 188.696 125.38L186.301 127.769C185.55 128.515 185.14 129.505 185.143 130.561C185.143 131.614 185.556 132.604 186.299 133.341L188.699 135.733C189.312 136.338 189.437 137.286 189.007 138.034Z" fill="white"/>
<path d="M172.984 122.273C168.419 122.273 164.704 125.988 164.704 130.554C164.704 135.119 168.419 138.834 172.984 138.834C177.55 138.834 181.264 135.119 181.264 130.554C181.264 125.988 177.55 122.273 172.984 122.273ZM172.984 133.844C171.171 133.844 169.694 132.369 169.694 130.554C169.694 128.738 171.169 127.263 172.984 127.263C174.8 127.263 176.275 128.738 176.275 130.554C176.275 132.369 174.797 133.844 172.984 133.844Z" fill="white"/>
</svg>
