<svg width="201" height="148" viewBox="0 0 201 148" fill="none" xmlns="http://www.w3.org/2000/svg">
<g filter="url(#filter0_d_107_494)">
<rect x="40.1973" y="10" width="120.403" height="67.9923" rx="11.3321" fill="white"/>
</g>
<g clip-path="url(#clip0_107_494)">
<path fill-rule="evenodd" clip-rule="evenodd" d="M109.536 50.3881C105.297 53.6095 99.1525 55.3282 93.8622 55.3282C86.4443 55.3282 79.7663 52.4997 74.7141 47.7953C74.3171 47.4254 74.6728 46.9212 75.1491 47.2093C80.6014 50.4798 87.3429 52.4473 94.3067 52.4473C99.0032 52.4473 104.17 51.4455 108.92 49.3667C109.638 49.0524 110.238 49.8512 109.536 50.3881Z" fill="#FF9900"/>
<path fill-rule="evenodd" clip-rule="evenodd" d="M111.298 48.3092C110.758 47.5956 107.716 47.972 106.35 48.139C105.934 48.1914 105.871 47.8182 106.246 47.5497C108.668 45.7917 112.644 46.2992 113.108 46.8884C113.571 47.481 112.987 51.5895 110.71 53.5505C110.361 53.8517 110.027 53.6913 110.183 53.2919C110.694 51.9758 111.841 49.0262 111.298 48.3092Z" fill="#FF9900"/>
<path fill-rule="evenodd" clip-rule="evenodd" d="M106.447 35.1391V33.4302C106.447 33.1716 106.637 32.998 106.866 32.998H114.287C114.525 32.998 114.716 33.1748 114.716 33.4302V34.8935C114.713 35.1391 114.512 35.4599 114.157 35.9673L110.311 41.6276C111.74 41.5916 113.249 41.811 114.544 42.5639C114.836 42.7341 114.916 42.9829 114.938 43.2285V45.052C114.938 45.3008 114.671 45.5921 114.392 45.4415C112.109 44.2073 109.076 44.0731 106.552 45.4546C106.294 45.5987 106.024 45.3106 106.024 45.0618V43.33C106.024 43.0517 106.028 42.577 106.298 42.1547L110.753 35.5679H106.875C106.637 35.5679 106.447 35.3944 106.447 35.1391Z" fill="#101010"/>
<path fill-rule="evenodd" clip-rule="evenodd" d="M79.3749 45.8017H77.1172C76.9012 45.7854 76.7297 45.6184 76.7139 45.4056V33.4597C76.7139 33.2208 76.9076 33.0309 77.1489 33.0309H79.2542C79.4734 33.0407 79.648 33.2142 79.6639 33.4303V34.9919H79.7052C80.2545 33.4827 81.2865 32.7788 82.6774 32.7788C84.0905 32.7788 84.9733 33.4827 85.6084 34.9919C86.1545 33.4827 87.3962 32.7788 88.7267 32.7788C89.673 32.7788 90.7082 33.1815 91.3401 34.085C92.0546 35.0901 91.9085 36.5502 91.9085 37.8302L91.9053 45.3696C91.9053 45.6086 91.7116 45.8017 91.4703 45.8017H89.2157C88.9902 45.7854 88.8092 45.5988 88.8092 45.3696V39.0382C88.8092 38.534 88.8537 37.2769 88.7457 36.799C88.5774 35.9969 88.0725 35.771 87.4184 35.771C86.8722 35.771 86.3006 36.1475 86.0688 36.7499C85.837 37.3522 85.8592 38.3605 85.8592 39.0382V45.3696C85.8592 45.6086 85.6655 45.8017 85.4242 45.8017H83.1696C82.941 45.7854 82.7631 45.5988 82.7631 45.3696L82.76 39.0382C82.76 37.7058 82.9727 35.7448 81.3691 35.7448C79.7464 35.7448 79.81 37.6567 79.81 39.0382V45.3696C79.81 45.6086 79.6162 45.8017 79.3749 45.8017" fill="#101010"/>
<path fill-rule="evenodd" clip-rule="evenodd" d="M121.103 32.7788C124.453 32.7788 126.267 35.7448 126.267 39.5162C126.267 43.1598 124.263 46.0505 121.103 46.0505C117.813 46.0505 116.022 43.0845 116.022 39.3885C116.022 35.6695 117.836 32.7788 121.103 32.7788ZM121.122 35.2177C119.458 35.2177 119.354 37.5552 119.354 39.012C119.354 40.4721 119.331 43.5887 121.103 43.5887C122.853 43.5887 122.935 41.0745 122.935 39.5424C122.935 38.534 122.894 37.3293 122.599 36.3734C122.345 35.5418 121.84 35.2177 121.122 35.2177Z" fill="#101010"/>
<path fill-rule="evenodd" clip-rule="evenodd" d="M130.612 45.8017H128.364C128.138 45.7854 127.957 45.5988 127.957 45.3696L127.954 33.4205C127.973 33.2011 128.161 33.0309 128.389 33.0309H130.482C130.679 33.0407 130.841 33.1782 130.885 33.3648V35.1916H130.926C131.558 33.558 132.444 32.7788 134.003 32.7788C135.016 32.7788 136.004 33.1553 136.639 34.1865C137.23 35.1424 137.23 36.7499 137.23 37.9055V45.4253C137.204 45.6348 137.017 45.8017 136.795 45.8017H134.53C134.324 45.7854 134.153 45.6282 134.13 45.4253V38.9367C134.13 37.6305 134.276 35.7186 132.717 35.7186C132.168 35.7186 131.663 36.0984 131.412 36.6746C131.095 37.4046 131.053 38.1314 131.053 38.9367V45.3696C131.05 45.6086 130.853 45.8017 130.612 45.8017" fill="#101010"/>
<path fill-rule="evenodd" clip-rule="evenodd" d="M100.531 40.0954C100.531 41.0023 100.553 41.7585 100.108 42.5638C99.7494 43.2186 99.1778 43.6213 98.5459 43.6213C97.679 43.6213 97.1709 42.9403 97.1709 41.9353C97.1709 39.9514 98.8952 39.5913 100.531 39.5913V40.0954ZM102.807 45.7688C102.658 45.9063 102.442 45.9162 102.274 45.8245C101.524 45.1828 101.388 44.8849 100.978 44.2727C99.7399 45.5757 98.8602 45.9653 97.2566 45.9653C95.3545 45.9653 93.8779 44.7573 93.8779 42.338C93.8779 40.449 94.8687 39.1624 96.2849 38.5339C97.5107 37.9773 99.2222 37.8791 100.531 37.7253V37.4241C100.531 36.8708 100.572 36.2161 100.254 35.7381C99.9812 35.3092 99.4541 35.1325 98.9873 35.1325C98.1267 35.1325 97.3614 35.5875 97.1741 36.5303C97.136 36.7399 96.9867 36.9461 96.7803 36.9559L94.5924 36.7137C94.4082 36.6711 94.2018 36.5173 94.2558 36.2259C94.7575 33.489 97.1582 32.6641 99.3048 32.6641C100.404 32.6641 101.839 32.9652 102.706 33.823C103.804 34.8804 103.7 36.2914 103.7 37.8267V41.4541C103.7 42.5442 104.138 43.0222 104.551 43.6114C104.694 43.821 104.725 44.073 104.541 44.2302C104.081 44.6263 103.261 45.3629 102.811 45.7754L102.807 45.7688" fill="#101010"/>
<path fill-rule="evenodd" clip-rule="evenodd" d="M70.9319 40.0954C70.9319 41.0023 70.9541 41.7585 70.5096 42.5638C70.1507 43.2186 69.5823 43.6213 68.9472 43.6213C68.0803 43.6213 67.5754 42.9403 67.5754 41.9353C67.5754 39.9514 69.2997 39.5913 70.9319 39.5913V40.0954ZM73.2087 45.7688C73.0595 45.9063 72.8435 45.9162 72.6752 45.8245C71.9258 45.1828 71.7925 44.8849 71.3796 44.2727C70.1412 45.5757 69.2648 45.9653 67.658 45.9653C65.7591 45.9653 64.2793 44.7572 64.2793 42.338C64.2793 40.449 65.2732 39.1624 66.6863 38.5339C67.912 37.9773 69.6236 37.8791 70.9319 37.7253V37.4241C70.9319 36.8708 70.9732 36.2161 70.6588 35.7381C70.3825 35.3092 69.8554 35.1325 69.3918 35.1325C68.5313 35.1325 67.7628 35.5875 67.5754 36.5303C67.5373 36.7399 67.3881 36.9461 67.1849 36.9559L64.9938 36.7137C64.8096 36.6711 64.6064 36.5173 64.6572 36.2259C65.1621 33.489 67.5596 32.6641 69.7062 32.6641C70.8049 32.6641 72.2402 32.9652 73.1071 33.823C74.2058 34.8804 74.101 36.2914 74.101 37.8267V41.454C74.101 42.5442 74.5392 43.0222 74.9521 43.6114C75.0981 43.821 75.1299 44.073 74.9457 44.2302C74.4853 44.6263 73.666 45.3629 73.2151 45.7754L73.2087 45.7688" fill="#101010"/>
</g>
<defs>
<filter id="filter0_d_107_494" x="0.197266" y="0" width="200.403" height="147.992" filterUnits="userSpaceOnUse" color-interpolation-filters="sRGB">
<feFlood flood-opacity="0" result="BackgroundImageFix"/>
<feColorMatrix in="SourceAlpha" type="matrix" values="0 0 0 0 0 0 0 0 0 0 0 0 0 0 0 0 0 0 127 0" result="hardAlpha"/>
<feOffset dy="30"/>
<feGaussianBlur stdDeviation="20"/>
<feColorMatrix type="matrix" values="0 0 0 0 0.831373 0 0 0 0 0.85098 0 0 0 0 0.909804 0 0 0 0.2 0"/>
<feBlend mode="normal" in2="BackgroundImageFix" result="effect1_dropShadow_107_494"/>
<feBlend mode="normal" in="SourceGraphic" in2="effect1_dropShadow_107_494" result="shape"/>
</filter>
<clipPath id="clip0_107_494">
<rect width="72.9501" height="22.6641" fill="white" transform="translate(64.2783 32.6641)"/>
</clipPath>
</defs>
</svg>
