<svg fill="none" height="126" viewBox="0 0 178 126" width="178" xmlns="http://www.w3.org/2000/svg" xmlns:xlink="http://www.w3.org/1999/xlink"><filter id="a" color-interpolation-filters="sRGB" filterUnits="userSpaceOnUse" height="124.652" width="177.064" x=".669867" y=".917467"><feFlood flood-opacity="0" result="BackgroundImageFix"/><feColorMatrix in="SourceAlpha" result="hardAlpha" type="matrix" values="0 0 0 0 0 0 0 0 0 0 0 0 0 0 0 0 0 0 127 0"/><feOffset dy="21.2476"/><feGaussianBlur stdDeviation="14.1651"/><feColorMatrix type="matrix" values="0 0 0 0 0.831373 0 0 0 0 0.85098 0 0 0 0 0.909804 0 0 0 0.2 0"/><feBlend in2="BackgroundImageFix" mode="normal" result="effect1_dropShadow_107_490"/><feBlend in="SourceGraphic" in2="effect1_dropShadow_107_490" mode="normal" result="shape"/></filter><clipPath id="b"><path d="m55.9141 30.6641h67.2841v22.6641h-67.2841z"/></clipPath><g filter="url(#a)"><rect fill="#fff" height="67.9923" rx="11.3321" width="120.403" x="29" y="8"/></g><g clip-path="url(#b)"><path d="m84.546 42.2868c0 3.1459-2.4712 5.464-5.504 5.464-3.0327 0-5.5039-2.3181-5.5039-5.464 0-3.1681 2.4712-5.464 5.5039-5.464 3.0328 0 5.504 2.2959 5.504 5.464zm-2.4094 0c0-1.9659-1.4323-3.311-3.0946-3.311s-3.0946 1.3451-3.0946 3.311c0 1.9461 1.4323 3.3109 3.0946 3.3109s3.0946-1.3672 3.0946-3.3109z" fill="#ea4335"/><path d="m96.42 42.2868c0 3.1459-2.4712 5.464-5.504 5.464-3.0327 0-5.5039-2.3181-5.5039-5.464 0-3.1656 2.4712-5.464 5.5039-5.464 3.0328 0 5.504 2.2959 5.504 5.464zm-2.4094 0c0-1.9659-1.4322-3.311-3.0946-3.311-1.6623 0-3.0945 1.3451-3.0945 3.311 0 1.9461 1.4322 3.3109 3.0945 3.3109 1.6624 0 3.0946-1.3672 3.0946-3.3109z" fill="#fbbc05"/><path d="m107.798 37.1529v9.8096c0 4.0352-2.389 5.6832-5.214 5.6832-2.6594 0-4.2598-1.7712-4.8634-3.2197l2.0977-.8696c.3737.8893 1.2887 1.9387 2.7627 1.9387 1.809 0 2.929-1.111 2.929-3.2025v-.7859h-.084c-.539.6627-1.578 1.2416-2.889 1.2416-2.7435 0-5.2567-2.3797-5.2567-5.4418 0-3.0843 2.5132-5.4837 5.2567-5.4837 1.308 0 2.347.5789 2.889 1.2218h.084v-.8893h2.288zm-2.117 5.1536c0-1.924-1.289-3.3307-2.929-3.3307-1.662 0-3.0549 1.4067-3.0549 3.3307 0 1.9043 1.3929 3.2912 3.0549 3.2912 1.64 0 2.929-1.3869 2.929-3.2912z" fill="#4285f4"/><path d="m111.572 31.4033v16.0127h-2.35v-16.0127z" fill="#34a853"/><path d="m120.729 44.0851 1.87 1.2416c-.604.8894-2.058 2.4217-4.571 2.4217-3.117 0-5.445-2.3995-5.445-5.4641 0-3.2493 2.348-5.464 5.175-5.464 2.847 0 4.24 2.2566 4.695 3.476l.25.6208-7.335 3.0252c.562 1.0962 1.435 1.6554 2.66 1.6554 1.227 0 2.077-.6011 2.701-1.5126zm-5.756-1.9658 4.902-2.0275c-.269-.6824-1.081-1.1578-2.035-1.1578-1.225 0-2.929 1.0765-2.867 3.1853z" fill="#ea4335"/><path d="m64.6435 40.8653v-2.3181h7.844c.0767.404.1163.8819.1163 1.3992 0 1.7393-.4774 3.8899-2.0161 5.4222-1.4965 1.552-3.4087 2.3797-5.9417 2.3797-4.6951 0-8.6431-3.8086-8.6431-8.4843s3.948-8.4842 8.6431-8.4842c2.5973 0 4.4476 1.0149 5.8378 2.3378l-1.6425 1.6358c-.9969-.9312-2.3475-1.6555-4.1978-1.6555-3.4285 0-6.11 2.7517-6.11 6.1661s2.6815 6.1662 6.11 6.1662c2.2238 0 3.4904-.8894 4.3017-1.6974.658-.6553 1.0909-1.5914 1.2616-2.87z" fill="#4285f4"/></g></svg>