<svg width="178" height="126" viewBox="0 0 178 126" fill="none" xmlns="http://www.w3.org/2000/svg">
<g filter="url(#filter0_d_107_491)">
<rect x="28.3994" y="8" width="120.403" height="67.9923" rx="11.3321" fill="white"/>
</g>
<g clip-path="url(#clip0_107_491)">
<path d="M75.8975 43.3952L75.3825 44.8512H75.3395C75.2537 44.5229 75.0963 44.0233 74.8388 43.4237L72.0778 36.5004H69.374V47.5349H71.1622V40.7258C71.1622 40.2975 71.1622 39.8122 71.1479 39.2126C71.1336 38.9129 71.105 38.6845 71.0907 38.5132H71.1336C71.2195 38.9414 71.3196 39.2555 71.3911 39.4553L74.7101 47.5063H75.969L79.2593 39.3839C79.3308 39.1984 79.4024 38.8272 79.4739 38.5132H79.5168C79.4739 39.3268 79.4453 40.0549 79.431 40.4974V47.4921H81.3337V36.4719H78.73L75.8975 43.3952V43.3952ZM83.1362 39.5838H84.9959V47.4921H83.1362V39.5838ZM84.0804 36.2435C83.7656 36.2435 83.5081 36.3577 83.2935 36.5575C83.079 36.7574 82.9645 37.0143 82.9645 37.3284C82.9645 37.6281 83.079 37.8851 83.2935 38.0849C83.5081 38.2848 83.7656 38.3847 84.0804 38.3847C84.3951 38.3847 84.6669 38.2705 84.8672 38.0849C85.0818 37.8851 85.1962 37.6281 85.1962 37.3284C85.1962 37.0286 85.0818 36.7716 84.8672 36.5575C84.6812 36.3577 84.4094 36.2435 84.0804 36.2435V36.2435ZM91.5909 39.5124C91.2476 39.441 90.8899 39.3982 90.5466 39.3982C89.7025 39.3982 88.93 39.5838 88.2863 39.9549C87.6425 40.3261 87.1275 40.84 86.7985 41.4824C86.4551 42.139 86.2835 42.8956 86.2835 43.7663C86.2835 44.5229 86.4551 45.1938 86.7842 45.8076C87.1132 46.4072 87.571 46.8925 88.1861 47.2209C88.7727 47.5492 89.4593 47.7205 90.2318 47.7205C91.1188 47.7205 91.877 47.5349 92.4779 47.1923L92.4922 47.178V45.465L92.4206 45.5221C92.1488 45.722 91.8341 45.8933 91.5194 45.9932C91.1903 46.1074 90.8899 46.1645 90.6324 46.1645C89.8885 46.1645 89.302 45.9504 88.8871 45.4793C88.4579 45.0225 88.2433 44.3944 88.2433 43.6093C88.2433 42.7956 88.4579 42.1533 88.9014 41.6822C89.3449 41.2111 89.9314 40.9685 90.6467 40.9685C91.2476 40.9685 91.8627 41.1683 92.4206 41.568L92.4922 41.6251V39.8122L92.4779 39.7979C92.2347 39.698 91.9628 39.5838 91.5909 39.5124V39.5124ZM97.7281 39.4553C97.2703 39.4553 96.8411 39.5981 96.4692 39.8978C96.1544 40.1548 95.9399 40.5259 95.7539 40.9685H95.7396V39.5838H93.8798V47.4921H95.7396V43.4523C95.7396 42.7671 95.8826 42.1961 96.1974 41.7821C96.5121 41.3539 96.9126 41.1398 97.399 41.1398C97.5707 41.1398 97.7424 41.1826 97.957 41.2111C98.1572 41.2682 98.3003 41.3253 98.4004 41.3967L98.472 41.4538V39.5981L98.4291 39.5838C98.3003 39.4981 98.0428 39.4553 97.7281 39.4553V39.4553ZM102.792 39.4125C101.49 39.4125 100.446 39.7979 99.7166 40.5545C98.9727 41.3111 98.615 42.3531 98.615 43.6664C98.615 44.894 98.987 45.8933 99.7023 46.6213C100.418 47.3351 101.39 47.7062 102.606 47.7062C103.88 47.7062 104.895 47.3208 105.625 46.5499C106.369 45.7791 106.726 44.7513 106.726 43.4808C106.726 42.2246 106.383 41.2254 105.682 40.4974C105.01 39.7694 104.023 39.4125 102.792 39.4125V39.4125ZM104.28 45.4936C103.937 45.9361 103.393 46.1502 102.721 46.1502C102.048 46.1502 101.505 45.9361 101.119 45.465C100.732 45.0225 100.546 44.3802 100.546 43.5665C100.546 42.7243 100.747 42.0819 101.119 41.6251C101.505 41.1683 102.034 40.9399 102.706 40.9399C103.365 40.9399 103.88 41.154 104.252 41.5966C104.623 42.0391 104.824 42.6814 104.824 43.5237C104.795 44.3802 104.638 45.0511 104.28 45.4936V45.4936ZM110.875 42.867C110.289 42.6243 109.917 42.4388 109.745 42.2817C109.602 42.139 109.53 41.9391 109.53 41.6822C109.53 41.4681 109.616 41.254 109.831 41.1112C110.045 40.9685 110.289 40.8971 110.646 40.8971C110.961 40.8971 111.29 40.9542 111.605 41.0398C111.919 41.1255 112.206 41.254 112.434 41.4253L112.506 41.4824V39.7408L112.463 39.7265C112.248 39.6409 111.962 39.5552 111.619 39.4839C111.276 39.4268 110.961 39.3982 110.703 39.3982C109.816 39.3982 109.087 39.6123 108.515 40.0834C107.942 40.5259 107.671 41.1255 107.671 41.8249C107.671 42.1961 107.728 42.5244 107.857 42.7956C107.985 43.0669 108.171 43.3238 108.429 43.5379C108.686 43.7378 109.058 43.9662 109.573 44.1803C110.002 44.3659 110.331 44.5086 110.532 44.6228C110.732 44.737 110.861 44.8655 110.961 44.9654C111.032 45.0796 111.075 45.2224 111.075 45.4079C111.075 45.9361 110.675 46.1931 109.859 46.1931C109.545 46.1931 109.216 46.136 108.829 46.0075C108.443 45.879 108.085 45.6934 107.785 45.4793L107.714 45.4222V47.2351L107.756 47.2494C108.028 47.3779 108.357 47.4635 108.758 47.5634C109.158 47.6348 109.516 47.6919 109.831 47.6919C110.789 47.6919 111.576 47.4778 112.134 47.0067C112.706 46.5499 113.007 45.9647 113.007 45.2081C113.007 44.6799 112.864 44.2089 112.549 43.852C112.134 43.5094 111.619 43.1525 110.875 42.867V42.867ZM117.914 39.4125C116.612 39.4125 115.567 39.7979 114.838 40.5545C114.108 41.3111 113.736 42.3531 113.736 43.6664C113.736 44.894 114.108 45.8933 114.823 46.6213C115.539 47.3351 116.512 47.7062 117.728 47.7062C119.001 47.7062 120.016 47.3208 120.746 46.5499C121.49 45.7791 121.848 44.7513 121.848 43.4808C121.848 42.2246 121.504 41.2254 120.803 40.4974C120.131 39.7694 119.144 39.4125 117.914 39.4125V39.4125ZM119.387 45.4936C119.044 45.9361 118.5 46.1502 117.828 46.1502C117.141 46.1502 116.612 45.9361 116.225 45.465C115.839 45.0225 115.653 44.3802 115.653 43.5665C115.653 42.7243 115.853 42.0819 116.225 41.6251C116.612 41.1683 117.141 40.9399 117.813 40.9399C118.457 40.9399 118.986 41.154 119.358 41.5966C119.73 42.0391 119.931 42.6814 119.931 43.5237C119.931 44.3802 119.745 45.0511 119.387 45.4936V45.4936ZM131.79 41.1112V39.5838H129.916V37.2427L129.859 37.257L128.085 37.7852L128.042 37.7994V39.5838H125.238V38.5846C125.238 38.1278 125.353 37.7709 125.553 37.5425C125.753 37.3141 126.054 37.1999 126.425 37.1999C126.683 37.1999 126.955 37.257 127.255 37.3855L127.327 37.4283V35.8152L127.284 35.801C127.026 35.7153 126.683 35.6582 126.239 35.6582C125.682 35.6582 125.195 35.7867 124.752 36.0008C124.308 36.2435 123.979 36.5718 123.736 37.0143C123.493 37.4426 123.364 37.9279 123.364 38.4846V39.5838H122.062V41.0969H123.364V47.4921H125.238V41.1112H128.042V45.1795C128.042 46.8497 128.829 47.6919 130.402 47.6919C130.66 47.6919 130.932 47.6491 131.189 47.6063C131.461 47.5492 131.661 47.4778 131.776 47.4207L131.79 47.4064V45.879L131.719 45.9361C131.604 46.0075 131.504 46.0646 131.332 46.1074C131.189 46.1502 131.061 46.1645 130.96 46.1645C130.588 46.1645 130.331 46.0789 130.145 45.8647C129.973 45.6649 129.887 45.3366 129.887 44.8512V41.1112H131.79V41.1112Z" fill="#737373"/>
<path d="M45.3975 32.7891H54.1669V41.5396H45.3975V32.7891Z" fill="#F25022"/>
<path d="M55.083 32.7891H63.8525V41.5396H55.083V32.7891Z" fill="#7FBA00"/>
<path d="M45.3975 42.4531H54.1669V51.2036H45.3975V42.4531Z" fill="#00A4EF"/>
<path d="M55.083 42.4531H63.8525V51.2036H55.083V42.4531Z" fill="#FFB900"/>
</g>
<defs>
<filter id="filter0_d_107_491" x="0.0692806" y="0.917467" width="177.064" height="124.652" filterUnits="userSpaceOnUse" color-interpolation-filters="sRGB">
<feFlood flood-opacity="0" result="BackgroundImageFix"/>
<feColorMatrix in="SourceAlpha" type="matrix" values="0 0 0 0 0 0 0 0 0 0 0 0 0 0 0 0 0 0 127 0" result="hardAlpha"/>
<feOffset dy="21.2476"/>
<feGaussianBlur stdDeviation="14.1651"/>
<feColorMatrix type="matrix" values="0 0 0 0 0.831373 0 0 0 0 0.85098 0 0 0 0 0.909804 0 0 0 0.2 0"/>
<feBlend mode="normal" in2="BackgroundImageFix" result="effect1_dropShadow_107_491"/>
<feBlend mode="normal" in="SourceGraphic" in2="effect1_dropShadow_107_491" result="shape"/>
</filter>
<clipPath id="clip0_107_491">
<rect width="86.4069" height="18.4146" fill="white" transform="translate(45.3975 32.7891)"/>
</clipPath>
</defs>
</svg>
