<svg width="201" height="148" viewBox="0 0 201 148" fill="none" xmlns="http://www.w3.org/2000/svg">
<g filter="url(#filter0_d_107_495)">
<rect x="40.5967" y="10" width="120.403" height="67.9923" rx="11.3321" fill="white"/>
</g>
<g clip-path="url(#clip0_107_495)">
<path fill-rule="evenodd" clip-rule="evenodd" d="M127.27 43.1755L122.852 50.8489L119.083 50.864L127.27 36.4209L135.426 50.864H131.597L127.27 43.1747V43.1755ZM115.375 47.5235H119.596L117.636 50.864H112.134L112.149 46.7966V36.5097H115.39L115.375 47.5235H115.375ZM103.798 36.5104C107.823 36.5255 111.079 39.7312 111.064 43.694C111.049 47.6424 107.793 50.8489 103.767 50.8489C99.7569 50.8339 96.5007 47.6281 96.5007 43.6646C96.5156 39.7161 99.7718 36.5104 103.798 36.5104ZM103.783 47.5092C105.938 47.5092 107.671 45.8018 107.671 43.694C107.687 41.5869 105.938 39.8644 103.798 39.8644C101.656 39.8493 99.9077 41.5719 99.9077 43.6797C99.8927 45.7867 101.641 47.5092 103.782 47.5092H103.783ZM90.5009 42.5539C90.4561 41.9594 90.3046 41.173 90.0785 40.4167C89.6132 38.8546 88.8042 37.4185 87.7119 36.2154C87.1387 35.5923 86.4909 35.0129 85.5251 34.3304C84.7889 33.964 84.0651 33.573 83.3548 33.1579C82.8876 32.8908 82.3293 32.5634 81.5912 32.3264C80.716 32.1181 79.8214 32.0038 78.9223 31.9855C78.0491 31.9554 77.1737 32.0307 76.3296 32.1932C75.4399 32.3414 74.7011 32.5785 73.7211 32.8163C71.5045 33.781 69.7865 35.2356 68.3087 37.1659C63.1531 44.4239 67.8117 54.5919 76.4199 55.7937C77.8372 55.9871 79.2544 55.9126 80.5956 55.6011L81.5457 55.349C81.5755 55.3339 81.6211 55.3189 81.6509 55.3189L82.7368 54.9035C82.7965 54.8734 82.8421 54.8583 82.9025 54.829L83.3548 54.6213C84.2226 54.1895 85.0371 53.6566 85.7819 53.0335C85.104 53.6545 84.3667 54.2063 83.5809 54.6807L83.6257 54.7108C83.7772 54.6657 83.9123 54.6213 84.0631 54.5919C84.0631 54.5919 84.0631 54.829 84.0332 54.7846C83.7921 54.9629 84.169 54.7996 84.6512 54.5468C85.134 54.2947 85.6012 53.9824 86.0229 53.6265C86.6416 53.1072 87.1842 52.5428 87.9529 51.6233C88.7366 50.2424 89.7173 49.0399 90.1695 47.4219C90.3203 46.9915 90.4554 46.4873 90.5464 45.9673C90.636 45.4481 90.6972 44.9138 90.6972 44.3644C90.6823 43.8151 90.6218 43.2507 90.5009 42.5539ZM79.3447 54.7552C81.983 54.3391 84.1989 52.8702 86.008 50.8662C86.5058 50.1385 86.8976 49.4703 87.3797 48.7434C87.9828 47.2586 87.938 45.938 88.1335 45.0033C88.3754 43.3102 87.8022 41.9451 87.32 40.4905C86.5812 38.7981 85.6012 37.5368 83.8824 36.5571C79.5403 33.8555 73.6308 34.6118 70.8119 38.6498C70.797 38.6498 70.7209 38.7537 70.5701 38.9614C70.7664 38.1306 71.2642 37.6407 71.7613 37.1651C73.239 35.9483 74.9578 34.9828 76.9177 34.5087C79.1343 34.2709 81.3345 34.5087 83.3093 35.4734C86.2647 37.1651 88.2246 39.823 88.7217 42.9685V45.8785C88.1037 50.6435 84.0332 54.2653 79.3447 54.7552ZM90.1845 43.919C90.0785 36.9431 83.1891 32.2376 76.4803 33.188C74.5205 33.6772 72.3792 34.657 70.8567 36.0228C70.1178 36.5119 69.7716 37.4179 69.0327 38.1449C66.0772 42.4944 66.5907 48.0608 70.2686 51.4457C70.7404 51.9159 71.2441 52.3525 71.7762 52.752C68.7013 50.8956 67.3139 48.0894 66.8318 44.6767C66.8318 43.4592 67.0728 42.2566 67.3288 41.0398C69.0484 35.7105 74.46 31.8365 80.3553 32.8163C81.3352 33.0541 82.3151 33.3062 83.3108 33.544C84.5467 34.0331 85.7677 34.7608 86.7476 35.7263C87.7275 36.6903 88.4664 37.9078 89.2053 39.1096C89.7023 40.0751 89.9441 41.2919 90.1852 42.2566C90.23 42.806 90.23 43.3704 90.1852 43.9197L90.1845 43.919Z" fill="#101010"/>
<path fill-rule="evenodd" clip-rule="evenodd" d="M84.0639 44.0237C84.0639 47.0225 81.5615 49.4569 78.4709 49.4569C75.3811 49.4569 72.8779 47.0225 72.8779 44.0237C72.8779 41.0257 75.3804 38.5913 78.4709 38.5913C81.5615 38.5913 84.0639 41.0257 84.0639 44.0245V44.0237Z" fill="white"/>
<path fill-rule="evenodd" clip-rule="evenodd" d="M84.0951 43.1031C84.0197 42.6877 83.8988 42.3612 83.7787 41.9014C83.2958 40.8915 82.5875 40.1051 81.6524 39.4369C78.1551 37.1071 73.3457 39.3481 72.8337 43.3266C72.6382 44.9002 73.1957 46.4142 74.1906 47.5723C73.889 47.2601 73.5577 46.9342 73.3315 46.5625L73.3017 46.5926C73.3315 46.6814 73.4524 46.7408 73.4823 46.8296C73.4823 46.8296 73.3614 46.8296 73.392 46.8146C73.3017 46.7115 73.3771 46.8748 73.5121 47.0968C73.633 47.3195 73.7838 47.5279 73.9644 47.7206C74.2212 48.0028 74.4921 48.2549 74.9443 48.5965C75.6086 48.9374 76.1959 49.3829 76.9647 49.5906C77.1759 49.6508 77.4169 49.7095 77.6588 49.7539C77.9147 49.7991 78.1558 49.8141 78.4275 49.8141C78.6835 49.8141 78.9551 49.784 79.2865 49.7238C79.6282 49.6832 79.966 49.614 80.2963 49.5169C81.0341 49.2929 81.7138 48.9075 82.2868 48.3881C82.5733 48.1217 82.9808 47.78 83.2965 47.3346C83.5533 46.8304 83.5831 46.5775 83.704 46.3548C83.8242 46.132 83.975 45.8799 84.0809 45.5383C84.1673 45.133 84.2178 44.7207 84.2317 44.3064C84.2168 43.891 84.1869 43.4899 84.0959 43.1039L84.0951 43.1031ZM80.5068 40.3429C81.0195 40.6394 81.0949 40.6838 80.8232 40.4911C81.2158 40.5799 81.4568 40.8027 81.6979 41.0254C82.286 41.6937 82.7681 42.48 83.0092 43.3853C83.145 44.4095 83.0391 45.4337 82.6025 46.3397C81.8188 47.7198 80.5672 48.6402 79.0745 48.8923C78.9089 48.8923 78.7282 48.8923 78.5618 48.9073C78.9842 48.8328 79.2559 48.5657 80.0246 48.2835C80.8531 47.987 81.7882 46.6069 82.2412 45.8047C83.5675 43.6224 81.9994 41.6041 80.5068 40.3429ZM77.6729 48.9216C75.3817 48.6846 73.6174 46.7995 73.3763 44.6172C73.5868 45.8348 74.3107 46.7694 75.2906 47.6009C75.6377 47.8237 76.1497 48.1352 76.4967 48.358C77.0848 48.5807 77.4311 48.8185 78.0043 48.9224H77.6729V48.9216ZM83.8384 44.9588C83.7339 45.4194 83.6279 45.8641 83.5219 46.3247C83.2958 46.8891 82.9644 47.4677 82.5121 47.9275C82.0599 48.3881 81.4867 48.744 80.9143 49.0857C80.462 49.3227 79.8888 49.4416 79.4216 49.5597C79.1499 49.5899 78.8335 49.471 78.5618 49.4567C81.9091 49.3671 84.2004 46.2359 83.7033 43.1332C83.4615 42.228 82.9794 41.4408 82.3912 40.6544C82.1502 40.3128 81.6822 40.1051 81.3359 39.7635C79.2402 38.4428 76.4669 38.7099 74.8839 40.4467C74.6619 40.675 74.4552 40.9178 74.2652 41.1737C75.11 39.9268 76.4669 39.0516 78.0946 38.7987C78.6678 38.7837 79.2559 38.8883 79.8283 38.9921C82.3614 39.7635 84.2459 42.228 83.8384 44.9596V44.9588Z" fill="#D7DF23"/>
</g>
<defs>
<filter id="filter0_d_107_495" x="0.59668" y="0" width="200.403" height="147.992" filterUnits="userSpaceOnUse" color-interpolation-filters="sRGB">
<feFlood flood-opacity="0" result="BackgroundImageFix"/>
<feColorMatrix in="SourceAlpha" type="matrix" values="0 0 0 0 0 0 0 0 0 0 0 0 0 0 0 0 0 0 127 0" result="hardAlpha"/>
<feOffset dy="30"/>
<feGaussianBlur stdDeviation="20"/>
<feColorMatrix type="matrix" values="0 0 0 0 0.831373 0 0 0 0 0.85098 0 0 0 0 0.909804 0 0 0 0.2 0"/>
<feBlend mode="normal" in2="BackgroundImageFix" result="effect1_dropShadow_107_495"/>
<feBlend mode="normal" in="SourceGraphic" in2="effect1_dropShadow_107_495" result="shape"/>
</filter>
<clipPath id="clip0_107_495">
<rect width="69.4088" height="24.0806" fill="white" transform="translate(66.0938 31.9561)"/>
</clipPath>
</defs>
</svg>
